<svg xmlns="http://www.w3.org/2000/svg" width="29" height="29" viewBox="0 0 29 29" fill="none">
<path d="M24.3167 26.6349C24.3167 22.0812 19.7865 18.3982 14.2091 18.3982C8.63173 18.3982 4.10156 22.0812 4.10156 26.6349M14.2091 14.8682C15.7695 14.8682 17.2659 14.2484 18.3693 13.145C19.4726 12.0417 20.0925 10.5453 20.0925 8.9849C20.0925 7.42454 19.4726 5.92809 18.3693 4.82475C17.2659 3.72141 15.7695 3.10156 14.2091 3.10156C12.6488 3.10156 11.1523 3.72141 10.049 4.82475C8.94565 5.92809 8.3258 7.42454 8.3258 8.9849C8.3258 10.5453 8.94565 12.0417 10.049 13.145C11.1523 14.2484 12.6488 14.8682 14.2091 14.8682Z" stroke="black" stroke-width="1.92545" stroke-linecap="round" stroke-linejoin="round"/>
</svg>