<svg width="20" height="20" viewBox="0 0 20 20" fill="none" xmlns="http://www.w3.org/2000/svg">
<g clip-path="url(#clip0_591_9545)">
<path d="M8.90216 3.35742H3.54501C2.91355 3.35742 2.30794 3.60827 1.86143 4.05479C1.41491 4.5013 1.16406 5.10691 1.16406 5.73837V16.4527C1.16406 17.0841 1.41491 17.6897 1.86143 18.1362C2.30794 18.5828 2.91355 18.8336 3.54501 18.8336H15.4498C16.0812 18.8336 16.6868 18.5828 17.1334 18.1362C17.5799 17.6897 17.8307 17.0841 17.8307 16.4527V11.0955" stroke="#C31A7F" stroke-width="1.5" stroke-linecap="round" stroke-linejoin="round"/>
<path d="M15.4496 4.54875L16.5841 5.73923M17.8305 2.12852C18.1479 2.45668 18.3236 2.89639 18.3198 3.3529C18.3161 3.8094 18.1331 4.24614 17.8103 4.56899L9.49721 12.8821L5.92578 14.0726L7.11626 10.5011L15.4341 2.11304C15.7265 1.81837 16.1178 1.64261 16.5323 1.61974C16.9468 1.59687 17.3551 1.72852 17.6782 1.98923L17.8305 2.12852Z" stroke="#C31A7F" stroke-width="1.5" stroke-linecap="round" stroke-linejoin="round"/>
</g>
<defs>
<clipPath id="clip0_591_9545">
<rect width="20" height="20" fill="white"/>
</clipPath>
</defs>
</svg>
