<svg width="40" height="40" viewBox="0 0 40 40" fill="none" xmlns="http://www.w3.org/2000/svg">
<path d="M26.7776 14.9904C26.8971 14.8751 26.9924 14.7373 27.058 14.5848C27.1235 14.4323 27.1581 14.2683 27.1596 14.1023C27.1611 13.9364 27.1296 13.7717 27.0668 13.6181C27.004 13.4644 26.9113 13.3248 26.794 13.2074C26.6767 13.09 26.5371 12.9971 26.3835 12.9342C26.23 12.8713 26.0654 12.8396 25.8994 12.8409C25.7334 12.8423 25.5694 12.8767 25.4168 12.9421C25.2643 13.0076 25.1263 13.1027 25.011 13.2221L20.001 18.2304L14.9926 13.2221C14.8782 13.0993 14.7402 13.0008 14.5869 12.9324C14.4335 12.8641 14.268 12.8274 14.1002 12.8244C13.9323 12.8215 13.7656 12.8523 13.61 12.9152C13.4543 12.9781 13.3129 13.0716 13.1942 13.1903C13.0755 13.309 12.982 13.4504 12.9191 13.6061C12.8562 13.7617 12.8254 13.9284 12.8283 14.0963C12.8313 14.2641 12.868 14.4296 12.9363 14.583C13.0047 14.7363 13.1032 14.8743 13.226 14.9887L18.231 19.9987L13.2226 25.0071C13.0018 25.244 12.8816 25.5574 12.8873 25.8813C12.8931 26.2051 13.0242 26.5141 13.2533 26.7431C13.4823 26.9721 13.7913 27.1033 14.1151 27.109C14.4389 27.1147 14.7523 26.9945 14.9893 26.7737L20.001 21.7654L25.0093 26.7754C25.2463 26.9962 25.5597 27.1164 25.8835 27.1107C26.2073 27.105 26.5163 26.9738 26.7453 26.7448C26.9744 26.5158 27.1055 26.2068 27.1113 25.8829C27.117 25.5591 26.9968 25.2457 26.776 25.0087L21.771 19.9987L26.7776 14.9904Z" fill="black"/>
</svg>
