<svg xmlns="http://www.w3.org/2000/svg" width="1920" height="67" viewBox="0 0 1920 67" fill="none">
<path d="M-34.7254 5.24945C10.3071 5.57096 52.0499 6.44017 93.1271 5.66695C134.932 4.85563 174.207 3.7011 214.566 2.71517C256.378 1.70319 305.446 0.962345 355.188 1.61309C401.3 2.22859 447.727 4.12933 492.063 3.63614C544.031 3.04387 586.981 0.745706 640.389 0.528716C696.339 0.30378 746.052 1.75716 799.736 3.87886C859.586 6.25358 914.708 8.77564 971.637 11.5536C1046.7 15.2602 1089.23 14.2603 1162.26 14.0178C1229.11 13.7983 1305.68 15.8485 1371.7 18.2254C1404.35 19.4204 1432.26 21.1138 1463.82 22.3409C1497.55 23.6543 1525.17 23.4355 1557.51 23.27C1640.35 22.8392 1742.36 24.4086 1824.7 27.7593C1858.43 29.1229 1937.18 31.3096 1959.25 33.8346C1969.01 34.9506 1967.83 37.541 1969.24 38.6437C1973.82 42.3841 1973.68 46.0963 1976.82 49.8377C1980.65 54.0928 1978.32 58.2955 1979.98 62.5144C1980.97 65.2163 1983.08 66.9832 1942.04 66.8535C1921.33 66.7856 1894.48 66.0383 1873.42 65.6884C1817.88 64.7656 1763.77 64.3184 1708.58 63.7778C1567.32 62.4098 1425.33 61.1551 1284.08 59.6616C1153.35 58.2679 1027.67 58.2126 898.02 57.2132C794.521 56.3971 680.164 54.4972 575.608 52.7852C479.039 51.2059 383.922 49.6758 288.108 47.331C203.907 45.2796 120.447 42.8389 35.8764 40.9821C-6.22763 40.0567 -56.3259 39.1992 -71.0989 35.9421C-89.1151 31.9785 -90.7305 26.5556 -89.5001 22.7612C-86.7265 16.5328 -87.9184 9.48565 -34.7254 5.24945Z" fill="url(#paint0_linear_597_74086)"/>
<defs>
<linearGradient id="paint0_linear_597_74086" x1="946.726" y1="5.00881" x2="945.83" y2="58.9476" gradientUnits="userSpaceOnUse">
<stop stop-color="#607674"/>
<stop offset="1" stop-color="#607674" stop-opacity="0"/>
</linearGradient>
</defs>
</svg>