<svg xmlns="http://www.w3.org/2000/svg" width="1920" height="171" viewBox="0 0 1920 171" fill="none">
<path d="M-39.1282 40.1095C5.93801 39.5199 47.6669 40.7643 88.8592 36.8828C130.783 32.856 170.201 27.8429 210.691 23.32C252.638 18.6639 301.829 14.6004 351.586 14.876C397.709 15.17 444.047 19.4823 488.48 16.3631C540.564 12.6626 583.752 3.93352 637.247 1.35853C693.288 -1.33159 742.952 1.46157 796.538 6.20922C856.279 11.5314 911.274 17.4833 968.059 24.1734C1042.92 33.1319 1085.6 28.4878 1158.73 25.1371C1225.69 22.0772 1302.2 25.7887 1368.12 30.8988C1400.72 33.4871 1428.53 37.8065 1460.03 40.5341C1493.71 43.4553 1521.38 41.7895 1553.77 40.1234C1636.75 35.8341 1738.78 37.1356 1820.96 44.72C1854.63 47.7984 1933.31 51.8608 1955.2 58.9947C1964.89 62.1471 1963.5 70.311 1964.83 73.7181C1969.12 85.2828 1968.69 96.9265 1971.53 108.546C1975.04 121.75 1972.36 135.01 1973.69 148.179C1974.47 156.615 1976.45 162.079 1935.36 163.129C1914.63 163.65 1887.8 162.26 1866.75 161.91C1811.2 160.987 1757.06 161.505 1701.83 161.768C1560.5 162.49 1418.42 163.593 1277.1 163.922C1146.32 164.189 1020.47 168.475 890.732 169.941C787.161 171.054 672.804 169.154 568.247 167.496C471.676 165.97 376.554 164.547 280.8 160.595C196.651 157.15 113.275 152.458 28.7393 149.637C-13.3468 148.229 -63.4431 147.318 -77.9778 137.63C-95.7041 125.842 -96.8926 108.897 -95.3604 96.9569C-92.0904 77.3308 -92.7263 55.2782 -39.1282 40.1095Z" fill="url(#paint0_linear_597_74084)"/>
<defs>
<linearGradient id="paint0_linear_597_74084" x1="943.633" y1="4.53738" x2="947.212" y2="259.738" gradientUnits="userSpaceOnUse">
<stop stop-color="#8BB4B0"/>
<stop offset="0.530323" stop-color="#8BB4B0" stop-opacity="0"/>
</linearGradient>
</defs>
</svg>