<svg xmlns="http://www.w3.org/2000/svg" width="48" height="48" viewBox="0 0 48 48" fill="none">
<path fill-rule="evenodd" clip-rule="evenodd" d="M0 24C0 17.6348 2.52856 11.5303 7.02944 7.02944C11.5303 2.52856 17.6348 0 24 0C30.3652 0 36.4697 2.52856 40.9706 7.02944C45.4714 11.5303 48 17.6348 48 24C48 30.3652 45.4714 36.4697 40.9706 40.9706C36.4697 45.4714 30.3652 48 24 48C17.6348 48 11.5303 45.4714 7.02944 40.9706C2.52856 36.4697 0 30.3652 0 24ZM24 3.44255C20.0154 3.44269 16.1167 4.60081 12.7782 6.77604C9.43976 8.95126 6.80538 12.0498 5.1956 15.6948C3.58582 19.3397 3.07002 23.3739 3.71094 27.3067C4.35186 31.2394 6.12188 34.9011 8.80568 37.8463C10.435 35.2943 12.6813 33.1941 15.337 31.7399C17.9928 30.2856 20.9722 29.5243 24 29.5262C27.0279 29.524 30.0074 30.2852 32.6632 31.7394C35.319 33.1937 37.5652 35.294 39.1943 37.8463C41.8781 34.9011 43.6481 31.2394 44.2891 27.3067C44.93 23.3739 44.4142 19.3397 42.8044 15.6948C41.1946 12.0498 38.5602 8.95126 35.2218 6.77604C31.8833 4.60081 27.9846 3.44269 24 3.44255ZM36.6178 40.2307C35.3355 38.0207 33.4949 36.1865 31.2803 34.9119C29.0658 33.6374 26.5551 32.9673 24 32.9687C21.4449 32.9673 18.9342 33.6374 16.7197 34.9119C14.5051 36.1865 12.6645 38.0207 11.3822 40.2307C14.9869 43.0415 19.4289 44.5647 24 44.5575C28.7543 44.5575 33.1318 42.9413 36.6178 40.2307ZM15.4842 20.3944C15.4842 18.1359 16.3814 15.9698 17.9784 14.3728C19.5755 12.7758 21.7415 11.8786 24 11.8786C26.2585 11.8786 28.4245 12.7758 30.0216 14.3728C31.6186 15.9698 32.5158 18.1359 32.5158 20.3944C32.5158 22.6529 31.6186 24.8189 30.0216 26.4159C28.4245 28.013 26.2585 28.9102 24 28.9102C21.7415 28.9102 19.5755 28.013 17.9784 26.4159C16.3814 24.8189 15.4842 22.6529 15.4842 20.3944ZM24 15.3212C23.3338 15.3212 22.6741 15.4524 22.0586 15.7073C21.443 15.9623 20.8838 16.336 20.4127 16.8071C19.9416 17.2782 19.5679 17.8374 19.3129 18.4529C19.058 19.0685 18.9268 19.7282 18.9268 20.3944C18.9268 21.0606 19.058 21.7203 19.3129 22.3358C19.5679 22.9513 19.9416 23.5106 20.4127 23.9817C20.8838 24.4528 21.443 24.8265 22.0586 25.0814C22.6741 25.3364 23.3338 25.4676 24 25.4676C25.3455 25.4676 26.6359 24.9331 27.5873 23.9817C28.5387 23.0303 29.0732 21.7399 29.0732 20.3944C29.0732 19.0489 28.5387 17.7585 27.5873 16.8071C26.6359 15.8557 25.3455 15.3212 24 15.3212Z" fill="#A94360"/>
</svg>