<svg xmlns="http://www.w3.org/2000/svg" width="74" height="75" viewBox="0 0 74 75" fill="none">
<path d="M17.6629 37.3261C17.2779 37.3256 16.8971 37.4053 16.5447 37.5603C16.1923 37.7153 15.8762 37.942 15.6164 38.2261C15.3566 38.5102 15.1589 38.8454 15.036 39.2102C14.9131 39.575 14.8677 39.9614 14.9026 40.3447C15.9358 51.6885 24.3127 61.3126 37.0366 61.3126C49.7605 61.3126 58.1336 51.6885 59.1706 40.3447C59.2055 39.9614 59.16 39.575 59.0371 39.2102C58.9142 38.8454 58.7166 38.5102 58.4568 38.2261C58.197 37.942 57.8809 37.7153 57.5285 37.5603C57.1761 37.4053 56.7953 37.3256 56.4103 37.3261H17.6629ZM37.0366 55.7773C28.7077 55.7773 22.7517 50.3158 20.9177 42.8615H53.1555C51.3252 50.3158 45.3691 55.7773 37.0366 55.7773ZM49.0298 25.3329C47.5242 25.3329 46.4098 26.392 46.2326 27.5839C46.125 28.3101 45.7333 28.9638 45.1436 29.4012C44.554 29.8386 43.8148 30.0238 43.0886 29.9162C42.3624 29.8085 41.7087 29.4168 41.2713 28.8271C40.8339 28.2375 40.6487 27.4983 40.7563 26.7721C41.3542 22.7497 44.9005 19.7975 49.0298 19.7975C53.1592 19.7975 56.7055 22.7497 57.3033 26.7721C57.411 27.4983 57.2258 28.2375 56.7884 28.8271C56.351 29.4168 55.6973 29.8085 54.9711 29.9162C54.2449 30.0238 53.5057 29.8386 52.9161 29.4012C52.3264 28.9638 51.9347 28.3101 51.827 27.5839C51.6499 26.392 50.5355 25.3329 49.0298 25.3329ZM22.2461 27.5839C22.4233 26.392 23.5377 25.3329 25.0433 25.3329C26.5526 25.3329 27.6634 26.392 27.8405 27.5839C27.9482 28.3101 28.3399 28.9638 28.9296 29.4012C29.5192 29.8386 30.2584 30.0238 30.9846 29.9162C31.7108 29.8085 32.3645 29.4168 32.8019 28.8271C33.2393 28.2375 33.4245 27.4983 33.3168 26.7721C32.7227 22.7497 29.1727 19.7975 25.0433 19.7975C20.914 19.7975 17.3677 22.7497 16.7698 26.7721C16.6622 27.4983 16.8474 28.2375 17.2848 28.8271C17.7222 29.4168 18.3759 29.8085 19.1021 29.9162C19.8283 30.0238 20.5675 29.8386 21.1571 29.4012C21.7468 28.9638 22.1385 28.3101 22.2461 27.5839ZM37.0366 0.423828C16.6554 0.423828 0.134277 16.945 0.134277 37.3261C0.134277 57.7073 16.6554 74.2285 37.0366 74.2285C57.4177 74.2285 73.9389 57.7073 73.9389 37.3261C73.9389 16.945 57.4177 0.423828 37.0366 0.423828ZM5.66962 37.3261C5.66962 29.0071 8.97435 21.0288 14.8568 15.1463C20.7392 9.2639 28.7176 5.95918 37.0366 5.95918C45.3556 5.95918 53.3339 9.2639 59.2164 15.1463C65.0988 21.0288 68.4036 29.0071 68.4036 37.3261C68.4036 45.6452 65.0988 53.6235 59.2164 59.5059C53.3339 65.3884 45.3556 68.6931 37.0366 68.6931C28.7176 68.6931 20.7392 65.3884 14.8568 59.5059C8.97435 53.6235 5.66962 45.6452 5.66962 37.3261Z" fill="black"/>
</svg>