<svg xmlns="http://www.w3.org/2000/svg" width="225" height="395" viewBox="0 0 225 395" fill="none">
<path d="M84.9313 279.342C84.6636 273.587 82.1428 262.444 80.9159 257.592L79.9121 256.589C89.1139 254.246 107.384 251.168 106.848 257.592C106.179 265.623 112.537 303.769 112.704 315.647C112.871 327.526 106.346 379.725 105.008 378.052C103.937 376.714 95.1926 375.598 90.9542 375.208C89.0581 345.651 85.1989 285.097 84.9313 279.342Z" fill="#FFABAD"/>
<path d="M188.485 384.242C189.957 384.242 194.229 381.566 196.181 380.227C198.69 380.227 202.204 375.208 206.052 376.881C209.9 378.554 208.394 390.265 208.896 391.269C209.398 392.273 205.215 395.954 199.192 393.11C193.169 390.265 192.166 392.608 187.481 390.265C182.797 387.923 186.645 384.242 188.485 384.242Z" fill="#D9D9D9"/>
<path d="M158.536 388.927C160.41 388.927 164.671 383.015 166.567 380.06C166.567 377.216 175.267 372.531 178.278 372.531C181.29 372.531 180.62 376.044 181.959 380.729C183.297 385.413 184.301 383.239 178.947 388.927C173.594 394.615 165.73 393.277 161.715 394.113C157.7 394.95 156.194 388.927 158.536 388.927Z" fill="#D9D9D9"/>
<path d="M194.843 368.683C193.772 367.211 189.266 345.428 187.146 334.72C192.333 333.215 202.907 330.738 203.71 332.88C204.714 335.557 205.717 361.824 206.219 371.025C206.721 380.227 207.056 378.052 204.546 377.383C202.037 376.714 198.523 382.737 196.516 380.896C194.508 379.056 196.181 370.524 194.843 368.683Z" fill="#FFABAD"/>
<path d="M159.541 345.93C157.132 338.97 157.533 331.207 158.035 328.195C179.283 327.024 175.769 328.195 174.766 340.408C173.986 349.894 178.294 367.293 180.74 375.496C180.835 375.736 180.907 375.98 180.956 376.212C180.886 375.982 180.814 375.743 180.74 375.496C180.08 373.833 178.275 372.352 174.766 376.212C170.75 380.629 167.181 381.287 165.898 381.064L169.077 374.371C166.902 367.791 161.95 352.889 159.541 345.93Z" fill="#FFABAD"/>
<path d="M207.558 257.258C208.629 255.384 210.123 246.216 210.737 241.866L220.942 237.014C222.337 239.858 225.025 246.986 224.623 252.741C224.222 258.496 213.079 265.177 207.558 267.798C207.112 265.066 206.487 259.132 207.558 257.258Z" fill="#FFABAD"/>
<path d="M125.578 214.763C124.184 213.647 121.061 210.781 119.722 208.238C118.486 205.888 119.248 201.739 119.9 199.538C123.088 189.667 132.103 196.526 133.441 199.036C134.78 201.545 132.103 210.747 133.441 214.763C134.512 217.975 138.014 228.147 139.632 232.831C140.702 232.162 143.87 229.207 145.32 227.812L155.693 242.368C152.347 245.881 138.46 250.399 132.103 245.881C127.017 242.267 125.634 223.63 125.578 214.763Z" fill="#FFABAD"/>
<path d="M152.347 317.99C152.748 311.431 159.987 281.238 163.556 266.962C176.941 265.456 204.412 263.348 207.223 266.962C210.736 271.479 209.23 329.199 209.398 332.043C209.532 334.319 192.277 335.222 183.633 335.389V322.005C182.796 324.793 180.889 330.973 179.952 333.382C178.781 336.393 158.37 327.693 153.685 327.359C149.001 327.024 151.845 326.188 152.347 317.99Z" fill="#92A4A2"/>
<path d="M177.609 207.903L174.096 212.086H198.69C197.184 211.249 197.518 206.23 195.678 205.059C194.206 204.122 183.019 206.565 177.609 207.903Z" fill="#607674"/>
<path d="M165.898 213.926C170.315 213.391 173.873 211.807 175.1 211.082C182.796 211.082 191.998 208.907 197.853 211.082C202.538 212.822 211.851 218.722 215.922 221.455C217.986 225.359 222.146 233.835 222.28 236.512C222.414 239.189 213.859 241.42 209.565 242.201C209.565 246.551 209.732 254.916 208.059 260.939C206.72 265.757 207.501 267.185 208.059 267.296C202.705 271.981 167.738 269.304 163.556 267.296C160.21 265.69 159.15 249.897 159.039 242.201L157.031 243.372C154.856 244.208 143.981 227.645 144.148 226.474C144.316 225.303 160.377 214.595 165.898 213.926Z" fill="#607674"/>
<path d="M175.603 178.457C176.138 175.513 181.068 173.884 183.466 173.438C184.303 174.052 186.745 175.981 189.824 178.792C193.672 182.305 191.162 201.88 188.82 204.39C186.946 206.397 180.455 207.792 177.443 208.238V206.565C177.443 205.059 176.105 200.709 171.253 199.705C166.401 198.701 168.074 193.849 168.409 193.348C168.743 192.846 168.743 192.009 168.743 191.34C168.743 190.671 171.755 191.173 171.587 190.169C171.454 189.366 170.305 188.83 169.747 188.663C170.818 188.261 171.197 186.153 171.253 185.15C170.862 185.094 170.015 184.715 169.747 183.644C169.412 182.305 174.934 182.138 175.603 178.457Z" fill="#FFABAD"/>
<path d="M185.137 167.415C190.357 166.077 201.143 172.88 205.883 176.45C206.218 176.728 207.121 177.688 208.058 179.294C208.995 180.9 209.229 184.871 209.229 186.655C211.572 191.507 208.895 195.188 206.887 198.701C204.879 202.215 199.526 205.393 191.495 206.23C183.464 207.066 182.962 205.226 180.955 201.545C178.947 197.865 183.464 195.69 184.301 195.857C185.137 196.024 189.487 194.017 187.814 191.34C186.141 188.663 181.289 188.496 184.301 185.484C187.312 182.473 187.48 181.971 186.309 178.625C185.137 175.278 178.612 169.088 185.137 167.415Z" fill="#1C0905"/>
<path d="M31.2268 23.3653C34.439 18.2793 49.8534 16.3385 57.1591 16.0039C61.3416 25.0384 55.6533 18.3462 52.9765 23.3653C50.835 27.3806 43.1612 28.7191 39.5921 28.8864L23.3635 65.5262H51.638C51.8611 72.2184 51.1696 85.8035 46.6189 86.6066C40.9305 87.6104 12.8232 82.9259 4.45798 78.576C-2.23422 75.096 0.665734 67.1992 2.95224 63.6858C11.0386 52.3649 28.0145 28.4514 31.2268 23.3653Z" fill="#FFABAD"/>
<path d="M137.632 113.208L117.053 78.2415L106.346 99.9911C109.915 103.616 117.89 113.141 121.236 122.243C125.418 133.619 127.092 183.811 121.236 191.507C116.551 197.664 120.845 202.661 123.578 204.389C123.578 201.311 125.92 199.091 127.092 198.366C125.887 205.996 127.593 207.345 128.597 207.066C130.159 205.505 133.282 201.579 133.282 198.366C133.282 195.154 131.943 192.455 131.274 191.507C134.453 177.955 136.394 160.321 138.803 149.346C141.212 138.371 138.636 117.725 137.632 113.208Z" fill="#FFABAD"/>
<path d="M41.7676 375.375V254.748L68.0345 252.74C67.3652 256.477 66.4283 269.504 68.0345 291.723C70.0421 319.495 60.0038 356.47 57.3269 362.66C55.1854 367.612 55.3193 376.435 55.6539 380.227C54.9847 379.223 52.6089 377.416 48.4598 378.219C44.3106 379.022 42.2695 376.658 41.7676 375.375Z" fill="#FFABAD"/>
<path d="M117.053 77.9069C116.919 75.3639 114.209 72.1627 112.871 70.8801C106.346 62.3475 65.5234 63.0167 53.1428 69.5416C40.7622 76.0665 42.268 86.9414 37.918 97.6489C33.5681 108.356 39.5911 116.052 42.268 125.923C44.9448 135.794 33.5682 216.435 31.0586 233.333C28.549 250.231 39.5911 253.744 41.4315 254.581C42.9038 255.25 86.4365 257.537 108.019 258.596C108.075 247.554 108.755 220.35 111.03 199.872C113.875 174.275 105.844 166.077 103.836 159.886C101.829 153.696 100.992 141.65 101.494 124.418C101.996 107.185 117.221 81.0857 117.053 77.9069Z" fill="#C8FFFA"/>
<path d="M29.0526 382.904C33.7371 382.502 39.8158 377.829 42.2697 375.542C49.4638 383.071 45.6158 372.531 53.981 378.554C60.6732 383.372 59.5578 389.038 58.1636 391.269H18.1777C18.1777 388.09 23.1969 383.406 29.0526 382.904Z" fill="#D9B9E0"/>
<path d="M55.6538 28.3846C55.3861 7.77262 66.1382 2.28502 71.5477 2.11771C101.328 -9.92824 96.6435 32.9018 100.659 42.9401C104.674 52.9784 110.362 50.9708 111.199 69.7089C112.036 88.4471 94.8031 96.4777 103.503 109.528C112.203 122.577 114.88 123.748 106.013 140.144C97.1454 156.54 65.692 135.962 59.5018 126.258C53.3115 116.554 61.1748 114.045 59.5018 103.003C57.8287 91.9605 33.4022 78.4088 45.6154 71.7166C57.8287 65.0244 55.9884 54.1496 55.6538 28.3846Z" fill="#28443D"/>
<path d="M83.9273 381.9C87.0057 380.829 90.0061 376.658 91.1214 374.706C103.502 379.725 100.156 370.858 104.84 377.55C108.588 382.904 108.633 388.704 108.187 390.935H77.2351C76.3986 388.425 80.0793 383.239 83.9273 381.9Z" fill="#D9B9E0"/>
</svg>