<svg xmlns="http://www.w3.org/2000/svg" width="76" height="77" viewBox="0 0 76 77" fill="none">
<path d="M31.7023 32.0358C31.7023 32.6553 31.5803 33.2688 31.3432 33.8412C31.1061 34.4135 30.7586 34.9336 30.3205 35.3717C29.8825 35.8097 29.3624 36.1572 28.79 36.3943C28.2177 36.6314 27.6042 36.7534 26.9847 36.7534C26.3651 36.7534 25.7517 36.6314 25.1793 36.3943C24.6069 36.1572 24.0869 35.8097 23.6488 35.3717C23.2107 34.9336 22.8632 34.4135 22.6262 33.8412C22.3891 33.2688 22.267 32.6553 22.267 32.0358C22.267 30.7846 22.7641 29.5847 23.6488 28.6999C24.5335 27.8152 25.7335 27.3182 26.9847 27.3182C28.2359 27.3182 29.4358 27.8152 30.3205 28.6999C31.2053 29.5847 31.7023 30.7846 31.7023 32.0358ZM49.0003 36.7534C50.2514 36.7534 51.4514 36.2564 52.3361 35.3717C53.2208 34.4869 53.7179 33.287 53.7179 32.0358C53.7179 30.7846 53.2208 29.5847 52.3361 28.6999C51.4514 27.8152 50.2514 27.3182 49.0003 27.3182C47.7491 27.3182 46.5491 27.8152 45.6644 28.6999C44.7797 29.5847 44.2826 30.7846 44.2826 32.0358C44.2826 33.287 44.7797 34.4869 45.6644 35.3717C46.5491 36.2564 47.7491 36.7534 49.0003 36.7534ZM25.4121 44.6161C24.578 44.6161 23.778 44.9475 23.1882 45.5373C22.5984 46.1271 22.267 46.9271 22.267 47.7612C22.267 48.5953 22.5984 49.3953 23.1882 49.9851C23.778 50.5749 24.578 50.9063 25.4121 50.9063H50.5728C51.4069 50.9063 52.2069 50.5749 52.7967 49.9851C53.3865 49.3953 53.7179 48.5953 53.7179 47.7612C53.7179 46.9271 53.3865 46.1271 52.7967 45.5373C52.2069 44.9475 51.4069 44.6161 50.5728 44.6161H25.4121ZM37.9925 0.584961C42.9487 0.584961 47.8564 1.56116 52.4353 3.45782C57.0143 5.35449 61.1748 8.13447 64.6794 11.639C68.184 15.1436 70.9639 19.3042 72.8606 23.8831C74.7573 28.4621 75.7335 33.3697 75.7335 38.326C75.7335 43.2822 74.7573 48.1899 72.8606 52.7688C70.9639 57.3478 68.184 61.5083 64.6794 65.0129C61.1748 68.5175 57.0143 71.2974 52.4353 73.1941C47.8564 75.0908 42.9487 76.067 37.9925 76.067C27.9829 76.067 18.3834 72.0907 11.3055 65.0129C4.22774 57.9351 0.251465 48.3355 0.251465 38.326C0.251465 28.3164 4.22774 18.7169 11.3055 11.639C18.3834 4.56123 27.9829 0.584961 37.9925 0.584961ZM37.9925 6.87513C29.6512 6.87513 21.6515 10.1887 15.7534 16.0869C9.85519 21.985 6.54163 29.9847 6.54163 38.326C6.54163 46.6672 9.85519 54.6669 15.7534 60.5651C21.6515 66.4632 29.6512 69.7768 37.9925 69.7768C46.3337 69.7768 54.3334 66.4632 60.2316 60.5651C66.1297 54.6669 69.4433 46.6672 69.4433 38.326C69.4433 29.9847 66.1297 21.985 60.2316 16.0869C54.3334 10.1887 46.3337 6.87513 37.9925 6.87513Z" fill="black"/>
</svg>