<svg xmlns="http://www.w3.org/2000/svg" width="76" height="77" viewBox="0 0 76 77" fill="none">
<path d="M75.7051 38.326C75.7051 33.3697 74.7289 28.4621 72.8323 23.8831C70.9356 19.3042 68.1556 15.1436 64.6511 11.639C61.1465 8.13447 56.986 5.35449 52.407 3.45782C47.8281 1.56116 42.9204 0.584961 37.9641 0.584961C33.0079 0.584961 28.1002 1.56116 23.5213 3.45782C18.9423 5.35449 14.7818 8.13447 11.2772 11.639C7.77265 15.1436 4.99267 19.3042 3.09601 23.8831C1.19934 28.4621 0.223144 33.3697 0.223145 38.326C0.223145 48.3355 4.19942 57.9351 11.2772 65.0129C18.355 72.0907 27.9546 76.067 37.9641 76.067C47.9737 76.067 57.5732 72.0907 64.6511 65.0129C71.7289 57.9351 75.7051 48.3355 75.7051 38.326ZM6.51331 38.326C6.51331 29.9847 9.82687 21.985 15.725 16.0869C21.6232 10.1887 29.6229 6.87513 37.9641 6.87513C46.3054 6.87513 54.3051 10.1887 60.2032 16.0869C66.1014 21.985 69.415 29.9847 69.415 38.326C69.415 46.6672 66.1014 54.6669 60.2032 60.5651C54.3051 66.4632 46.3054 69.7768 37.9641 69.7768C29.6229 69.7768 21.6232 66.4632 15.725 60.5651C9.82687 54.6669 6.51331 46.6672 6.51331 38.326ZM31.674 30.4633C31.674 31.0828 31.552 31.6962 31.3149 32.2686C31.0778 32.841 30.7303 33.361 30.2922 33.7991C29.8541 34.2372 29.3341 34.5847 28.7617 34.8218C28.1893 35.0589 27.5759 35.1809 26.9564 35.1809C26.3368 35.1809 25.7234 35.0589 25.151 34.8218C24.5786 34.5847 24.0586 34.2372 23.6205 33.7991C23.1824 33.361 22.8349 32.841 22.5978 32.2686C22.3608 31.6962 22.2387 31.0828 22.2387 30.4633C22.2387 29.2121 22.7358 28.0121 23.6205 27.1274C24.5052 26.2427 25.7052 25.7456 26.9564 25.7456C28.2075 25.7456 29.4075 26.2427 30.2922 27.1274C31.1769 28.0121 31.674 29.2121 31.674 30.4633ZM53.6896 30.4633C53.6896 31.7144 53.1925 32.9144 52.3078 33.7991C51.4231 34.6838 50.2231 35.1809 48.9719 35.1809C47.7207 35.1809 46.5208 34.6838 45.6361 33.7991C44.7514 32.9144 44.2543 31.7144 44.2543 30.4633C44.2543 29.2121 44.7514 28.0121 45.6361 27.1274C46.5208 26.2427 47.7207 25.7456 48.9719 25.7456C50.2231 25.7456 51.4231 26.2427 52.3078 27.1274C53.1925 28.0121 53.6896 29.2121 53.6896 30.4633ZM26.2141 56.0768C32.0325 49.1828 43.8895 49.1828 49.7142 56.0768C49.9741 56.4112 50.2989 56.6896 50.669 56.8954C51.0391 57.1012 51.447 57.2301 51.8682 57.2744C52.2894 57.3187 52.7152 57.2775 53.12 57.1533C53.5249 57.029 53.9005 56.8243 54.2243 56.5513C54.5481 56.2784 54.8135 55.9428 55.0044 55.5648C55.1954 55.1868 55.3081 54.7742 55.3357 54.3516C55.3633 53.929 55.3052 53.5051 55.1651 53.1055C55.0249 52.7059 54.8054 52.3387 54.5199 52.0259C46.1854 42.1504 29.7366 42.1504 21.4084 52.0259C21.1229 52.3387 20.9034 52.7059 20.7632 53.1055C20.623 53.5051 20.565 53.929 20.5926 54.3516C20.6202 54.7742 20.7329 55.1868 20.9238 55.5648C21.1148 55.9428 21.3802 56.2784 21.704 56.5513C22.0278 56.8243 22.4034 57.029 22.8083 57.1533C23.2131 57.2775 23.6389 57.3187 24.0601 57.2744C24.4813 57.2301 24.8892 57.1012 25.2593 56.8954C25.6294 56.6896 25.9542 56.4112 26.2141 56.0768Z" fill="black"/>
</svg>