<svg xmlns="http://www.w3.org/2000/svg" width="76" height="77" viewBox="0 0 76 77" fill="none">
<path d="M27.0257 36.7534C28.2769 36.7534 29.4768 36.2564 30.3616 35.3717C31.2463 34.4869 31.7433 33.287 31.7433 32.0358C31.7433 30.7846 31.2463 29.5847 30.3616 28.6999C29.4768 27.8152 28.2769 27.3182 27.0257 27.3182C25.7745 27.3182 24.5746 27.8152 23.6898 28.6999C22.8051 29.5847 22.3081 30.7846 22.3081 32.0358C22.3081 33.287 22.8051 34.4869 23.6898 35.3717C24.5746 36.2564 25.7745 36.7534 27.0257 36.7534ZM26.3086 48.8117C26.0344 48.4996 25.701 48.2449 25.3278 48.0624C24.9545 47.8799 24.5488 47.7731 24.1341 47.7483C23.7194 47.7234 23.3038 47.781 22.9115 47.9177C22.5191 48.0543 22.1577 48.2674 21.8482 48.5445C21.5387 48.8217 21.2871 49.1574 21.108 49.5323C20.929 49.9072 20.826 50.3139 20.805 50.7288C20.784 51.1437 20.8454 51.5587 20.9857 51.9498C21.126 52.3409 21.3424 52.7003 21.6224 53.0072C23.6862 55.3176 26.2153 57.1654 29.0436 58.4294C31.8719 59.6934 34.9356 60.3451 38.0335 60.3415C41.1314 60.3451 44.195 59.6934 47.0234 58.4294C49.8517 57.1654 52.3807 55.3176 54.4445 53.0072C54.9918 52.3844 55.271 51.5707 55.2214 50.7431C55.1719 49.9156 54.7975 49.141 54.1798 48.588C53.5622 48.035 52.7511 47.7482 51.9231 47.7901C51.0951 47.832 50.3171 48.1991 49.7584 48.8117C48.2848 50.4634 46.478 51.7843 44.4571 52.6874C42.4362 53.5905 40.247 54.0554 38.0335 54.0514C33.3788 54.0514 29.1958 52.0322 26.3086 48.8117ZM53.7589 32.0358C53.7589 33.287 53.2619 34.4869 52.3771 35.3717C51.4924 36.2564 50.2925 36.7534 49.0413 36.7534C47.7901 36.7534 46.5901 36.2564 45.7054 35.3717C44.8207 34.4869 44.3236 33.287 44.3236 32.0358C44.3236 30.7846 44.8207 29.5847 45.7054 28.6999C46.5901 27.8152 47.7901 27.3182 49.0413 27.3182C50.2925 27.3182 51.4924 27.8152 52.3771 28.6999C53.2619 29.5847 53.7589 30.7846 53.7589 32.0358ZM75.7745 38.326C75.7745 33.3697 74.7983 28.4621 72.9016 23.8831C71.005 19.3042 68.225 15.1436 64.7204 11.639C61.2158 8.13447 57.0553 5.35449 52.4763 3.45782C47.8974 1.56116 42.9897 0.584961 38.0335 0.584961C33.0773 0.584961 28.1696 1.56116 23.5906 3.45782C19.0117 5.35449 14.8511 8.13447 11.3466 11.639C7.84199 15.1436 5.06201 19.3042 3.16534 23.8831C1.26868 28.4621 0.29248 33.3697 0.29248 38.326C0.292481 48.3355 4.26875 57.9351 11.3466 65.0129C18.4244 72.0907 28.0239 76.067 38.0335 76.067C48.043 76.067 57.6426 72.0907 64.7204 65.0129C71.7982 57.9351 75.7745 48.3355 75.7745 38.326ZM6.58265 38.326C6.58265 29.9847 9.89621 21.985 15.7944 16.0869C21.6926 10.1887 29.6922 6.87513 38.0335 6.87513C46.3748 6.87513 54.3744 10.1887 60.2726 16.0869C66.1708 21.985 69.4843 29.9847 69.4843 38.326C69.4843 46.6672 66.1708 54.6669 60.2726 60.5651C54.3744 66.4632 46.3748 69.7768 38.0335 69.7768C29.6922 69.7768 21.6926 66.4632 15.7944 60.5651C9.89621 54.6669 6.58265 46.6672 6.58265 38.326Z" fill="black"/>
</svg>