<svg width="328" height="437" viewBox="0 0 328 437" fill="none" xmlns="http://www.w3.org/2000/svg">
<ellipse cx="39.1302" cy="432.103" rx="38.5108" ry="4.89732" fill="#D9D9D9"/>
<ellipse cx="202.077" cy="424.089" rx="38.5108" ry="4.89732" fill="#D9D9D9"/>
<path d="M136.687 262.922C137.043 260.607 133.719 256.318 132.012 254.463C130.454 251.569 133.57 237.545 133.57 234.651C133.57 231.757 158.948 233.093 167.184 233.538C175.42 233.984 178.092 255.354 178.537 259.361C178.893 262.566 181.95 265.148 183.434 266.039L172.081 277.169C171.725 275.744 168.668 273.162 167.184 272.049C167.184 272.049 161.396 280.953 154.718 282.066C148.04 283.179 141.139 272.717 140.471 272.049C139.937 271.515 135.648 270.046 133.57 269.378C134.461 268.191 136.331 265.237 136.687 262.922Z" fill="#F3C7B6"/>
<path d="M126.447 232.203C128.94 219.737 144.256 213.059 151.602 211.278C153.026 210.209 149.821 208.755 148.04 208.161C150.355 207.983 152.715 208.978 153.605 209.497C152.926 207.628 154.893 204.801 156.106 203.449C156.159 203.375 156.216 203.312 156.276 203.264C156.222 203.322 156.165 203.384 156.106 203.449C155.377 204.475 155.317 207.837 155.386 209.497C155.92 207.538 158.28 206.158 159.393 205.713C157.79 206.959 156.647 209.645 156.276 210.833C160.016 210.476 164.216 210.981 165.848 211.278C187.886 215.73 188.332 232.203 186.551 236.432C185.126 239.816 182.395 256.541 181.208 264.481C177.869 263.59 174.53 252.905 171.636 244.001C168.742 235.097 165.403 237.545 161.396 238.436C158.191 239.148 160.951 248.379 162.732 252.905L158.28 247.785C146.17 249.032 137.8 241.478 135.129 237.545C135.203 238.584 135.307 242.443 135.129 249.566C134.951 256.689 121.327 258.915 118.879 259.583C115.317 260.555 111.844 262.522 118.433 258.248C126.67 252.905 123.331 247.785 126.447 232.203Z" fill="black"/>
<path d="M170.078 279.395L184.992 264.258L191.448 268.487L174.975 292.084L170.078 279.395Z" fill="#4B79B5"/>
<path d="M133.793 327.701C142.341 330.372 173.565 358.346 188.109 372.222L128.228 352.855L91.7207 406.503L77.6965 401.606C86.5266 380.013 105.567 335.403 111.087 329.704C117.988 322.581 123.108 324.362 133.793 327.701Z" fill="#09083D"/>
<path d="M80.1451 406.948L81.7033 402.941L89.0493 405.39L87.9363 408.952L90.1624 414.962C89.0493 415.852 83.7068 415.852 81.7033 415.407C80.1006 415.051 78.8095 410.213 78.3643 407.839L80.1451 406.948Z" fill="#F8DFD5"/>
<path d="M76.361 404.277C77.4295 404.633 78.4387 406.948 78.8097 408.061C79.9227 414.739 83.0392 416.743 86.8235 415.63C90.6078 414.517 91.4982 415.185 92.3886 416.743C93.279 418.301 93.5016 425.424 91.4982 428.986C89.4947 432.548 64.3403 425.202 57.6621 423.866C50.984 422.531 48.9805 407.171 57.6621 408.729C66.3438 410.287 75.0254 403.832 76.361 404.277Z" fill="#F9BFAC"/>
<path d="M138.468 296.981L172.081 284.07C172.081 286.741 172.17 292.93 172.527 296.313C172.883 299.697 165.106 306.627 161.174 309.67C155.683 312.415 141.985 317.995 131.122 318.351C117.543 318.796 115.762 311.673 114.649 305.217C113.759 300.053 127.783 280.063 134.906 270.714L139.581 272.049L147.372 279.173L138.468 296.981Z" fill="#385A87"/>
<path d="M202.356 275.611C196.657 270.268 190.78 268.933 188.554 268.933L172.972 283.179C171.636 284.07 168.876 287.988 168.52 296.536C168.074 307.221 177.201 340.389 183.879 348.403C189.222 354.814 190.261 374.374 190.112 383.352L236.192 392.479C243.092 388.472 246.877 362.427 238.863 333.934C230.849 305.44 209.479 282.289 202.356 275.611Z" fill="#4B79B5"/>
<path d="M161.174 309.002L171.413 299.652C180.54 303.882 194.431 314.478 176.979 323.026C155.163 333.711 142.252 332.153 139.358 324.139C137.043 317.728 152.195 284.515 160.061 268.71L171.413 272.717L161.174 309.002Z" fill="#4B79B5"/>
<path d="M162.732 267.152L162.064 269.823L169.633 272.494L170.746 269.378C177.572 266.707 190.691 260.919 188.554 259.138C186.417 257.357 180.985 259.435 178.537 260.696C181.727 253.647 187.708 239.504 186.105 239.326C184.503 239.148 179.205 248.601 176.756 253.35C178.092 248.824 180.763 239.237 180.763 237.1C180.763 234.429 179.205 234.874 178.537 235.542C178.003 236.076 174.01 245.114 172.081 249.566C172.304 244.52 172.259 234.162 170.3 233.093C168.341 232.025 168 244.075 168.074 250.234C167.777 247.414 166.65 240.973 164.513 237.768C162.376 234.562 161.841 238.362 161.841 240.662C164.513 251.792 162.064 255.131 160.506 259.138C159.259 262.344 161.47 265.816 162.732 267.152Z" fill="#E3B29F"/>
<path d="M192.561 418.524C224.438 430.277 234.782 406.206 235.969 392.701C210.815 389.14 190.335 375.783 176.088 361.537C161.842 347.29 136.019 331.485 126.447 328.591C118.79 326.276 111.681 332.078 109.084 335.269C98.9332 338.653 65.5275 374.967 50.0935 392.701L62.5594 404.945L128.005 355.304C136.242 371.48 160.684 406.77 192.561 418.524Z" fill="#01002D"/>
<path d="M49.7199 400.259L53.9503 396.708L61.0009 403.336L57.7106 406.886L57.2406 415.407C56.6139 415.328 54.0913 414.744 49.0148 413.04C43.9383 411.336 46.1162 403.809 47.8397 400.259H49.7199Z" fill="#F8DFD5"/>
<path d="M47.1994 395.818C48.4459 396.174 48.6092 398.934 48.535 400.27C46.7541 401.16 47.1994 409.174 48.535 411.623C49.8706 414.072 57.4392 413.404 58.5522 415.852C59.6653 418.301 56.994 421.195 54.5453 426.315C52.5864 430.411 49.277 429.06 47.8672 427.873C37.1821 425.647 10.2468 400.27 7.79817 397.154C5.3495 394.037 5.3495 392.479 7.79817 390.03C10.2468 387.581 16.925 387.581 26.497 392.924C36.0691 398.267 45.6411 395.373 47.1994 395.818Z" fill="#F9BFAC"/>
<path d="M135.574 254.241C138.171 255.354 144.122 256.689 147.149 253.128" stroke="#393939" stroke-width="1.70787" stroke-linecap="round"/>
<ellipse cx="143.936" cy="260.208" rx="1.55824" ry="2.44866" transform="rotate(-21.6492 143.936 260.208)" fill="#393939"/>
<circle cx="155.347" cy="199.432" r="3.33908" transform="rotate(-5.10346 155.347 199.432)" fill="#E88393"/>
<circle cx="191.02" cy="220.937" r="2.15654" transform="rotate(31.5667 191.02 220.937)" fill="#E88393"/>
<circle cx="156.415" cy="186.374" r="5.11993" transform="rotate(-5.10346 156.415 186.374)" fill="#E88393"/>
<circle cx="196.61" cy="214.585" r="3.30669" transform="rotate(31.5667 196.61 214.585)" fill="#E88393"/>
<circle cx="158.378" cy="168.32" r="8.68162" transform="rotate(-5.10346 158.378 168.32)" fill="#E88393"/>
<circle cx="204.591" cy="205.989" r="5.607" transform="rotate(31.5667 204.591 205.989)" fill="#E88393"/>
<circle cx="159.384" cy="144.54" r="8.68162" transform="rotate(-5.10346 159.384 144.54)" fill="#E88393"/>
<circle cx="214.283" cy="194.059" r="5.607" transform="rotate(31.5667 214.283 194.059)" fill="#E88393"/>
<circle cx="227.39" cy="178.936" r="9.50169" transform="rotate(31.5667 227.39 178.936)" fill="#E88393"/>
<ellipse cx="134.944" cy="75.5232" rx="81.2282" ry="68.2743" transform="rotate(-5.10346 134.944 75.5232)" fill="#E88393"/>
<ellipse cx="271.53" cy="154.878" rx="53.1946" ry="32.4918" transform="rotate(-5.10346 271.53 154.878)" fill="#E88393"/>
<g clip-path="url(#clip0_53_58951)">
<path d="M274.606 156.133C274.606 156.133 265.242 165.214 265.484 166.97L266.749 175.472L287.711 173.725L286.745 166.364C286.358 165.083 276.78 155.944 276.78 155.944C276.78 155.944 285.274 144.12 285.228 143.541L284.783 138.113L263.698 138.356L264.683 145.706C264.943 146.705 274.606 156.133 274.606 156.133Z" fill="#93D5E1"/>
<path d="M279.758 150.304L276.097 156.01L276.603 170.461L275.02 156.098L268.596 149.309C268.596 149.309 274.188 151.114 275.02 151.183C275.852 151.249 279.758 150.304 279.758 150.304Z" fill="#D3505D"/>
<path d="M282.211 173.177L276.481 168.941L270.927 173.292L282.211 173.177Z" fill="#D3505D"/>
<path d="M288.999 172.15L264.583 173.385C264.196 173.404 263.916 173.748 263.992 174.11L264.694 177.412C264.755 177.71 265.043 177.914 265.361 177.887L289.873 175.846C290.275 175.811 290.544 175.433 290.429 175.067L289.632 172.575C289.547 172.309 289.287 172.139 288.999 172.15Z" fill="#242E4A"/>
<path d="M262.524 140.879L286.941 139.645C287.328 139.625 287.608 139.282 287.531 138.919L286.83 135.617C286.768 135.32 286.481 135.116 286.163 135.143L261.65 137.191C261.248 137.226 260.98 137.604 261.095 137.97L261.892 140.462C261.976 140.721 262.233 140.894 262.524 140.879Z" fill="#242E4A"/>
</g>
<path d="M248.844 156.306C248.844 156.306 243.576 161.415 243.712 162.403L244.424 167.186L256.217 166.203L255.674 162.062C255.456 161.342 250.067 156.2 250.067 156.2C250.067 156.2 254.845 149.548 254.82 149.222L254.569 146.169L242.707 146.305L243.261 150.44C243.408 151.002 248.844 156.306 248.844 156.306Z" fill="#93D5E1"/>
<path d="M251.742 153.027L249.683 156.237L249.968 164.367L249.077 156.287L245.463 152.467C245.463 152.467 248.609 153.483 249.077 153.522C249.545 153.559 251.742 153.027 251.742 153.027Z" fill="#D3505D"/>
<path d="M253.122 165.895L249.899 163.512L246.774 165.96L253.122 165.895Z" fill="#D3505D"/>
<path d="M256.941 165.318L243.205 166.012C242.987 166.023 242.83 166.216 242.873 166.42L243.267 168.278C243.302 168.445 243.464 168.56 243.643 168.545L257.433 167.397C257.659 167.377 257.81 167.165 257.746 166.958L257.297 165.556C257.25 165.407 257.103 165.311 256.941 165.318Z" fill="#242E4A"/>
<path d="M242.047 147.725L255.783 147.03C256.001 147.019 256.159 146.826 256.115 146.622L255.721 144.765C255.686 144.597 255.525 144.482 255.346 144.498L241.555 145.65C241.329 145.67 241.178 145.882 241.243 146.088L241.691 147.49C241.739 147.636 241.883 147.734 242.047 147.725Z" fill="#242E4A"/>
<path d="M301.185 151.409C301.185 151.409 295.916 156.518 296.052 157.506L296.764 162.289L308.557 161.306L308.014 157.165C307.796 156.444 302.407 151.303 302.407 151.303C302.407 151.303 307.186 144.651 307.16 144.325L306.91 141.271L295.047 141.408L295.602 145.543C295.748 146.105 301.185 151.409 301.185 151.409Z" fill="#93D5E1"/>
<path d="M304.083 148.13L302.023 151.34L302.308 159.47L301.417 151.389L297.803 147.57C297.803 147.57 300.949 148.585 301.417 148.624C301.885 148.661 304.083 148.13 304.083 148.13Z" fill="#D3505D"/>
<path d="M305.463 160.998L302.239 158.615L299.115 161.063L305.463 160.998Z" fill="#D3505D"/>
<path d="M309.282 160.42L295.546 161.115C295.328 161.126 295.17 161.319 295.213 161.523L295.608 163.381C295.643 163.548 295.804 163.663 295.983 163.648L309.774 162.499C310 162.48 310.151 162.267 310.086 162.061L309.638 160.659C309.59 160.509 309.444 160.414 309.282 160.42Z" fill="#242E4A"/>
<path d="M294.388 142.828L308.124 142.133C308.342 142.122 308.499 141.929 308.456 141.725L308.061 139.867C308.027 139.7 307.865 139.585 307.686 139.6L293.896 140.753C293.669 140.772 293.518 140.985 293.583 141.191L294.032 142.593C294.079 142.739 294.224 142.836 294.388 142.828Z" fill="#242E4A"/>
<g clip-path="url(#clip1_53_58951)">
<path d="M116.864 50.1115C117.22 61.6424 113.881 65.3822 107.96 70.1015C107.782 70.235 107.603 70.3686 107.559 70.5912C107.514 70.8138 107.693 71.0364 107.826 71.259C109.607 73.3515 112.011 74.7762 114.415 76.0673C117.71 77.8481 121.138 79.5845 124.878 80.1187C129.508 80.831 134.316 79.718 138.501 77.581C140.816 76.4235 142.998 74.8652 144.244 72.5946C141.484 71.6152 138.635 70.6357 136.32 68.8549C134.005 67.074 128.172 61.9541 132.046 42.2758" fill="#FF9A76"/>
<path d="M123.23 47.2621C123.319 47.3512 123.408 47.3957 123.497 47.4847C124.299 48.2861 124.788 49.3101 124.833 50.4231C124.833 50.9129 124.699 51.3581 124.432 51.7588C125.056 55.6766 126.836 60.0842 128.973 63.3788C130.354 65.4713 132.223 66.3617 134.271 66.8514C131.778 63.824 129.107 57.2794 132.09 42.2758L123.23 47.2621Z" fill="#F47047"/>
<path d="M112.723 68.1424C116.775 69.9678 113.569 69.7007 117.754 71.1253C121.939 72.55 130.71 74.8651 133.826 71.7041C134.361 71.1699 137.076 71.3925 137.789 71.0808C138.278 70.8582 138.768 70.8582 139.302 70.8137C140.861 70.7247 142.419 70.6356 143.933 70.5466C146.515 70.413 149.142 70.2794 151.546 71.1699C154.796 72.3719 157.2 75.3548 158.446 78.6049C159.693 81.8549 160.005 85.3721 160.272 88.8447C161.34 103.759 161.429 118.763 160.583 133.722C160.583 134.078 160.539 134.479 160.316 134.791C159.871 135.414 158.936 135.369 158.179 135.28C143.933 133.499 129.508 136.482 115.127 136.215C114.771 136.215 114.415 136.215 114.148 136.037C113.614 135.725 113.48 135.013 113.391 134.39C112.501 127.133 110.809 120.01 108.36 113.153C104.932 103.448 99.9902 94.2763 97.2299 84.3481C96.8292 82.968 96.5176 81.4542 96.9183 80.0741C97.1854 79.0946 96.1169 76.4679 96.7402 75.6665C99.6341 71.9267 106.223 68.7657 110.675 67.163" fill="#FCD2C4"/>
<path d="M148.118 85.4166C147.227 88.5776 147.183 91.9612 147.717 95.2112C148.296 98.7729 149.542 102.201 151.056 105.451C151.946 107.41 152.97 109.28 153.994 111.194C154.128 111.417 153.772 111.595 153.638 111.372C151.813 107.989 149.987 104.516 148.741 100.865C147.628 97.6599 146.915 94.2763 146.96 90.8481C146.96 88.9783 147.227 87.1084 147.717 85.3275C147.806 85.0604 148.207 85.194 148.118 85.4166Z" fill="#441212"/>
<g opacity="0.25">
<path d="M157.69 81.4543C156.354 84.0811 154.573 85.9955 152.614 86.8414C151.679 87.2421 150.7 87.4202 149.765 87.9099C148.83 88.3996 147.94 89.2901 147.45 90.7147C146.738 92.7627 147.049 95.3895 147.45 97.66C147.851 99.9306 148.296 102.424 147.806 104.65C147.583 105.763 147.094 106.742 146.693 107.677C144.957 111.551 143.666 116.047 142.909 120.766C142.909 120.766 151.679 117.516 155.018 113.331C158.358 109.191 157.69 81.4543 157.69 81.4543Z" fill="#F25F3A"/>
</g>
<path d="M112.901 65.4712C112.901 65.4712 119.624 73.8857 130.086 71.7932C130.086 71.7932 134.271 70.6802 135.652 68.2315C135.652 68.2315 138.813 70.1904 142.953 70.2795C142.953 70.2795 139.881 82.3892 129.908 73.7076C129.908 73.7076 119.624 88.2215 110.809 67.1185L112.901 65.4712Z" fill="#F25F3A"/>
<path d="M149.186 31.4572C151.412 33.3716 152.882 36.6661 152.971 39.6045C153.06 42.5429 152.169 45.4368 150.789 48.0635C149.943 49.7108 148.875 51.3136 148.697 53.1389C148.429 55.6321 149.81 57.9472 150.255 60.4404C150.655 62.7555 150.21 65.2042 148.964 67.1631C149.231 64.5809 147.94 62.1322 146.649 59.8616C145.357 57.5911 143.977 55.2314 144.022 52.6492C144.022 51.0019 144.645 49.3992 145.001 47.7519C145.936 43.5669 145.357 39.0257 143.354 35.2414" fill="#441212"/>
<path d="M140.86 25.803C142.775 27.4503 144.689 29.1421 146.203 31.1455C147.717 33.1935 148.785 35.5976 148.83 38.1353C148.874 40.7621 147.806 43.2998 146.515 45.5704C146.158 46.2382 145.758 46.8615 145.624 47.6183C145.491 48.3752 145.624 49.132 145.847 49.8889C146.203 51.0019 146.426 51.5807 147.182 52.5156C147.583 52.9609 147.939 53.6732 147.717 54.2074C147.628 54.4301 147.182 54.7862 147.004 54.8753C145.491 55.4095 145.58 55.0979 144.511 55.9438C143.977 56.3445 143.131 57.4575 142.819 58.0363C141.795 59.9952 140.682 61.8651 139.436 63.6904C139.08 64.2247 138.634 64.8035 138.011 64.937C137.655 65.0261 137.254 64.937 136.898 64.848C132.179 63.6904 127.949 60.5294 125.545 56.2999C123.141 52.0704 122.607 46.8169 124.031 42.1422" fill="#FF9A76"/>
<path d="M117.131 30.9228C114.46 31.0564 111.699 30.7448 109.473 29.2756C107.114 27.6728 105.734 24.868 105.734 22.0186C105.734 19.2138 107.025 16.409 109.073 14.4945C111.121 12.5356 113.836 11.3781 116.641 11.0219C119.224 10.7102 122.162 11.2 123.765 13.248C124.343 14.0048 124.7 14.8952 124.967 15.7857C125.857 19.0802 125.189 22.6419 124.165 25.9365" fill="#441212"/>
<g opacity="0.34">
<path d="M106.045 19.7035C105.867 20.4604 105.734 21.2617 105.734 22.0186C105.734 24.8234 107.114 27.6728 109.473 29.2755C111.655 30.7447 114.46 31.0564 117.131 30.9228L124.21 25.9364C124.7 24.4227 125.056 22.8645 125.278 21.2617C119.402 24.9125 110.72 25.3132 106.045 19.7035Z" fill="#0C0202"/>
</g>
<path d="M148.563 30.3886C147.672 29.0975 146.559 27.8954 145.446 26.7824C144.2 25.5803 142.864 24.4228 141.35 23.5324C138.056 21.618 134.049 21.0837 130.265 21.707C127.237 22.1967 124.343 23.4433 121.717 25.0906L121.895 24.957C117.665 27.0941 113.925 28.6523 111.699 35.1969C110.764 38.0017 111.031 42.0977 112.189 44.7689C113.391 47.4402 114.994 49.8889 116.641 52.293C116.819 52.5601 116.997 52.8273 117.309 52.8718C117.532 52.9163 117.71 52.8273 117.932 52.7827C120.292 51.8478 122.34 50.2005 123.765 48.108C124.21 47.4402 124.61 46.7724 125.189 46.1936C125.768 45.6594 126.569 45.3032 127.326 45.4813C128.128 45.7039 128.617 46.4607 129.241 47.0395C128.929 48.1971 128.617 49.3546 128.617 50.5567C128.617 53.1389 129.997 55.4985 131.244 57.7691C132.535 60.0397 133.782 62.4883 133.559 65.0706C134.761 63.0671 135.251 60.6185 134.85 58.3479C134.405 55.8992 133.025 53.5396 133.292 51.0464C133.47 49.2211 134.539 47.6183 135.385 45.971C135.874 45.0806 136.275 44.1011 136.631 43.1662C140.326 40.9401 144.378 39.1593 147.583 36.2654C148.607 35.3305 149.631 34.1284 149.542 32.7482C149.498 31.9023 149.053 31.101 148.563 30.3886Z" fill="#441212"/>
<g opacity="0.34">
<path d="M139.169 37.7791C136.141 38.3133 133.069 38.8476 130.087 39.6044C128.528 40.0051 126.926 40.3613 125.456 41.0291C124.21 41.5634 123.186 42.4093 121.895 42.899C116.953 44.7689 113.035 39.9161 112.812 35.3304C112.768 34.0393 112.946 32.8372 113.302 31.6797C112.679 32.6592 112.145 33.8612 111.699 35.2414C110.764 38.0017 111.031 42.0976 112.189 44.7689C113.391 47.4402 114.994 49.8888 116.641 52.293C116.819 52.5601 116.997 52.8272 117.309 52.8717C117.532 52.9163 117.71 52.8272 117.932 52.7827C120.292 51.8478 122.34 50.2005 123.765 48.108C124.21 47.4402 124.61 46.7723 125.189 46.1936C125.768 45.6593 126.569 45.3032 127.326 45.4812C128.128 45.7038 128.617 46.4607 129.241 47.0395C128.929 48.197 128.617 49.3546 128.617 50.5566C128.617 53.1389 129.997 55.4985 131.244 57.7691C132.535 60.0396 133.782 62.4883 133.559 65.0705C134.761 63.0671 135.251 60.6184 134.85 58.3478C134.405 55.8992 133.025 53.5396 133.292 51.0464C133.47 49.221 134.539 47.6182 135.385 45.971C135.874 45.0805 136.275 44.1011 136.631 43.1661C140.326 40.9401 144.378 39.1592 147.583 36.2654C148.207 35.6866 148.83 35.0188 149.231 34.2619C146.648 36.6661 142.463 37.2003 139.169 37.7791Z" fill="#0C0202"/>
</g>
<path d="M146.515 42.0976C144.423 41.3408 142.464 41.2072 140.549 42.3202C140.327 42.4538 139.792 42.7654 139.926 42.9435C140.059 43.1661 140.772 42.7209 140.994 42.6319C142.82 41.8305 144.423 42.3202 146.292 42.9435C146.827 43.1661 147.049 42.2757 146.515 42.0976Z" fill="#441212"/>
<path d="M144.645 46.1047C144.289 46.5499 143.666 46.6835 143.087 46.5944C142.375 46.5054 141.751 46.0602 141.172 45.6595C140.95 45.5259 140.772 45.8821 140.994 46.0156C141.662 46.4609 142.375 46.9061 143.176 46.9951C143.844 47.0396 144.556 46.817 144.957 46.2828C145.135 46.1047 144.779 45.9266 144.645 46.1047Z" fill="#441212"/>
<path d="M128.84 46.4607C128.617 45.1251 127.95 43.3887 126.614 43.2552C125.278 43.1216 123.943 43.9675 123.453 45.2141C123.186 45.8819 123.186 46.6388 123.275 47.3066C123.498 48.8203 124.165 50.245 125.189 51.3135C125.546 51.7142 125.991 52.0704 126.525 52.2039C127.371 52.4265 128.261 51.9813 128.751 51.3135C129.241 50.6457 129.419 49.7553 129.374 48.9094C129.374 48.108 129.107 47.2621 128.84 46.4607Z" fill="#F47047"/>
<path d="M128.84 46.0155C128.617 44.6799 127.95 42.9436 126.614 42.81C125.278 42.6764 123.943 43.5223 123.453 44.7689C123.186 45.4367 123.186 46.1936 123.275 46.8614C123.498 48.3751 124.165 49.7998 125.189 50.8683C125.546 51.269 125.991 51.6252 126.525 51.7587C127.371 51.9813 128.261 51.5361 128.751 50.8683C129.241 50.2005 129.419 49.3101 129.374 48.4642C129.374 47.6183 129.107 46.8169 128.84 46.0155Z" fill="#FF9A76"/>
<path d="M174.563 113.91C174.563 113.91 177.635 126.91 174.563 133.544C174.563 133.544 157.69 138.441 143.398 134.835C143.398 134.835 140.193 126.866 153.282 115.112C153.282 115.112 166.594 117.071 174.563 113.91Z" fill="#441212"/>
<path d="M130.665 94.7217C130.576 93.1189 129.864 91.5607 128.929 90.2695C127.994 88.9784 126.792 87.8654 125.545 86.7969C124.521 85.951 123.497 85.1051 122.473 84.3037C122.384 84.4818 122.384 84.6599 122.429 84.838C122.741 86.3072 123.097 87.8209 123.675 89.2456C124.254 90.6702 125.056 92.0059 126.258 92.9408C127.46 93.9203 128.929 94.4545 130.354 94.9443" fill="#5B7258"/>
<g opacity="0.37">
<path d="M130.087 94.7216C127.727 92.6737 125.367 90.5812 123.943 87.7764C123.809 87.4647 124.299 87.2866 124.433 87.5983C125.813 90.3141 128.128 92.362 130.398 94.321C130.71 94.5436 130.354 94.9443 130.087 94.7216Z" fill="white"/>
</g>
<path d="M125.234 77.3584C127.104 81.677 129.018 86.04 129.864 90.7148C130.309 93.0299 130.443 95.3895 130.532 97.7491C130.621 100.109 130.621 102.424 130.576 104.783C130.532 107.41 130.354 110.037 130.131 112.664C130.087 113.198 130.933 113.242 130.977 112.708C131.422 107.989 131.556 103.27 131.422 98.506C131.378 96.1018 131.2 93.6977 130.844 91.3381C130.487 88.9784 129.82 86.7079 129.018 84.4373C128.128 81.8996 127.059 79.4064 125.991 76.9577C125.768 76.468 125.011 76.8687 125.234 77.3584Z" fill="#6D836B"/>
<path d="M130.488 92.3176C131.868 91.5162 132.936 90.2251 133.693 88.8004C134.45 87.3757 134.895 85.8175 135.296 84.2593C135.607 82.9682 135.919 81.677 136.186 80.3859C136.008 80.3414 135.83 80.475 135.697 80.6085C134.494 81.5435 133.337 82.5229 132.313 83.636C131.289 84.7935 130.488 86.0846 130.131 87.5983C129.775 89.1121 129.953 90.6703 130.176 92.184" fill="#5B7258"/>
<g opacity="0.37">
<path d="M130.265 91.8278C131.066 88.8449 131.868 85.7729 133.782 83.2352C134.005 82.9681 134.405 83.3243 134.183 83.5914C132.357 86.0401 131.556 89.023 130.799 91.9169C130.666 92.273 130.176 92.1395 130.265 91.8278Z" fill="white"/>
</g>
<path d="M126.436 77.7592C126.392 75.5777 127.238 73.4407 127.282 71.2146C127.282 70.6804 127.238 70.1016 127.015 69.6119C126.792 69.1221 126.392 68.6769 125.857 68.5433C125.101 68.3653 124.299 68.855 123.898 69.5228C123.186 70.6804 123.364 72.1941 123.854 73.4407C124.344 74.6873 125.145 75.8448 125.59 77.0914" fill="#FFCA7C"/>
<path d="M125.635 77.3139C126.08 74.5981 125.857 71.7488 125.011 69.122C124.744 68.3206 124.388 67.5193 123.809 66.896C123.319 66.3172 122.607 65.961 121.895 65.7829C121.182 65.6049 120.381 65.6939 119.847 66.2281C119.58 66.4953 119.402 66.8069 119.313 67.1631C119.134 67.7419 119.045 68.3206 119.09 68.8994C119.179 69.8789 119.624 70.8138 120.114 71.7042C121.138 73.4406 122.385 74.9988 123.676 76.557" fill="#F4B664"/>
<path d="M126.169 77.9817C125.234 76.4235 124.566 74.7762 123.72 73.1734C122.874 71.5707 121.85 70.057 120.426 68.9439C119.936 68.5878 119.402 68.2761 118.823 68.1425C117.443 67.8754 115.973 68.8104 115.617 70.1905C115.484 70.6802 115.528 71.17 115.617 71.6597C115.973 73.7522 117.487 75.4885 119.313 76.557C121.138 77.6255 123.275 78.1153 125.323 78.4714" fill="#FFCA7C"/>
<path d="M126.926 79.8962C127.415 79.2729 127.148 78.6496 127.104 78.0263C127.059 77.6256 126.926 77.1804 126.659 76.8688C126.569 76.7352 126.48 76.6461 126.302 76.6016C126.124 76.5571 125.946 76.6907 125.813 76.8242C125.679 76.9578 125.545 77.1359 125.367 77.1804C125.278 77.2249 125.145 77.2249 125.011 77.2694C124.611 77.403 124.388 77.8927 124.521 78.3379C124.611 78.7386 124.922 79.0948 125.278 79.3174C125.635 79.54 126.436 80.0298 126.926 79.8962Z" fill="#541926"/>
<path d="M169.043 67.6083C168.642 68.6768 168.375 69.7899 168.464 70.9474C168.553 72.0604 169.043 73.218 169.933 73.9303C169.221 74.6872 168.464 75.4886 167.485 75.8002C166.861 76.0228 166.149 76.0228 165.481 76.0228C164.101 76.0228 162.632 75.9783 161.608 75.0434C162.81 74.1975 163.166 72.6837 163.255 71.17C163.255 70.9919 163.255 70.8139 163.255 70.6358C163.255 69.4782 163.166 68.3207 162.81 67.2076" fill="#FF9A76"/>
<path d="M163.255 71.17C163.255 71.3926 163.211 71.6152 163.211 71.8378C163.967 71.7488 164.769 71.5707 165.481 71.2145C166.639 70.6803 168.419 69.6118 168.687 68.2761C168.731 68.009 168.82 67.7864 168.909 67.6083L162.81 67.2076C163.211 68.3207 163.255 69.4782 163.255 70.6358C163.255 70.8139 163.255 70.9919 163.255 71.17Z" fill="#F47047"/>
<path d="M162.275 74.0639C164.234 75.6666 166.416 75.5776 169.488 73.5296C169.8 73.307 170.334 73.1289 171.313 73.3961C171.58 73.4851 171.803 73.5741 172.026 73.7077C175.053 75.6666 177.813 78.3379 178.882 81.8106C180.084 85.7284 178.971 89.9134 178.793 94.0093C178.659 97.571 179.238 101.133 179.015 104.65C178.793 108.212 177.502 111.951 174.519 113.91C172.026 115.602 168.776 115.691 165.793 115.736C160.984 115.78 156.176 115.869 151.323 115.914C150.967 115.914 150.611 115.914 150.344 115.691C150.077 115.424 150.077 115.023 150.077 114.623C150.344 103.581 153.015 84.5263 162.275 74.0639Z" fill="#F25F3A"/>
<path d="M153.282 91.8723C153.282 91.8723 154.395 88.088 155.019 86.8414C155.597 85.6394 160.005 84.838 163.7 82.5229C167.351 80.1633 169.666 79.0948 170.779 80.3414C171.848 81.588 159.382 94.5436 153.282 91.8723Z" fill="#E24729"/>
<path d="M152.125 51.9369C152.125 51.9369 150.745 59.9507 154.974 61.9987C159.204 64.0467 157.601 49.6218 157.601 49.6218" fill="#4A1914"/>
<path d="M176.478 53.8068C175.855 57.4576 174.697 63.646 172.07 66.3173C171.491 66.896 170.824 67.3858 170.156 67.831C167.885 69.3447 165.08 70.2351 162.409 69.7454C159.604 69.2111 157.2 67.1186 155.954 64.5364C154.707 61.9542 154.44 58.9713 154.93 56.1219C155.375 53.2726 156.488 50.6013 157.779 48.0636" fill="#FF9A76"/>
<path d="M172.026 40.9401C172.872 39.3373 173.406 37.601 173.539 35.7756C174.252 37.601 173.717 39.649 172.916 41.4298C174.697 40.673 176.789 40.7175 178.526 41.5634C175.765 42.0086 173.094 42.899 170.646 44.1901" fill="#441212"/>
<path d="M169.889 54.0295C166.505 54.7419 163.033 55.4542 159.604 55.2316C156.132 55.009 152.615 53.6733 150.299 50.9576C149.498 49.9781 148.83 48.8205 148.608 47.5294C148.207 45.0362 149.632 42.365 151.858 41.341C154.039 40.317 156.755 40.8067 158.625 42.4095C157.957 41.5191 158.313 40.0944 159.115 39.3375C159.916 38.5807 161.43 38.18 162.498 38.0464C167.218 37.5122 171.358 38.4026 172.872 42.8102C174.118 42.2759 175.231 42.365 176.701 43.2999C178.125 44.1903 178.927 45.615 179.461 46.7726C179.995 47.8856 180.218 49.1767 180.307 50.4678C180.485 53.985 179.594 57.5467 177.724 60.4406C177.012 61.5536 176.122 62.6221 174.875 62.9783C173.673 63.3344 172.916 64.1358 172.605 62.8447C172.471 62.3995 172.605 61.8207 172.694 61.3755C172.872 60.2625 173.094 59.8618 173.361 58.4371C172.337 57.6802 170.601 55.0535 169.889 54.0295Z" fill="#4A1914"/>
<g opacity="0.34">
<path d="M180.262 50.4233C180.173 49.1322 179.951 47.8856 179.416 46.728C179.416 46.6835 179.372 46.6835 179.372 46.639C179.639 49.5774 178.659 52.2487 175.498 53.1836C174.118 53.5843 172.605 53.5843 171.18 53.5398C168.954 53.4507 166.728 53.7179 164.502 53.6288C160.94 53.4952 156.711 52.1596 154.262 49.3993C152.036 46.8616 152.169 43.2554 154.262 40.7622C153.416 40.7622 152.615 40.9403 151.813 41.2965C149.632 42.3204 148.163 44.9917 148.563 47.4849C148.786 48.776 149.454 49.9336 150.255 50.913C152.57 53.6733 156.087 54.9644 159.56 55.187C163.033 55.4097 166.461 54.6973 169.844 53.985C170.557 55.009 172.293 57.6357 173.317 58.348C173.005 59.8172 172.783 60.1734 172.649 61.2864C172.56 61.7317 172.471 62.3104 172.56 62.7556C172.872 64.0468 173.629 63.2454 174.831 62.8892C176.033 62.533 176.968 61.4645 177.68 60.3515C179.505 57.5021 180.44 53.9405 180.262 50.4233Z" fill="#0C0202"/>
</g>
<path d="M173.584 61.1973C173.673 60.3514 174.029 59.55 174.563 58.8822C175.053 58.3034 175.81 57.8137 176.522 58.0363C177.057 58.2144 177.413 58.7041 177.591 59.2383C177.902 60.3069 177.635 61.4644 177.101 62.3993C176.656 63.2007 175.944 63.8685 175.098 64.1357C174.207 64.4028 172.471 64.8035 173.584 61.1973Z" fill="#FF9A76"/>
<g opacity="0.47">
<path d="M174.296 61.1973C174.341 60.752 174.519 60.3514 174.786 60.0397C175.009 59.7281 175.409 59.5054 175.766 59.5945C176.033 59.6835 176.211 59.9507 176.3 60.2178C176.478 60.752 176.344 61.3308 176.033 61.8205C175.81 62.2212 175.454 62.5774 175.009 62.711C174.564 62.8445 174.029 62.711 173.762 62.3548" fill="#F47047"/>
</g>
<path d="M155.553 59.8172C155.464 59.0604 155.197 58.348 154.796 57.8138C154.44 57.324 153.906 56.9679 153.371 57.2795C152.971 57.5021 152.748 58.0364 152.615 58.5261C152.392 59.5501 152.615 60.5741 153.015 61.3755C153.371 62.0433 153.861 62.5775 154.484 62.7111C155.108 62.8447 155.865 62.4885 156.221 61.7316" fill="#FF9A76"/>
<g opacity="0.47">
<path d="M155.019 59.9062C154.974 59.5056 154.841 59.1494 154.663 58.8823C154.485 58.6596 154.217 58.437 153.95 58.6151C153.772 58.7487 153.639 59.0158 153.55 59.2384C153.416 59.7727 153.55 60.3069 153.772 60.7076C153.95 61.0638 154.217 61.3309 154.529 61.3754C154.841 61.4645 155.241 61.2419 155.42 60.8857" fill="#F47047"/>
</g>
<path d="M156.978 59.0603C157.245 58.5705 157.69 58.2144 158.18 58.0808C158.625 57.9917 159.115 58.1253 159.426 58.437C159.604 58.615 159.738 58.8376 159.827 59.0603C159.871 59.2383 160.139 59.1493 160.094 58.9712C159.96 58.437 159.56 58.0363 159.026 57.8137C158.447 57.5911 157.823 57.7246 157.378 58.0808C157.111 58.3034 156.888 58.5705 156.71 58.8376C156.666 59.0603 156.888 59.2383 156.978 59.0603Z" fill="#4A1914"/>
<path d="M169.087 59.0603C168.776 58.6151 168.286 58.3034 167.752 58.2589C167.307 58.2144 166.817 58.437 166.55 58.7932C166.372 58.9713 166.283 59.2384 166.238 59.461C166.238 59.6391 165.926 59.5946 165.971 59.4165C166.015 58.8822 166.372 58.3925 166.861 58.1254C167.396 57.8137 168.019 57.9028 168.553 58.1699C168.865 58.348 169.132 58.5706 169.31 58.8377C169.399 59.0603 169.176 59.2384 169.087 59.0603Z" fill="#4A1914"/>
<path d="M162.854 59.0157C162.81 59.7725 162.632 60.5294 162.187 61.1527C162.098 61.2862 161.964 61.4198 161.875 61.5534C161.83 61.6424 161.741 61.6869 161.652 61.7314C161.563 61.8205 161.474 61.865 161.43 61.9541C161.207 62.3102 161.697 62.6219 161.919 62.8C162.231 63.0226 162.543 63.2452 162.899 63.3342C163.166 63.3787 163.255 63.0226 162.988 62.9335C162.854 62.889 162.765 62.8445 162.632 62.8C162.498 62.7109 162.32 62.6219 162.187 62.5328C162.053 62.4438 161.964 62.3547 161.875 62.2657L161.83 62.2212C161.83 62.2212 161.83 62.1767 161.786 62.1767C161.83 62.2212 161.741 62.1321 161.786 62.1321C161.786 62.1321 161.786 62.1321 161.786 62.0876V62.1321L161.875 62.0431C162.454 61.5534 162.854 60.9301 163.077 60.2177C163.211 59.817 163.255 59.3718 163.3 58.9266C163.3 58.8376 163.211 58.7485 163.122 58.7485C162.899 58.8376 162.854 58.9266 162.854 59.0157Z" fill="#4A1914"/>
<path d="M166.104 54.6082C167.752 54.3411 169.132 54.6082 170.111 56.0329C170.2 56.211 170.512 56.6117 170.378 56.7897C170.2 56.9678 169.844 56.3891 169.711 56.2555C168.687 55.1425 167.44 55.2315 166.015 55.4986C165.615 55.5432 165.704 54.6973 166.104 54.6082Z" fill="#441212"/>
<path d="M159.738 54.9643C158.09 54.6972 156.71 54.9643 155.731 56.389C155.642 56.567 155.33 56.9677 155.464 57.1458C155.642 57.3239 155.998 56.7451 156.132 56.6116C157.156 55.4985 158.402 55.5876 159.827 55.8547C160.227 55.8992 160.138 55.0533 159.738 54.9643Z" fill="#441212"/>
<path d="M142.018 97.482C140.861 97.3929 139.703 97.2593 138.635 96.8141C137.878 96.5025 137.21 96.0573 136.498 95.6566C135.073 94.8552 133.47 94.321 131.912 93.7867C131.734 93.7422 131.556 93.8757 131.6 94.0538C131.734 95.1669 134.138 95.7902 134.939 96.9922C135.028 97.1258 135.073 97.2593 135.073 97.3929C135.028 97.6155 134.806 97.7046 134.583 97.7491C132.313 98.3279 131.289 97.66 130.487 95.6566C130.443 95.523 129.196 96.8141 129.063 96.9477C128.929 97.0813 128.261 97.7491 128.706 99.3073C129.33 101.533 129.864 101.89 132.09 102.557C135.963 103.715 140.059 101.801 144.111 102.29" fill="#FF9A76"/>
<path d="M171.358 79.3174C165.704 82.0332 162.053 87.7764 156.488 90.6257C151.591 93.1189 145.714 93.1189 140.727 95.4785C140.238 95.7011 139.703 96.0128 139.347 96.458C138.991 96.9032 138.858 97.482 138.679 98.0163C138.457 98.8622 138.234 99.708 138.012 100.509C137.878 101.044 137.744 101.622 137.834 102.201C138.056 103.403 139.258 104.16 140.416 104.605C143.577 105.852 147.005 106.164 150.344 106.208C155.108 106.297 160.005 105.986 164.457 104.249C168.909 102.513 172.916 99.2183 174.697 94.8107" fill="#F25F3A"/>
<path d="M152.436 104.917C155.731 105.006 158.981 104.205 162.008 102.869C165.303 101.444 168.33 99.3519 171.091 97.0814C172.738 95.7012 174.341 94.2765 175.899 92.8073C176.077 92.6292 176.344 92.9409 176.166 93.119C173.317 95.7457 170.423 98.3279 167.217 100.465C164.368 102.335 161.296 103.849 157.957 104.694C156.132 105.14 154.262 105.362 152.392 105.318C152.125 105.318 152.169 104.917 152.436 104.917Z" fill="#441212"/>
<g opacity="0.25">
<path d="M144.868 115.424C144.111 112.218 140.861 110.17 137.611 109.636C134.361 109.102 131.066 109.681 127.772 109.903C124.477 110.081 120.96 109.77 118.378 107.722C115.35 105.273 114.46 101.133 112.59 97.7045C111.744 96.1462 110.453 94.588 108.717 94.2318C108.717 94.2318 106.758 114.444 113.703 120.855C120.648 127.266 144.868 115.424 144.868 115.424Z" fill="#F25F3A"/>
</g>
<path d="M146.07 117.784C147.628 117.116 149.097 113.732 150.388 112.619C151.323 111.818 152.08 110.883 152.881 109.948C154.529 108.167 156.488 106.653 158.447 105.184C158.669 105.05 158.981 105.14 159.025 105.407C159.337 107.054 156.265 109.013 155.686 111.061C155.642 111.283 155.597 111.506 155.686 111.684C155.864 111.951 156.221 111.996 156.532 111.951C159.96 111.729 163.344 110.527 166.193 108.568C166.371 108.434 166.594 108.301 166.861 108.434C167.084 108.568 167.217 108.835 167.217 109.102C167.128 112.53 165.125 115.602 162.275 117.516C157.334 120.9 150.7 120.099 145.268 122.681" fill="#FF9A76"/>
<path d="M99.7678 73.7076C104.264 78.0262 109.384 86.2626 110.854 92.3174C111.922 96.6805 112.056 101.177 112.501 105.674C112.813 108.879 113.302 112.129 113.926 115.29C114.015 115.869 114.193 116.492 114.638 116.804C115.172 117.205 115.974 117.116 116.641 116.982C126.169 115.068 135.652 113.153 145.179 111.239C145.669 111.15 146.248 111.061 146.649 111.328C146.96 111.551 147.094 111.907 147.227 112.218C148.741 115.914 150.299 120.054 149.008 123.838C148.34 125.797 147.005 127.4 145.536 128.825C140.193 133.989 133.07 136.928 125.902 138.797C119.669 140.445 113.124 141.335 106.713 140.712C104.487 140.489 102.261 140.089 100.391 138.842C98.3432 137.506 97.0075 135.369 95.85 133.188C88.5485 119.164 88.4595 102.335 91.8431 86.9304C92.8671 82.3002 94.7815 75.4885 99.1445 73.6631" fill="#FCD2C4"/>
<path d="M106.09 121.301C109.34 118.496 113.614 117.65 117.71 116.982C122.607 116.181 127.46 115.335 132.313 114.311C135.073 113.732 137.878 113.064 140.638 112.396C140.905 112.352 140.772 111.951 140.549 111.996C135.563 113.198 130.576 114.311 125.546 115.246C123.097 115.691 120.648 116.092 118.155 116.492C116.107 116.804 114.015 117.16 112.011 117.739C109.741 118.407 107.603 119.431 105.823 120.989C105.645 121.212 105.912 121.479 106.09 121.301Z" fill="#441212"/>
<path d="M110.453 123.972C111.833 121.968 113.525 120.143 115.439 118.585C115.617 118.407 115.35 118.14 115.172 118.318C113.258 119.876 111.566 121.701 110.141 123.794C109.963 123.972 110.319 124.195 110.453 123.972Z" fill="#441212"/>
<path d="M106.446 86.2181C108.583 88.7113 110.052 91.7387 110.943 94.8997C111.922 98.3723 112.234 101.979 112.278 105.585C112.278 107.722 112.189 109.859 112.056 111.996C112.056 112.263 112.456 112.263 112.456 111.996C112.679 108.122 112.812 104.249 112.412 100.42C112.056 97.0367 111.254 93.6976 109.785 90.6257C108.984 88.9339 107.96 87.3756 106.758 85.9509C106.535 85.7729 106.268 86.04 106.446 86.2181Z" fill="#441212"/>
</g>
<defs>
<clipPath id="clip0_53_58951">
<rect width="29.3839" height="42.7403" fill="white" transform="translate(261.068 135.147)"/>
</clipPath>
<clipPath id="clip1_53_58951">
<rect width="90.6005" height="130.046" fill="white" transform="translate(89.6616 10.9327)"/>
</clipPath>
</defs>
</svg>
