<svg width="434" height="384" viewBox="0 0 434 384" fill="none" xmlns="http://www.w3.org/2000/svg">
<g opacity="0.6" clip-path="url(#clip0_53_60059)">
<mask id="mask0_53_60059" style="mask-type:luminance" maskUnits="userSpaceOnUse" x="57" y="17" width="547" height="365">
<path d="M603.146 17.7529H57.4775V381.815H603.146V17.7529Z" fill="white"/>
</mask>
<g mask="url(#mask0_53_60059)">
<path d="M602.636 319.488H57.4775V324.075H602.636V319.488Z" fill="#5EB7BD"/>
</g>
<mask id="mask1_53_60059" style="mask-type:luminance" maskUnits="userSpaceOnUse" x="57" y="17" width="547" height="365">
<path d="M603.146 17.7529H57.4775V381.815H603.146V17.7529Z" fill="white"/>
</mask>
<g mask="url(#mask1_53_60059)">
<path d="M314.597 87.9443H297.281V324.002H314.597V87.9443Z" fill="#9CD4DF"/>
</g>
<mask id="mask2_53_60059" style="mask-type:luminance" maskUnits="userSpaceOnUse" x="57" y="17" width="547" height="365">
<path d="M603.146 17.7529H57.4775V381.815H603.146V17.7529Z" fill="white"/>
</mask>
<g mask="url(#mask2_53_60059)">
<path d="M613.55 226.652H67.8818V233.205H613.55V226.652Z" fill="#F9FDFD"/>
<path d="M321.799 72.7266H206.263V323.711H321.799V72.7266Z" fill="#949BA3"/>
<path d="M313.288 82.4104H214.777V314.1H313.288V82.4104Z" fill="#E9F2F2"/>
<path d="M313.287 86.7063H219.432V314.027H313.287V86.7063Z" fill="#F9FDFD"/>
<path d="M294.516 99.8127H233.547V188.644H294.516V99.8127Z" fill="#7ABED6"/>
<path d="M294.516 102.215H236.748V188.571H294.516V102.215Z" fill="#97DDE9"/>
<g opacity="0.3098">
<path d="M265.196 99.8127L260.831 102.216L236.748 115.904L233.547 117.725V99.8127H265.196Z" fill="#D6FEFF"/>
<path d="M280.62 99.8127L276.255 102.216L236.748 124.642L233.547 126.462V123.695L236.748 121.875L271.307 102.216L275.673 99.8127H280.62Z" fill="#D6FEFF"/>
<path d="M294.516 126.316V128.574L236.748 161.339L233.547 163.16V160.902L236.748 159.082L294.516 126.316Z" fill="#D6FEFF"/>
<path d="M253.482 188.571L294.516 165.344V168.183L258.429 188.571H253.482Z" fill="#D6FEFF"/>
<path d="M294.517 171.751V188.571H264.76L294.517 171.751Z" fill="#D6FEFF"/>
</g>
<path d="M230.855 195.052H225.253V244.782H230.855V195.052Z" fill="#E9F2F2"/>
<path d="M228.09 193.449H222.488V243.18H228.09V193.449Z" fill="#949BA3"/>
</g>
<mask id="mask3_53_60059" style="mask-type:luminance" maskUnits="userSpaceOnUse" x="57" y="17" width="547" height="365">
<path d="M603.146 17.7529H57.4775V381.815H603.146V17.7529Z" fill="white"/>
</mask>
<g mask="url(#mask3_53_60059)">
<path d="M166.028 96.6089H113.208V178.232H166.028V96.6089Z" fill="#F9FDFD"/>
<path d="M139.617 109.424C130.086 109.424 122.374 117.142 122.374 126.681C122.374 136.219 130.086 143.937 139.617 143.937C141.727 143.937 143.691 143.573 145.51 142.918L139.617 126.753L155.332 133.889C156.351 131.705 156.86 129.302 156.86 126.753C156.86 117.142 149.148 109.424 139.617 109.424Z" fill="#7ABED6"/>
<path d="M148.567 146.194C152.933 144.592 156.425 141.316 158.317 137.165L142.601 130.03L148.567 146.194Z" fill="#AFE2ED"/>
<path d="M161.298 99.74H118.009V105.055H161.298V99.74Z" fill="#6089AB"/>
<path d="M164.936 106.22H114.298V106.875H164.936V106.22Z" fill="#6089AB"/>
<path d="M134.742 148.306H120.045V148.961H134.742V148.306Z" fill="#6089AB"/>
<path d="M134.743 151H118.009V151.655H134.743V151Z" fill="#6089AB"/>
<path d="M134.743 153.767H118.009V154.422H134.743V153.767Z" fill="#6089AB"/>
<path d="M134.743 156.461H118.009V157.116H134.743V156.461Z" fill="#6089AB"/>
<path d="M134.742 161.485H120.045V162.14H134.742V161.485Z" fill="#6089AB"/>
<path d="M134.743 164.252H118.009V164.907H134.743V164.252Z" fill="#6089AB"/>
<path d="M134.743 166.946H118.009V167.601H134.743V166.946Z" fill="#6089AB"/>
<path d="M134.743 169.713H118.009V170.368H134.743V169.713Z" fill="#6089AB"/>
<path d="M159.698 148.306H145.002V148.961H159.698V148.306Z" fill="#6089AB"/>
<path d="M159.626 151H142.892V151.655H159.626V151Z" fill="#6089AB"/>
<path d="M159.626 153.767H142.892V154.422H159.626V153.767Z" fill="#6089AB"/>
<path d="M159.626 156.461H142.892V157.116H159.626V156.461Z" fill="#6089AB"/>
<path d="M159.698 161.485H145.002V162.14H159.698V161.485Z" fill="#6089AB"/>
<path d="M159.626 164.252H142.892V164.907H159.626V164.252Z" fill="#6089AB"/>
<path d="M159.626 166.946H142.892V167.601H159.626V166.946Z" fill="#6089AB"/>
<path d="M159.626 169.713H142.892V170.368H159.626V169.713Z" fill="#6089AB"/>
</g>
<mask id="mask4_53_60059" style="mask-type:luminance" maskUnits="userSpaceOnUse" x="57" y="17" width="547" height="365">
<path d="M603.146 17.7529H57.4775V381.815H603.146V17.7529Z" fill="white"/>
</mask>
<g mask="url(#mask4_53_60059)">
<path d="M161.591 187.26H120.121V202.551H161.591V187.26Z" fill="#9BD3DE"/>
<path d="M160.136 185.804H118.666V201.095H160.136V185.804Z" fill="#F9FDFD"/>
</g>
<mask id="mask5_53_60059" style="mask-type:luminance" maskUnits="userSpaceOnUse" x="57" y="17" width="547" height="365">
<path d="M603.146 17.7529H57.4775V381.815H603.146V17.7529Z" fill="white"/>
</mask>
<g mask="url(#mask5_53_60059)">
<path d="M366.689 132.87C377.177 132.87 385.679 124.361 385.679 113.866C385.679 103.37 377.177 94.8616 366.689 94.8616C356.202 94.8616 347.7 103.37 347.7 113.866C347.7 124.361 356.202 132.87 366.689 132.87Z" fill="#9CD4DF"/>
<path d="M364.87 131.777C375.358 131.777 383.86 123.269 383.86 112.773C383.86 102.278 375.358 93.7693 364.87 93.7693C354.383 93.7693 345.881 102.278 345.881 112.773C345.881 123.269 354.383 131.777 364.87 131.777Z" fill="#6089AB"/>
<path d="M381.748 112.773C381.748 122.093 374.182 129.666 364.869 129.666C360.431 129.666 356.429 127.991 353.374 125.151C353.301 125.151 353.301 125.079 353.228 125.079C349.954 122.021 347.917 117.652 347.917 112.773C347.917 103.453 355.484 95.8809 364.796 95.8809C369.816 95.8809 374.255 98.0652 377.383 101.487C377.674 101.851 377.965 102.143 378.256 102.507C380.512 105.346 381.748 108.914 381.748 112.773Z" fill="#D7DFE0"/>
<path d="M381.749 112.773C381.749 122.093 374.182 129.666 364.869 129.666C360.431 129.666 356.43 127.991 353.374 125.151C351.191 122.312 349.882 118.744 349.882 114.885C349.882 105.565 357.448 97.9924 366.761 97.9924C371.199 97.9924 375.201 99.6671 378.256 102.507C380.512 105.346 381.749 108.914 381.749 112.773Z" fill="#F1FAFC"/>
<path d="M365.38 96.6819H364.434V99.0847H365.38V96.6819Z" fill="#6089AB"/>
<path d="M365.38 126.389H364.434V128.792H365.38V126.389Z" fill="#6089AB"/>
<path d="M380.95 112.264H378.549V113.21H380.95V112.264Z" fill="#6089AB"/>
<path d="M351.192 112.264H348.791V113.21H351.192V112.264Z" fill="#6089AB"/>
<path d="M375.899 101.078L374.201 102.777L374.87 103.446L376.568 101.747L375.899 101.078Z" fill="#6089AB"/>
<path d="M354.887 122.126L353.189 123.825L353.858 124.495L355.555 122.795L354.887 122.126Z" fill="#6089AB"/>
<path d="M374.881 122.119L374.213 122.788L375.91 124.487L376.579 123.818L374.881 122.119Z" fill="#6089AB"/>
<path d="M353.85 101.092L353.181 101.761L354.879 103.46L355.548 102.791L353.85 101.092Z" fill="#6089AB"/>
<path d="M364.871 113.72C365.393 113.72 365.816 113.296 365.816 112.773C365.816 112.25 365.393 111.827 364.871 111.827C364.348 111.827 363.925 112.25 363.925 112.773C363.925 113.296 364.348 113.72 364.871 113.72Z" fill="#6089AB"/>
</g>
</g>
<path d="M229.582 126.781C240.534 124.135 258.267 95.7697 265.855 81.7368L275.527 86.2008C253.613 115.29 236.074 125.266 229.582 126.781C229.437 126.816 229.293 126.847 229.151 126.873C229.289 126.847 229.433 126.816 229.582 126.781Z" fill="#F6F3F3"/>
<path d="M293.208 207.156C289.69 210.644 279.444 231.658 273.226 227.821C267.009 223.983 282.839 202.087 284.475 198.455C286.029 194.987 289.343 189.528 293.454 188.194C295.499 187.517 299.303 188.912 299.814 191.211C300.428 193.838 302.064 198.352 293.208 207.156Z" fill="#F5928F"/>
<path d="M268.154 223.409C265.413 224.886 255.065 233.403 246.659 234.224C244.736 234.408 248.152 238.677 248.152 238.677C251.485 238.697 265.577 235.127 270.915 232.11C273.431 230.673 281.162 226.22 279.198 223.286C276.949 219.879 272.204 221.193 268.154 223.409Z" fill="#F5928F"/>
<path d="M248.151 238.677C248.397 238.636 249.337 237.856 248.867 236.194C248.397 234.531 246.658 234.244 246.658 234.244C244.797 234.183 245.001 233.218 242.056 232.91C241.013 232.808 237.516 230.591 237.516 230.591C237.516 230.591 236.657 232.192 239.643 233.895C234.98 232.931 231.38 231.145 230.951 232.233C229.069 237.199 236.166 241.221 240.277 240.893C242.629 240.667 244.02 239.436 248.151 238.677Z" fill="#F5928F"/>
<path d="M289.383 215.242C295.601 205.597 301.675 198.455 299.957 191.026C299.446 188.851 295.683 186.532 292.022 188.092C288.647 189.528 282.511 199.153 277.521 208.449C280.528 210.686 285.722 214.216 289.383 215.242Z" fill="#DA524D"/>
<path d="M303.842 377.34C303.74 361.867 309.446 342.843 308.015 330.223C307.483 325.482 306.174 323.163 306.256 315.632C306.276 313.005 301.858 312.102 299.241 313.19C296.929 314.155 294.884 313.211 294.966 315.222C295.641 331.516 299.363 370.855 300.018 377.607C299.363 379.002 295.191 379.925 294.107 380.315C293.473 380.541 291.632 381.28 292.266 382.019C293.043 382.922 296.295 383.229 298.341 382.532C300.059 381.937 302.411 382.142 303.433 381.608C304.456 381.075 304.66 380.438 304.579 379.618C304.497 378.92 304.006 378.448 303.842 377.34Z" fill="#F5928F"/>
<path d="M312.207 252.836L292.225 251.626C291.223 279.247 293.166 300.036 294.945 315.201C297.133 323.43 306.419 323.512 306.194 321.152C306.419 306.582 317.381 276.067 312.207 252.836Z" fill="#F5928F"/>
<path d="M324.336 377.381C323.968 357.537 329.327 343.213 327.854 330.223C327.322 325.482 326.014 323.163 326.095 315.632C326.116 313.005 321.698 312.102 319.08 313.19C316.769 314.155 314.724 313.211 314.806 315.222C315.542 333.075 320.43 377.709 320.43 377.709C319.632 379.043 315.624 379.946 314.581 380.315C313.947 380.541 312.106 381.28 312.74 382.019C313.517 382.922 316.769 383.229 318.814 382.532C320.532 381.937 322.884 382.142 323.907 381.608C324.93 381.075 325.134 380.438 325.032 379.618C324.97 378.94 324.459 378.284 324.336 377.381Z" fill="#F5928F"/>
<path d="M329.674 249.184C329.674 249.184 309.732 246.783 310.387 255.463C312.78 285.732 313.005 300.015 314.805 315.201C316.993 323.43 326.278 323.512 326.053 321.152C326.258 306.582 334.582 271.183 329.674 249.184Z" fill="#F5928F"/>
<path d="M304.272 375.965C304.538 371.901 309.876 343.233 308.403 330.243C307.871 325.503 307.871 323.184 307.953 315.652C307.974 313.026 302.247 312.123 299.629 313.21C297.318 314.175 293.657 312.123 293.759 314.134C294.495 331.987 299.384 375.985 299.384 375.985H304.272V375.965Z" fill="#000006"/>
<path d="M312.576 246.577L291.735 245.367C290.488 266.606 292.042 299.81 293.821 314.996C296.01 323.225 308.097 323.532 307.872 321.173C308.118 306.582 317.771 269.787 312.576 246.577Z" fill="#000006"/>
<path d="M324.726 375.965C324.991 371.901 329.716 343.233 328.223 330.243C327.691 325.503 327.691 323.184 327.773 315.652C327.793 313.026 322.067 312.123 319.449 313.21C317.138 314.175 313.497 313.005 313.579 315.016C314.315 332.87 319.735 375.985 319.735 375.985H324.726V375.965Z" fill="#001521"/>
<path d="M330.042 242.925C330.042 242.925 326.115 244.772 313.577 245.305C303.331 245.757 291.734 245.367 291.734 245.367L310.796 260.101C313.189 290.37 311.798 299.81 313.577 314.996C315.766 323.225 327.956 323.533 327.731 321.173C327.956 306.582 334.95 264.924 330.042 242.925Z" fill="#001521"/>
<path d="M329.346 239.108C310.898 243.951 291.734 241.324 291.734 241.324V245.387C315.193 248.589 330.042 242.945 330.042 242.945L329.346 239.108Z" fill="#000006"/>
<path d="M300.694 382.203C299.078 381.916 298.792 382.88 294.742 383.045C290.672 383.229 289.281 381.67 289.281 381.67C289.281 381.813 289.343 381.977 289.486 382.162C290.55 383.599 292.82 383.66 294.374 383.722C296.317 383.824 304.191 384.03 305.234 382.737C305.439 382.49 305.112 381.875 304.948 381.423L305.009 381.054C303.966 381.936 302.31 382.49 300.694 382.203Z" fill="#D1CECB"/>
<path d="M294.721 383.044C298.791 382.86 299.057 381.916 300.673 382.203C302.289 382.49 303.945 381.936 304.968 381.074C305.152 379.515 304.62 379.31 304.661 378.858C304.702 378.489 304.538 377.729 303.966 377.627C303.966 377.627 304.191 378.263 302.145 378.714C300.1 379.166 299.875 377.791 299.711 376.744C299.507 375.493 297.809 377.565 296.828 378.263C295.887 378.94 294.844 379.453 293.821 379.946C292.921 380.377 292.062 380.643 291.06 380.746C290.467 380.808 289.26 381.013 289.26 381.649C289.26 381.69 290.671 383.229 294.721 383.044Z" fill="#001521"/>
<path d="M321.146 382.203C319.53 381.916 319.244 382.88 315.194 383.045C311.124 383.229 309.734 381.67 309.734 381.67C309.734 381.813 309.795 381.977 309.938 382.162C311.002 383.599 313.272 383.66 314.826 383.722C316.769 383.824 324.644 384.03 325.687 382.737C325.891 382.49 325.564 381.875 325.4 381.423L325.462 381.054C324.419 381.936 322.762 382.49 321.146 382.203Z" fill="#D1CECB"/>
<path d="M315.195 383.044C319.265 382.86 319.531 381.916 321.146 382.203C322.762 382.49 324.419 381.936 325.441 381.074C325.625 379.515 325.094 379.31 325.135 378.858C325.176 378.489 325.012 377.729 324.439 377.627C324.439 377.627 324.664 378.263 322.619 378.714C320.574 379.166 320.349 377.791 320.185 376.744C319.981 375.493 318.283 377.565 317.301 378.263C316.36 378.94 315.317 379.453 314.295 379.946C313.395 380.377 312.536 380.643 311.534 380.746C310.941 380.808 309.734 381.013 309.734 381.649C309.713 381.69 311.125 383.229 315.195 383.044Z" fill="#001521"/>
<path d="M315.051 190.8C314.172 187.948 314.172 185.075 313.906 182.14C313.476 177.585 313.824 173.501 315.133 168.843C310.388 170.587 303.209 174.712 303.209 174.712C305.827 185.383 301.839 193.612 300.837 195.377C304.395 197.634 311.063 203.565 316.606 194.966C316.012 193.591 315.481 192.216 315.051 190.8Z" fill="#F5928F"/>
<path d="M313.885 182.141C313.456 177.585 313.804 173.501 315.113 168.843C310.368 170.587 303.189 174.712 303.189 174.712C303.475 175.882 303.68 177.01 303.823 178.098C306.829 179.822 311.574 177.4 311.779 179.206C311.901 180.171 314.397 186.306 306.42 189.344C304.13 190.226 312.167 191.662 313.129 190.082C313.701 189.159 314.09 188.338 314.356 187.599C314.131 185.814 314.069 183.988 313.885 182.141Z" fill="#F5928F"/>
<path d="M319.98 164.246C316.094 177.359 303.454 180.13 298.177 176.066C291.203 170.669 292.348 162.666 294.291 153.842C295.968 146.146 308.588 143.868 316.175 148.362C323.763 152.857 322.495 155.771 319.98 164.246Z" fill="#F5928F"/>
<path d="M289.711 259.363C289.711 259.363 294.354 261.168 310.797 260.101C327.241 259.034 332.763 254.909 332.763 254.909C332.763 254.909 332.109 220.003 334.829 201.185C335.115 199.256 332.313 187.045 332.313 187.045C330.718 186.963 315.829 185.465 314.029 183.823C314.029 183.823 314.827 190.349 309.038 190.349C303.25 190.349 303.946 184.665 303.946 184.665C303.066 185.896 294.313 187.415 292.779 187.805C291.449 188.153 287.072 190.678 286.888 201.185C286.684 211.671 288.872 242.72 289.711 259.363Z" fill="#E25550"/>
<path d="M342.641 201.41C343.643 206.274 355.158 226.857 348.572 229.996C341.987 233.116 332.333 207.854 330.185 204.509C328.14 201.308 325.4 195.541 326.504 191.355C327.056 189.262 330.308 186.84 332.497 187.64C335.033 188.584 340.125 189.179 342.641 201.41Z" fill="#F5928F"/>
<path d="M342.088 231.843C341.843 234.942 343.295 248.301 339.389 255.812C338.509 257.516 343.909 256.982 343.909 256.982C345.729 254.191 350.474 240.38 350.862 234.244C351.047 231.351 351.517 222.67 347.999 222.711C343.909 222.793 342.456 227.226 342.088 231.843Z" fill="#F5928F"/>
<path d="M343.909 256.982C344.011 256.736 343.868 255.545 342.212 255.032C340.575 254.519 339.369 255.812 339.369 255.812C338.285 257.331 337.61 256.633 335.728 258.952C335.053 259.773 331.31 261.496 331.31 261.496C331.31 261.496 332.19 263.097 335.217 261.517C331.863 264.924 328.406 266.955 329.081 267.92C332.19 272.209 339.43 268.453 341.393 264.8C342.58 262.728 342.293 260.881 343.909 256.982Z" fill="#F5928F"/>
<path d="M341.701 209.352C339.983 210.563 338.142 211.65 336.138 212.348C335.176 212.676 334.317 212.882 333.336 212.964C329 204.201 325.564 199.112 325.645 192.73C325.686 189.775 329.9 186.204 333.642 187.23C340.535 189.118 343.051 197.449 346.303 206.192C345.3 207.033 342.764 208.593 341.701 209.352Z" fill="#F15B55"/>
<path d="M318.304 170.69C322.763 164.041 325.872 158.521 320.595 148.773C317.118 142.329 310.553 140.113 301.922 143.499C300.797 138.287 290.427 139.066 288.219 148.096C287.032 152.918 288.137 159.075 292.82 163.651C293.598 157.187 295.132 154.786 299.999 156.653C306.319 159.054 308.364 152.077 311.146 158.151C311.964 159.916 311.616 162.851 313.048 163.815C314.459 164.739 313.6 162.44 315.134 162.255C320.043 161.64 314.173 165.334 313.702 168.843C313.232 172.352 314.521 174.014 314.521 174.014C314.521 174.014 316.177 173.891 318.304 170.69Z" fill="#1F234F"/>
<path d="M313.047 163.815C313.926 164.718 313.987 163.117 314.458 162.522C314.806 162.112 315.215 161.701 315.767 161.578C316.933 161.312 318.119 161.948 318.385 163.138C318.651 164.349 318.201 165.498 317.137 166.155C316.36 166.627 314.724 167.058 314.11 166.257L313.047 163.815Z" fill="#F5928F"/>
<path d="M314.54 164.595C315.051 164.554 315.501 164.349 315.89 164.02C316.094 163.856 316.299 163.692 316.462 163.487C316.544 163.384 316.606 163.281 316.646 163.179C316.708 163.056 316.728 162.933 316.749 162.809C316.769 162.748 316.708 162.727 316.667 162.748C316.585 162.83 316.483 162.892 316.421 162.994C316.36 163.076 316.278 163.158 316.217 163.24C316.074 163.425 315.931 163.63 315.747 163.795C315.399 164.102 314.969 164.328 314.519 164.41C314.438 164.451 314.458 164.615 314.54 164.595Z" fill="#C2BEBB"/>
<path d="M315.153 164.492C315.235 164.492 315.317 164.471 315.399 164.451C315.46 164.43 315.542 164.43 315.603 164.41C315.746 164.389 315.889 164.41 316.033 164.43C316.176 164.451 316.319 164.471 316.462 164.533C316.605 164.574 316.789 164.656 316.932 164.574C316.973 164.554 316.994 164.513 316.973 164.451C316.953 164.266 316.708 164.164 316.564 164.123C316.401 164.082 316.217 164.041 316.033 164.041C315.869 164.041 315.685 164.061 315.542 164.102C315.378 164.143 315.174 164.164 315.071 164.287C315.01 164.369 315.071 164.492 315.153 164.492Z" fill="#C2BEBB"/>
<path d="M297.319 163.138C297.217 163.507 296.828 163.733 296.46 163.63C296.092 163.528 295.867 163.138 295.969 162.769C296.072 162.399 296.46 162.173 296.828 162.276C297.196 162.379 297.401 162.769 297.319 163.138Z" fill="#000411"/>
<path d="M307.667 162.851C307.565 163.22 307.176 163.446 306.808 163.343C306.44 163.24 306.215 162.851 306.317 162.481C306.42 162.112 306.808 161.886 307.176 161.989C307.545 162.091 307.77 162.481 307.667 162.851Z" fill="#000411"/>
<path d="M306.297 161.168C306.359 161.127 306.42 161.086 306.481 161.065C306.522 161.045 306.543 161.024 306.584 161.024C306.624 161.003 306.522 161.045 306.604 161.024C306.665 161.003 306.727 160.983 306.788 160.962C306.809 160.962 306.849 160.942 306.87 160.942C306.89 160.942 306.993 160.921 306.89 160.942C306.87 160.942 307.115 160.921 306.993 160.921C307.013 160.921 307.054 160.921 307.074 160.921C307.136 160.921 307.177 160.921 307.238 160.921C307.258 160.921 307.34 160.921 307.279 160.921C307.218 160.921 307.32 160.921 307.34 160.921C307.402 160.942 307.443 160.942 307.504 160.962C307.524 160.962 307.545 160.983 307.565 160.983C307.524 160.962 307.606 161.003 307.565 160.983C307.606 161.003 307.668 161.045 307.708 161.065C307.729 161.086 307.749 161.086 307.77 161.106C307.811 161.127 307.729 161.065 307.79 161.106C307.831 161.147 307.872 161.188 307.913 161.229C307.933 161.25 307.954 161.27 307.954 161.291C307.974 161.311 307.933 161.25 307.974 161.311C307.995 161.352 308.036 161.393 308.056 161.414C308.097 161.475 308.036 161.373 308.077 161.455C308.158 161.537 308.199 161.64 308.322 161.701C308.404 161.742 308.486 161.722 308.547 161.64C308.711 161.393 308.567 161.045 308.404 160.839C308.24 160.614 308.015 160.429 307.77 160.306C307.504 160.183 307.197 160.121 306.911 160.142C306.563 160.162 306.236 160.306 305.95 160.49C305.786 160.614 305.684 160.839 305.806 161.024C305.868 161.188 306.113 161.291 306.297 161.168Z" fill="#1F234F"/>
<path d="M297.503 160.737C296.95 160.429 296.316 160.511 295.785 160.839C295.58 160.962 295.376 161.127 295.232 161.311C295.089 161.496 294.926 161.804 295.13 162.009C295.171 162.05 295.232 162.071 295.294 162.05C295.376 162.03 295.437 161.968 295.498 161.927C295.519 161.906 295.498 161.927 295.478 161.947C295.498 161.927 295.498 161.927 295.519 161.906C295.539 161.886 295.56 161.865 295.58 161.865C295.621 161.845 295.641 161.804 295.682 161.763C295.723 161.722 295.764 161.701 295.785 161.66C295.764 161.681 295.826 161.619 295.785 161.66C295.805 161.64 295.826 161.64 295.846 161.619C295.928 161.558 296.03 161.516 296.112 161.455C296.132 161.455 296.214 161.414 296.132 161.455C296.153 161.455 296.173 161.434 296.194 161.434C296.235 161.414 296.296 161.393 296.337 161.393C296.398 161.373 296.439 161.373 296.5 161.352C296.419 161.352 296.603 161.332 296.5 161.352C296.521 161.352 296.562 161.352 296.582 161.352C296.644 161.352 296.685 161.352 296.746 161.352C296.766 161.352 296.787 161.352 296.807 161.352C296.828 161.352 296.848 161.352 296.869 161.352C296.848 161.352 296.828 161.352 296.828 161.352C296.848 161.332 296.971 161.373 296.991 161.393C297.012 161.393 297.094 161.434 297.012 161.393C297.032 161.414 297.073 161.414 297.094 161.434C297.278 161.537 297.523 161.496 297.625 161.291C297.728 161.086 297.687 160.839 297.503 160.737Z" fill="#1F234F"/>
<path d="M300.98 166.011C300.796 166.339 300.693 166.729 300.816 167.037C300.918 167.345 301.205 167.591 301.532 167.714C301.839 167.837 302.207 167.858 302.534 167.714C302.841 167.591 303.066 167.263 303.189 166.914C303.189 167.283 303.004 167.714 302.636 167.919C302.268 168.124 301.818 168.124 301.43 167.981C301.062 167.817 300.714 167.529 300.612 167.098C300.509 166.667 300.714 166.257 300.98 166.011Z" fill="#AFA8A4"/>
<path d="M198.582 105.607C199.249 104.606 199.916 103.606 201.083 103.105C202.917 102.271 204.918 103.105 206.92 102.605C207.92 102.271 208.754 101.771 209.754 101.437C211.255 100.937 213.089 100.937 214.59 101.604C216.091 102.271 217.258 103.606 218.592 104.273C219.426 104.773 220.427 105.107 221.26 105.607C221.927 106.108 222.428 106.942 222.761 107.776C223.095 108.776 222.928 109.61 223.595 110.444C223.928 111.112 224.429 111.779 224.595 112.446C224.762 113.447 224.262 114.614 224.095 115.615C223.762 116.95 224.095 118.451 223.928 119.785C223.762 121.62 222.928 123.288 222.261 125.123C221.594 126.957 221.427 128.792 220.76 130.627C219.926 132.795 217.925 134.297 215.591 134.964C213.423 135.631 210.922 135.631 208.754 135.464C206.586 135.297 204.418 134.964 202.417 134.463C200.416 133.963 199.749 131.461 198.248 130.127C197.248 129.293 196.081 128.792 195.247 127.958C194.246 126.791 193.913 125.29 193.913 123.622C193.913 122.12 193.913 120.452 193.412 119.118C193.079 118.117 192.579 117.283 192.412 116.282C192.078 114.448 192.745 112.613 193.746 111.112C194.747 109.61 196.247 108.776 197.415 107.442C197.581 106.942 198.082 106.274 198.582 105.607Z" fill="black"/>
<path d="M190.077 127.124C190.244 126.624 190.577 126.123 190.911 125.623C192.078 123.955 193.745 124.455 195.413 124.622C197.081 124.622 198.581 124.455 199.582 125.957C199.749 126.123 199.915 126.457 200.082 126.624C200.416 126.791 200.749 126.624 201.083 126.624C202.25 126.29 203.417 126.123 204.584 126.624C205.752 127.124 206.586 127.958 206.752 129.126C206.752 129.793 206.752 130.627 207.253 131.127C207.586 131.461 208.086 131.461 208.587 131.628C210.087 131.961 211.255 133.129 211.755 134.63C212.255 135.965 212.255 137.633 212.088 138.967C211.922 140.135 211.922 141.636 212.922 142.47C213.256 142.803 213.756 142.97 214.089 143.304C214.756 143.971 214.423 145.139 213.923 145.973C212.922 147.974 211.255 149.142 209.921 150.81C208.587 152.644 207.586 153.979 205.251 154.646C203.751 155.146 202.083 155.146 200.416 155.48C198.581 155.98 197.081 156.814 195.08 156.648C193.745 156.481 192.578 156.147 191.244 156.147C190.077 156.147 189.076 156.481 187.909 156.481C186.742 156.481 185.575 155.98 185.241 154.98C184.908 153.979 185.575 152.811 184.908 152.144C184.574 151.81 184.074 151.644 183.74 151.31C181.572 150.309 180.238 145.639 181.572 143.637C181.906 143.137 182.406 142.803 182.573 142.136C182.74 141.135 181.906 140.468 181.572 139.467C181.239 138.467 181.406 137.299 182.239 136.632C183.24 135.798 184.741 135.464 185.074 134.297C185.241 133.463 184.407 132.629 184.407 131.795C184.241 130.794 184.908 129.793 185.908 129.626C186.742 129.459 187.576 129.793 188.409 129.626C189.243 129.293 189.577 128.292 190.077 127.124Z" fill="black"/>
<path d="M217.258 142.47C217.425 144.305 216.591 145.472 215.257 146.14C213.256 147.307 210.087 147.474 208.086 147.307C204.918 147.14 201.583 146.974 198.748 145.472C198.415 145.306 197.914 144.972 197.748 144.638C197.414 143.971 197.914 143.304 198.248 142.804C200.416 139.468 200.916 135.298 201.25 131.461C201.25 130.961 201.416 130.627 201.583 130.127C202.083 129.293 203.584 129.46 204.418 129.626C204.585 129.626 204.751 129.626 204.918 129.793C205.085 129.793 205.252 129.96 205.418 129.96C206.252 130.127 207.086 130.294 207.92 130.46C208.253 130.46 208.42 130.46 208.753 130.627C210.588 130.794 212.422 130.961 214.256 130.961C215.09 130.961 217.758 130.627 217.758 131.962C217.758 134.63 217.258 137.132 217.091 139.801C217.091 140.635 217.091 141.636 217.258 142.47Z" fill="#FDB082"/>
<path d="M217.759 131.961C217.759 134.63 217.258 137.132 217.092 139.801C215.09 140.635 212.422 140.468 210.588 139.968C208.087 139.134 205.752 137.466 204.752 134.964C204.085 133.296 203.751 131.294 204.418 129.793C204.585 129.793 204.752 129.793 204.919 129.96C205.085 129.96 205.252 130.127 205.419 130.127C206.253 130.293 207.086 130.46 207.92 130.627C208.254 130.627 208.42 130.627 208.754 130.794C210.588 130.961 212.422 131.127 214.257 131.127C215.09 130.961 217.759 130.627 217.759 131.961Z" fill="#ED7D6B"/>
<path d="M198.916 120.786C199.583 124.122 200.583 127.291 201.751 130.46C202.418 132.128 203.085 133.796 204.585 134.964C206.42 136.298 208.588 137.466 210.755 138.133C213.423 138.967 216.592 139.134 218.926 137.633C220.26 136.799 221.094 135.464 221.761 134.13C222.762 131.962 222.928 129.46 223.262 127.124C223.595 124.789 223.429 122.287 223.262 119.785C223.262 119.285 223.262 118.784 223.095 118.451C223.095 118.117 223.095 117.617 223.095 117.283C223.095 116.95 223.095 116.783 223.095 116.449C223.095 115.615 223.095 114.781 222.762 113.947C221.761 112.112 220.427 110.278 218.926 108.777C217.259 107.109 215.091 105.607 212.756 105.274C211.756 105.107 210.589 105.107 209.588 105.107C207.754 105.274 205.419 105.441 203.752 106.441C202.251 107.442 200.917 108.777 199.916 110.278C199.249 111.278 198.416 112.78 198.249 113.947C198.082 115.615 198.416 117.617 198.582 119.452C198.749 119.952 198.749 120.286 198.916 120.786Z" fill="#FDB082"/>
<path d="M209.92 117.45C209.253 117.617 208.419 117.617 207.752 117.784C206.752 117.951 205.751 118.451 205.251 119.118C205.251 119.118 205.251 119.118 205.084 119.118C204.584 119.118 205.418 117.784 205.418 117.784C205.751 117.117 206.252 116.783 206.752 116.449C207.419 116.116 211.755 114.948 211.588 116.616C211.588 116.95 211.088 117.117 210.754 117.283C210.421 117.45 210.087 117.45 209.92 117.45Z" fill="black"/>
<path d="M217.424 116.282C217.424 116.616 217.924 116.783 218.257 116.783C218.591 116.783 218.758 116.783 219.091 116.783C219.758 116.783 220.592 116.783 221.259 116.783C221.592 116.783 222.093 116.95 222.426 116.95C222.593 116.95 222.76 116.95 223.093 116.95L223.593 116.783C223.593 116.783 223.593 116.783 223.593 116.616C223.593 116.449 223.593 116.282 223.427 116.116C223.26 115.782 222.593 115.448 222.093 115.282C221.259 115.115 220.592 115.115 219.925 115.115C219.091 115.115 217.09 115.115 217.424 116.282Z" fill="black"/>
<path d="M222.761 113.113C222.428 112.446 222.094 111.946 221.761 111.278C220.26 107.942 217.092 105.274 213.59 104.273C211.089 103.439 208.254 103.439 205.586 104.106C203.085 104.773 200.583 105.941 198.415 107.442C196.414 108.776 195.581 112.112 195.08 114.281C194.58 116.95 194.747 119.618 194.914 122.12C195.08 124.289 195.414 126.624 196.748 128.292C197.415 129.126 198.415 129.793 199.416 130.46C199.749 130.627 199.916 130.794 200.25 130.794C200.75 130.794 201.083 129.96 201.083 129.459C201.584 126.791 202.084 124.289 202.584 121.62C202.751 120.619 202.751 119.618 203.418 118.618C203.918 117.784 204.585 117.116 204.919 116.116C205.586 114.781 205.419 113.113 205.753 111.612C206.253 109.277 207.92 108.276 209.755 107.275C210.922 106.608 212.589 106.775 213.757 107.442C214.257 107.776 214.59 108.109 215.091 108.276C215.758 108.443 216.258 108.276 216.925 108.276C217.926 108.276 218.759 108.776 219.593 109.277C219.927 109.444 220.427 109.777 220.594 110.111C220.76 110.444 220.927 110.778 220.927 111.112C221.261 112.613 222.261 114.114 223.095 115.282L223.262 115.448C223.428 115.448 223.428 115.282 223.428 115.115C223.428 114.448 223.095 113.78 222.761 113.113Z" fill="black"/>
<path d="M198.415 123.455C198.248 123.788 198.248 123.955 198.248 124.289C198.081 125.79 198.915 127.291 200.082 128.459C200.583 128.959 201.25 129.46 202.083 129.626C202.917 129.793 203.751 129.626 204.251 129.126C205.418 127.958 204.918 125.29 204.418 123.955C204.084 123.121 203.584 122.287 202.917 121.62C201.416 119.452 198.915 121.787 198.415 123.455Z" fill="#FDB082"/>
<path d="M208.42 106.275C208.254 106.108 208.087 106.275 207.92 106.275C206.919 106.608 205.919 107.275 205.085 107.943C204.251 108.777 203.584 109.611 202.917 110.611C201.75 112.279 200.249 114.448 198.082 114.281C197.915 114.281 197.748 114.281 197.748 114.448C197.748 114.615 198.082 114.615 198.082 114.615C200.416 114.781 202.084 112.947 203.251 111.279C203.918 110.278 204.585 109.277 205.419 108.443C206.252 107.609 207.253 106.942 208.42 106.441C208.587 106.441 208.587 106.441 208.42 106.275Z" fill="#35395E"/>
<path d="M199.748 111.112C199.081 112.279 197.914 113.113 196.58 112.946C196.413 112.946 196.247 112.946 196.247 113.113C196.08 113.447 196.413 113.447 196.413 113.447C198.081 113.447 199.582 112.613 200.415 111.278C200.582 110.945 199.748 110.945 199.748 111.112Z" fill="#35395E"/>
<path d="M194.579 126.457C194.579 126.29 194.246 126.29 194.079 126.29C193.079 126.457 192.078 126.957 191.411 127.958C190.744 128.959 190.577 130.127 190.911 131.127C190.911 131.461 191.745 131.294 191.745 130.961C191.244 129.126 192.412 126.957 194.413 126.624C194.413 126.791 194.579 126.624 194.579 126.457Z" fill="#35395E"/>
<path d="M194.746 131.628C194.579 131.628 194.579 131.461 194.579 131.461C194.579 131.461 194.579 131.461 194.412 131.294C194.246 131.127 194.246 130.961 194.246 130.794C194.246 130.46 194.246 129.96 194.579 129.793C194.746 129.626 194.579 129.459 194.412 129.459C194.246 129.459 194.079 129.459 193.912 129.459C193.579 129.793 193.412 130.293 193.412 130.794C193.579 131.294 194.079 131.628 194.579 131.795C194.746 131.795 195.079 131.795 195.079 131.628C195.079 131.795 194.746 131.628 194.746 131.628Z" fill="#35395E"/>
<path d="M186.741 136.131C186.575 135.965 186.241 135.965 186.241 136.131C185.241 136.632 184.407 137.466 184.073 138.633C183.74 139.467 183.74 140.969 184.907 141.302C185.074 141.302 185.407 141.302 185.407 141.302C185.574 141.135 185.407 140.969 185.241 140.969C184.907 140.802 184.74 140.301 184.74 139.968C184.74 139.467 184.74 138.967 184.907 138.633C185.24 137.799 185.908 136.965 186.741 136.465C186.908 136.298 186.908 136.298 186.741 136.131Z" fill="#35395E"/>
<path d="M188.742 142.303C188.575 142.303 188.575 142.303 188.575 142.303C188.408 142.303 188.408 142.136 188.242 142.136C188.075 141.97 187.908 141.803 187.741 141.469C187.408 140.802 187.575 140.135 187.908 139.468C188.075 139.134 187.241 139.134 187.074 139.301C186.741 139.968 186.574 140.969 187.074 141.636C187.408 142.303 188.075 142.637 188.909 142.804C189.075 142.804 189.242 142.804 189.242 142.637C189.242 142.303 188.909 142.303 188.742 142.303Z" fill="#35395E"/>
<path d="M221.426 106.442C220.926 105.941 220.259 105.774 219.592 105.774C219.425 105.774 219.258 105.774 219.258 105.941C219.258 106.108 219.592 106.108 219.592 106.108C219.592 106.108 219.592 106.108 219.758 106.108H219.925C219.925 106.108 219.925 106.108 220.092 106.108C220.092 106.108 220.092 106.108 220.259 106.108C220.425 106.275 220.592 106.275 220.759 106.442C221.092 106.775 221.259 107.276 221.259 107.776C221.259 107.776 221.259 107.943 221.426 107.943C221.426 107.943 221.593 107.943 221.759 107.943C221.926 107.943 222.093 107.943 222.093 107.776C222.093 107.442 221.926 106.775 221.426 106.442Z" fill="#35395E"/>
<path d="M216.924 106.441C216.924 106.274 216.591 106.274 216.424 106.274H216.257H216.09C215.757 106.108 215.423 105.774 215.256 105.44C214.589 105.107 213.756 105.107 213.922 105.44C214.423 106.441 215.59 106.775 216.591 106.775C216.757 106.608 216.924 106.608 216.924 106.441Z" fill="#35395E"/>
<path d="M206.831 372.902V362.486H217.743V372.902H206.831Z" fill="#FDB082"/>
<path d="M170.146 249.753C170.583 237.149 178.889 227.245 182.987 223.869C199.287 218.805 232.545 211.715 235.168 223.869C238.446 239.062 222.054 356.944 219.049 362.852C216.645 367.579 205.48 364.821 200.198 362.852L205.662 284.076L193.914 362.852H179.162C178.524 348.128 177.632 315.08 179.162 300.676C181.074 282.67 169.6 265.508 170.146 249.753Z" fill="#E4F2F9"/>
<path d="M167.152 181.695C170.723 147.372 186.165 143.751 193.44 146.231C198.896 142.759 209.56 147.719 214.024 147.719C218.488 147.719 231.88 141.271 237.088 156.647C242.296 172.023 235.352 238.982 234.112 243.446C232.872 247.91 184.016 247.662 179.056 245.926C179.006 245.909 178.958 245.893 178.911 245.878C176.119 244.996 177.176 248.196 178.911 245.878C179.501 245.089 180.17 243.661 180.792 241.214C179.717 244.686 177.816 228.07 175.832 238.982C173.848 249.894 174.509 246.505 170.872 243.446C170.955 237.164 163.581 216.018 167.152 181.695Z" fill="white"/>
<path d="M229.672 148.535C229.171 149.036 228.504 149.369 228.004 149.87C224.335 152.538 220.333 153.873 216.331 154.707C208.494 156.375 200.49 155.874 192.819 150.203C191.151 149.036 189.484 147.368 187.983 145.7C191.318 144.699 194.487 144.032 197.655 142.697C198.989 142.197 200.49 141.53 201.99 141.363C203.991 141.029 205.826 141.696 207.827 141.863C209.328 142.03 210.828 142.03 212.496 142.197C217.665 142.697 222.334 144.699 226.67 147.201C227.671 147.368 228.671 148.035 229.672 148.535Z" fill="#FDB082"/>
<path d="M158.732 250.078C154.863 161.872 173.998 144.913 184.049 147.459C186.894 152.043 185.756 162.737 178.929 178.016C172.102 193.294 174.662 246.004 170.679 250.078C167.494 253.338 161.387 251.437 158.732 250.078Z" fill="white"/>
<path d="M233.633 150.911C232.986 150.482 232.391 150.258 231.879 150.199C232.568 149.844 233.148 150.112 233.633 150.911C237.474 153.459 243.168 163.247 244.527 188.887C246.114 218.845 243.7 233.113 242.295 236.502H231.879C234.485 209.248 238.031 158.168 233.633 150.911Z" fill="white"/>
<path d="M180.543 372.406V361.99H190.959V372.406H180.543Z" fill="#FDB082"/>
<path d="M181.793 382.822H180.3C180.114 380.924 179.704 376.046 179.554 371.719C179.368 366.31 186.828 365.74 193.356 371.719C199.884 377.697 196.154 382.822 192.237 382.822C189.104 382.822 183.969 378.456 181.793 376.274V382.822Z" fill="#242424"/>
<path d="M207.585 383.814H206.092C205.906 381.854 205.496 376.819 205.346 372.353C205.16 366.769 212.62 366.181 219.148 372.353C225.676 378.524 221.946 383.814 218.029 383.814C214.896 383.814 209.761 379.308 207.585 377.054V383.814Z" fill="#242424"/>
<ellipse cx="278.503" cy="45.033" rx="85.0636" ry="44.1438" fill="#F7F3F3"/>
<path d="M221.252 21.231V30.2412H219.401V21.231H221.252ZM225.15 30.2412H223.356V22.9514C223.356 22.4439 223.455 22.0169 223.653 21.6704C223.855 21.3197 224.137 21.0557 224.5 20.8783C224.868 20.6968 225.303 20.606 225.806 20.606C225.971 20.606 226.13 20.6184 226.283 20.6431C226.435 20.6638 226.584 20.6906 226.728 20.7236L226.71 22.0665C226.631 22.0458 226.549 22.0314 226.462 22.0231C226.375 22.0149 226.274 22.0108 226.159 22.0108C225.944 22.0108 225.761 22.0479 225.608 22.1221C225.46 22.1923 225.346 22.2975 225.268 22.4377C225.189 22.578 225.15 22.7492 225.15 22.9514V30.2412ZM226.487 23.5455V24.8079H222.359V23.5455H226.487ZM233.857 23.5455V24.8079H229.959V23.5455H233.857ZM230.924 21.8932H232.706V28.2238C232.706 28.4177 232.731 28.5662 232.78 28.6694C232.834 28.7725 232.912 28.8447 233.016 28.886C233.119 28.9231 233.249 28.9417 233.405 28.9417C233.517 28.9417 233.616 28.9375 233.702 28.9293C233.793 28.9169 233.87 28.9045 233.931 28.8922L233.938 30.2041C233.785 30.2536 233.62 30.2928 233.443 30.3217C233.265 30.3505 233.069 30.365 232.855 30.365C232.463 30.365 232.12 30.301 231.827 30.1731C231.539 30.0411 231.316 29.8307 231.159 29.5419C231.002 29.2531 230.924 28.8736 230.924 28.4033V21.8932ZM236.611 20.736V30.2412H234.829V20.736H236.611ZM236.357 26.6582H235.868C235.872 26.192 235.934 25.7629 236.054 25.371C236.174 24.975 236.345 24.6325 236.568 24.3437C236.79 24.0508 237.057 23.8239 237.366 23.663C237.679 23.5021 238.026 23.4217 238.406 23.4217C238.736 23.4217 239.035 23.4691 239.303 23.564C239.575 23.6548 239.808 23.8033 240.002 24.0096C240.2 24.2117 240.353 24.4778 240.46 24.8079C240.567 25.1379 240.621 25.5381 240.621 26.0084V30.2412H238.826V25.996C238.826 25.699 238.783 25.4659 238.696 25.2967C238.614 25.1235 238.492 25.0018 238.331 24.9316C238.175 24.8574 237.981 24.8202 237.75 24.8202C237.494 24.8202 237.275 24.8677 237.094 24.9626C236.916 25.0575 236.774 25.1895 236.667 25.3586C236.559 25.5237 236.481 25.7176 236.431 25.9403C236.382 26.1631 236.357 26.4024 236.357 26.6582ZM243.857 23.5455V30.2412H242.069V23.5455H243.857ZM241.958 21.8004C241.958 21.5404 242.048 21.3259 242.23 21.1568C242.411 20.9876 242.655 20.903 242.96 20.903C243.261 20.903 243.503 20.9876 243.684 21.1568C243.87 21.3259 243.963 21.5404 243.963 21.8004C243.963 22.0603 243.87 22.2748 243.684 22.4439C243.503 22.6131 243.261 22.6977 242.96 22.6977C242.655 22.6977 242.411 22.6131 242.23 22.4439C242.048 22.2748 241.958 22.0603 241.958 21.8004ZM248.95 28.3909C248.95 28.263 248.913 28.1475 248.839 28.0444C248.765 27.9412 248.627 27.8463 248.424 27.7597C248.226 27.6689 247.94 27.5864 247.564 27.5122C247.226 27.4379 246.91 27.3451 246.617 27.2337C246.329 27.1182 246.077 26.98 245.862 26.8191C245.652 26.6582 245.487 26.4684 245.367 26.2497C245.248 26.027 245.188 25.7732 245.188 25.4886C245.188 25.2081 245.248 24.944 245.367 24.6965C245.491 24.449 245.667 24.2303 245.893 24.0405C246.124 23.8466 246.405 23.696 246.735 23.5888C247.069 23.4774 247.445 23.4217 247.861 23.4217C248.443 23.4217 248.942 23.5145 249.359 23.7002C249.78 23.8858 250.101 24.1416 250.324 24.4675C250.551 24.7893 250.665 25.1565 250.665 25.569H248.882C248.882 25.3958 248.845 25.2411 248.771 25.1049C248.701 24.9646 248.589 24.8553 248.437 24.7769C248.288 24.6944 248.094 24.6532 247.855 24.6532C247.657 24.6532 247.486 24.6882 247.341 24.7584C247.197 24.8244 247.086 24.9151 247.007 25.0307C246.933 25.142 246.896 25.2658 246.896 25.402C246.896 25.5051 246.917 25.5979 246.958 25.6804C247.003 25.7588 247.075 25.831 247.174 25.897C247.273 25.963 247.401 26.0249 247.558 26.0827C247.719 26.1363 247.917 26.1858 248.152 26.2312C248.635 26.3302 249.066 26.4602 249.446 26.621C249.825 26.7778 250.126 26.9923 250.349 27.2646C250.572 27.5328 250.683 27.8855 250.683 28.3228C250.683 28.6199 250.617 28.8922 250.485 29.1397C250.353 29.3872 250.163 29.6038 249.916 29.7895C249.668 29.971 249.371 30.1133 249.025 30.2165C248.682 30.3155 248.297 30.365 247.867 30.365C247.245 30.365 246.716 30.2536 246.283 30.0308C245.854 29.808 245.528 29.5254 245.306 29.183C245.087 28.8365 244.978 28.4817 244.978 28.1186H246.667C246.675 28.362 246.737 28.558 246.853 28.7065C246.972 28.855 247.123 28.9623 247.304 29.0283C247.49 29.0943 247.69 29.1273 247.905 29.1273C248.136 29.1273 248.327 29.0964 248.48 29.0345C248.633 28.9685 248.748 28.8818 248.827 28.7746C248.909 28.6632 248.95 28.5353 248.95 28.3909ZM257.763 28.9726C257.981 28.9726 258.175 28.9314 258.344 28.8488C258.513 28.7622 258.645 28.6426 258.74 28.4899C258.839 28.3331 258.891 28.1496 258.895 27.9392H260.572C260.568 28.4095 260.442 28.8282 260.195 29.1954C259.947 29.5584 259.615 29.8452 259.198 30.0556C258.782 30.2618 258.315 30.365 257.8 30.365C257.28 30.365 256.826 30.2783 256.438 30.1051C256.055 29.9318 255.735 29.6925 255.479 29.3872C255.223 29.0778 255.031 28.7189 254.904 28.3105C254.776 27.8979 254.712 27.4565 254.712 26.9862V26.8067C254.712 26.3323 254.776 25.8908 254.904 25.4824C255.031 25.0698 255.223 24.7109 255.479 24.4056C255.735 24.0962 256.055 23.8549 256.438 23.6816C256.822 23.5083 257.272 23.4217 257.787 23.4217C258.336 23.4217 258.817 23.5269 259.229 23.7373C259.646 23.9477 259.972 24.2489 260.207 24.6408C260.446 25.0286 260.568 25.4886 260.572 26.0208H258.895C258.891 25.798 258.843 25.5959 258.753 25.4143C258.666 25.2328 258.538 25.0884 258.369 24.9811C258.204 24.8698 258 24.8141 257.756 24.8141C257.497 24.8141 257.284 24.8698 257.119 24.9811C256.954 25.0884 256.826 25.2369 256.735 25.4267C256.645 25.6124 256.581 25.8248 256.544 26.0641C256.511 26.2993 256.494 26.5468 256.494 26.8067V26.9862C256.494 27.2461 256.511 27.4957 256.544 27.7349C256.577 27.9742 256.638 28.1867 256.729 28.3723C256.824 28.558 256.954 28.7044 257.119 28.8117C257.284 28.919 257.499 28.9726 257.763 28.9726ZM261.321 26.9614V26.8315C261.321 26.3405 261.391 25.8888 261.531 25.4762C261.672 25.0595 261.876 24.6985 262.144 24.3933C262.412 24.088 262.742 23.8507 263.134 23.6816C263.526 23.5083 263.976 23.4217 264.483 23.4217C264.991 23.4217 265.442 23.5083 265.838 23.6816C266.234 23.8507 266.567 24.088 266.835 24.3933C267.107 24.6985 267.313 25.0595 267.453 25.4762C267.594 25.8888 267.664 26.3405 267.664 26.8315V26.9614C267.664 27.4482 267.594 27.9 267.453 28.3166C267.313 28.7292 267.107 29.0902 266.835 29.3996C266.567 29.7049 266.236 29.9421 265.845 30.1113C265.453 30.2804 265.003 30.365 264.495 30.365C263.988 30.365 263.536 30.2804 263.14 30.1113C262.748 29.9421 262.416 29.7049 262.144 29.3996C261.876 29.0902 261.672 28.7292 261.531 28.3166C261.391 27.9 261.321 27.4482 261.321 26.9614ZM263.103 26.8315V26.9614C263.103 27.2419 263.128 27.5039 263.177 27.7473C263.227 27.9907 263.305 28.2053 263.413 28.3909C263.524 28.5724 263.668 28.7148 263.846 28.8179C264.023 28.921 264.24 28.9726 264.495 28.9726C264.743 28.9726 264.955 28.921 265.133 28.8179C265.31 28.7148 265.453 28.5724 265.56 28.3909C265.667 28.2053 265.746 27.9907 265.795 27.7473C265.849 27.5039 265.875 27.2419 265.875 26.9614V26.8315C265.875 26.5592 265.849 26.3034 265.795 26.0641C265.746 25.8207 265.665 25.6062 265.554 25.4205C265.446 25.2307 265.304 25.0822 265.127 24.975C264.949 24.8677 264.735 24.8141 264.483 24.8141C264.231 24.8141 264.017 24.8677 263.84 24.975C263.666 25.0822 263.524 25.2307 263.413 25.4205C263.305 25.6062 263.227 25.8207 263.177 26.0641C263.128 26.3034 263.103 26.5592 263.103 26.8315ZM270.504 24.975V30.2412H268.722V23.5455H270.393L270.504 24.975ZM270.244 26.6582H269.762C269.762 26.1631 269.826 25.7176 269.954 25.3215C270.081 24.9213 270.261 24.581 270.492 24.3004C270.723 24.0158 270.997 23.7992 271.315 23.6507C271.637 23.498 271.996 23.4217 272.392 23.4217C272.705 23.4217 272.992 23.4671 273.252 23.5578C273.512 23.6486 273.735 23.793 273.92 23.991C274.11 24.189 274.254 24.451 274.353 24.7769C274.457 25.1028 274.508 25.501 274.508 25.9713V30.2412H272.714V25.9651C272.714 25.668 272.672 25.437 272.59 25.272C272.507 25.107 272.386 24.9915 272.225 24.9255C272.068 24.8553 271.874 24.8202 271.643 24.8202C271.404 24.8202 271.195 24.8677 271.018 24.9626C270.845 25.0575 270.7 25.1895 270.585 25.3586C270.473 25.5237 270.389 25.7176 270.331 25.9403C270.273 26.1631 270.244 26.4024 270.244 26.6582ZM279.143 23.5455V24.8079H275.245V23.5455H279.143ZM276.21 21.8932H277.992V28.2238C277.992 28.4177 278.017 28.5662 278.066 28.6694C278.12 28.7725 278.198 28.8447 278.302 28.886C278.405 28.9231 278.535 28.9417 278.691 28.9417C278.803 28.9417 278.902 28.9375 278.989 28.9293C279.079 28.9169 279.156 28.9045 279.217 28.8922L279.224 30.2041C279.071 30.2536 278.906 30.2928 278.729 30.3217C278.551 30.3505 278.355 30.365 278.141 30.365C277.749 30.365 277.406 30.301 277.113 30.1731C276.825 30.0411 276.602 29.8307 276.445 29.5419C276.288 29.2531 276.21 28.8736 276.21 28.4033V21.8932ZM282.039 23.5455V30.2412H280.251V23.5455H282.039ZM280.14 21.8004C280.14 21.5404 280.23 21.3259 280.412 21.1568C280.593 20.9876 280.837 20.903 281.142 20.903C281.443 20.903 281.685 20.9876 281.866 21.1568C282.052 21.3259 282.145 21.5404 282.145 21.8004C282.145 22.0603 282.052 22.2748 281.866 22.4439C281.685 22.6131 281.443 22.6977 281.142 22.6977C280.837 22.6977 280.593 22.6131 280.412 22.4439C280.23 22.2748 280.14 22.0603 280.14 21.8004ZM285.257 24.975V30.2412H283.475V23.5455H285.146L285.257 24.975ZM284.997 26.6582H284.515C284.515 26.1631 284.579 25.7176 284.707 25.3215C284.834 24.9213 285.014 24.581 285.245 24.3004C285.476 24.0158 285.75 23.7992 286.068 23.6507C286.39 23.498 286.749 23.4217 287.145 23.4217C287.458 23.4217 287.745 23.4671 288.005 23.5578C288.265 23.6486 288.488 23.793 288.673 23.991C288.863 24.189 289.007 24.451 289.106 24.7769C289.21 25.1028 289.261 25.501 289.261 25.9713V30.2412H287.467V25.9651C287.467 25.668 287.425 25.437 287.343 25.272C287.26 25.107 287.139 24.9915 286.978 24.9255C286.821 24.8553 286.627 24.8202 286.396 24.8202C286.157 24.8202 285.948 24.8677 285.771 24.9626C285.598 25.0575 285.453 25.1895 285.338 25.3586C285.226 25.5237 285.142 25.7176 285.084 25.9403C285.026 26.1631 284.997 26.4024 284.997 26.6582ZM294.577 28.6384V23.5455H296.359V30.2412H294.682L294.577 28.6384ZM294.775 27.2646L295.301 27.2523C295.301 27.6978 295.249 28.1124 295.146 28.4961C295.043 28.8757 294.888 29.2057 294.682 29.4862C294.476 29.7626 294.216 29.9792 293.902 30.136C293.589 30.2887 293.22 30.365 292.795 30.365C292.469 30.365 292.168 30.3196 291.891 30.2288C291.619 30.1339 291.384 29.9875 291.186 29.7895C290.992 29.5873 290.839 29.3295 290.728 29.0159C290.62 28.6983 290.567 28.3166 290.567 27.8711V23.5455H292.349V27.8835C292.349 28.0815 292.372 28.2486 292.417 28.3847C292.467 28.5209 292.535 28.6322 292.621 28.7189C292.708 28.8055 292.809 28.8674 292.925 28.9045C293.044 28.9417 293.176 28.9602 293.321 28.9602C293.688 28.9602 293.977 28.886 294.187 28.7375C294.402 28.5889 294.552 28.3868 294.639 28.131C294.73 27.8711 294.775 27.5823 294.775 27.2646ZM300.802 30.365C300.282 30.365 299.816 30.2825 299.404 30.1174C298.991 29.9483 298.641 29.7152 298.352 29.4182C298.067 29.1211 297.848 28.7766 297.696 28.3847C297.543 27.9887 297.467 27.5679 297.467 27.1223V26.8748C297.467 26.3673 297.539 25.9032 297.683 25.4824C297.828 25.0616 298.034 24.6965 298.302 24.3871C298.575 24.0777 298.905 23.8404 299.292 23.6754C299.68 23.5063 300.117 23.4217 300.604 23.4217C301.079 23.4217 301.5 23.5001 301.867 23.6568C302.234 23.8136 302.541 24.0364 302.789 24.3252C303.04 24.614 303.23 24.9605 303.358 25.3648C303.486 25.765 303.55 26.2106 303.55 26.7015V27.4441H298.228V26.2559H301.799V26.1198C301.799 25.8723 301.753 25.6515 301.662 25.4576C301.576 25.2596 301.444 25.1028 301.266 24.9873C301.089 24.8718 300.862 24.8141 300.586 24.8141C300.351 24.8141 300.148 24.8656 299.979 24.9688C299.81 25.0719 299.672 25.2163 299.565 25.402C299.462 25.5876 299.383 25.8063 299.329 26.0579C299.28 26.3054 299.255 26.5777 299.255 26.8748V27.1223C299.255 27.3905 299.292 27.638 299.367 27.8649C299.445 28.0918 299.554 28.2878 299.695 28.4528C299.839 28.6178 300.012 28.7457 300.214 28.8365C300.421 28.9272 300.654 28.9726 300.914 28.9726C301.235 28.9726 301.535 28.9107 301.811 28.787C302.092 28.6591 302.333 28.4672 302.535 28.2114L303.401 29.1521C303.261 29.3542 303.069 29.5481 302.826 29.7338C302.587 29.9194 302.298 30.0721 301.96 30.1917C301.621 30.3072 301.235 30.365 300.802 30.365ZM308.185 28.3909C308.185 28.263 308.148 28.1475 308.074 28.0444C307.999 27.9412 307.861 27.8463 307.659 27.7597C307.461 27.6689 307.174 27.5864 306.799 27.5122C306.46 27.4379 306.145 27.3451 305.852 27.2337C305.563 27.1182 305.312 26.98 305.097 26.8191C304.887 26.6582 304.722 26.4684 304.602 26.2497C304.482 26.027 304.422 25.7732 304.422 25.4886C304.422 25.2081 304.482 24.944 304.602 24.6965C304.726 24.449 304.901 24.2303 305.128 24.0405C305.359 23.8466 305.64 23.696 305.97 23.5888C306.304 23.4774 306.679 23.4217 307.096 23.4217C307.678 23.4217 308.177 23.5145 308.593 23.7002C309.014 23.8858 309.336 24.1416 309.559 24.4675C309.786 24.7893 309.899 25.1565 309.899 25.569H308.117C308.117 25.3958 308.08 25.2411 308.006 25.1049C307.935 24.9646 307.824 24.8553 307.671 24.7769C307.523 24.6944 307.329 24.6532 307.09 24.6532C306.892 24.6532 306.72 24.6882 306.576 24.7584C306.432 24.8244 306.32 24.9151 306.242 25.0307C306.168 25.142 306.13 25.2658 306.13 25.402C306.13 25.5051 306.151 25.5979 306.192 25.6804C306.238 25.7588 306.31 25.831 306.409 25.897C306.508 25.963 306.636 26.0249 306.793 26.0827C306.953 26.1363 307.152 26.1858 307.387 26.2312C307.869 26.3302 308.3 26.4602 308.68 26.621C309.06 26.7778 309.361 26.9923 309.584 27.2646C309.806 27.5328 309.918 27.8855 309.918 28.3228C309.918 28.6199 309.852 28.8922 309.72 29.1397C309.588 29.3872 309.398 29.6038 309.15 29.7895C308.903 29.971 308.606 30.1133 308.259 30.2165C307.917 30.3155 307.531 30.365 307.102 30.365C306.479 30.365 305.951 30.2536 305.518 30.0308C305.089 29.808 304.763 29.5254 304.54 29.183C304.321 28.8365 304.212 28.4817 304.212 28.1186H305.901C305.91 28.362 305.972 28.558 306.087 28.7065C306.207 28.855 306.357 28.9623 306.539 29.0283C306.725 29.0943 306.925 29.1273 307.139 29.1273C307.37 29.1273 307.562 29.0964 307.715 29.0345C307.867 28.9685 307.983 28.8818 308.061 28.7746C308.144 28.6632 308.185 28.5353 308.185 28.3909ZM312.764 28.7375L312.758 29.9318C312.758 30.3897 312.643 30.8518 312.412 31.318C312.185 31.7842 311.896 32.1658 311.545 32.4628L310.617 31.9863C310.72 31.7965 310.821 31.6068 310.92 31.417C311.019 31.2272 311.102 31.0189 311.168 30.792C311.234 30.5651 311.267 30.3072 311.267 30.0184V28.7375H312.764ZM320.63 23.5455V24.8079H316.731V23.5455H320.63ZM317.696 21.8932H319.479V28.2238C319.479 28.4177 319.503 28.5662 319.553 28.6694C319.607 28.7725 319.685 28.8447 319.788 28.886C319.891 28.9231 320.021 28.9417 320.178 28.9417C320.289 28.9417 320.388 28.9375 320.475 28.9293C320.566 28.9169 320.642 28.9045 320.704 28.8922L320.71 30.2041C320.557 30.2536 320.392 30.2928 320.215 30.3217C320.038 30.3505 319.842 30.365 319.627 30.365C319.235 30.365 318.893 30.301 318.6 30.1731C318.311 30.0411 318.088 29.8307 317.932 29.5419C317.775 29.2531 317.696 28.8736 317.696 28.4033V21.8932ZM323.383 20.736V30.2412H321.601V20.736H323.383ZM323.13 26.6582H322.641C322.645 26.192 322.707 25.7629 322.827 25.371C322.946 24.975 323.117 24.6325 323.34 24.3437C323.563 24.0508 323.829 23.8239 324.138 23.663C324.452 23.5021 324.799 23.4217 325.178 23.4217C325.508 23.4217 325.807 23.4691 326.075 23.564C326.348 23.6548 326.581 23.8033 326.775 24.0096C326.973 24.2117 327.125 24.4778 327.233 24.8079C327.34 25.1379 327.393 25.5381 327.393 26.0084V30.2412H325.599V25.996C325.599 25.699 325.556 25.4659 325.469 25.2967C325.386 25.1235 325.265 25.0018 325.104 24.9316C324.947 24.8574 324.753 24.8202 324.522 24.8202C324.266 24.8202 324.048 24.8677 323.866 24.9626C323.689 25.0575 323.546 25.1895 323.439 25.3586C323.332 25.5237 323.254 25.7176 323.204 25.9403C323.155 26.1631 323.13 26.4024 323.13 26.6582ZM331.831 30.365C331.311 30.365 330.845 30.2825 330.432 30.1174C330.019 29.9483 329.669 29.7152 329.38 29.4182C329.095 29.1211 328.877 28.7766 328.724 28.3847C328.571 27.9887 328.495 27.5679 328.495 27.1223V26.8748C328.495 26.3673 328.567 25.9032 328.712 25.4824C328.856 25.0616 329.062 24.6965 329.33 24.3871C329.603 24.0777 329.933 23.8404 330.321 23.6754C330.708 23.5063 331.146 23.4217 331.632 23.4217C332.107 23.4217 332.528 23.5001 332.895 23.6568C333.262 23.8136 333.569 24.0364 333.817 24.3252C334.069 24.614 334.258 24.9605 334.386 25.3648C334.514 25.765 334.578 26.2106 334.578 26.7015V27.4441H329.256V26.2559H332.827V26.1198C332.827 25.8723 332.781 25.6515 332.691 25.4576C332.604 25.2596 332.472 25.1028 332.295 24.9873C332.117 24.8718 331.89 24.8141 331.614 24.8141C331.379 24.8141 331.177 24.8656 331.007 24.9688C330.838 25.0719 330.7 25.2163 330.593 25.402C330.49 25.5876 330.411 25.8063 330.358 26.0579C330.308 26.3054 330.283 26.5777 330.283 26.8748V27.1223C330.283 27.3905 330.321 27.638 330.395 27.8649C330.473 28.0918 330.583 28.2878 330.723 28.4528C330.867 28.6178 331.04 28.7457 331.243 28.8365C331.449 28.9272 331.682 28.9726 331.942 28.9726C332.264 28.9726 332.563 28.9107 332.839 28.787C333.12 28.6591 333.361 28.4672 333.563 28.2114L334.43 29.1521C334.289 29.3542 334.098 29.5481 333.854 29.7338C333.615 29.9194 333.326 30.0721 332.988 30.1917C332.649 30.3072 332.264 30.365 331.831 30.365ZM337.338 24.975V30.2412H335.556V23.5455H337.227L337.338 24.975ZM337.078 26.6582H336.596C336.596 26.1631 336.659 25.7176 336.787 25.3215C336.915 24.9213 337.095 24.581 337.326 24.3004C337.557 24.0158 337.831 23.7992 338.149 23.6507C338.471 23.498 338.829 23.4217 339.226 23.4217C339.539 23.4217 339.826 23.4671 340.086 23.5578C340.346 23.6486 340.568 23.793 340.754 23.991C340.944 24.189 341.088 24.451 341.187 24.7769C341.29 25.1028 341.342 25.501 341.342 25.9713V30.2412H339.547V25.9651C339.547 25.668 339.506 25.437 339.424 25.272C339.341 25.107 339.219 24.9915 339.058 24.9255C338.902 24.8553 338.708 24.8202 338.477 24.8202C338.237 24.8202 338.029 24.8677 337.852 24.9626C337.678 25.0575 337.534 25.1895 337.419 25.3586C337.307 25.5237 337.223 25.7176 337.165 25.9403C337.107 26.1631 337.078 26.4024 337.078 26.6582ZM224.098 37.5455V38.8079H220.2V37.5455H224.098ZM221.165 35.8932H222.947V42.2238C222.947 42.4177 222.972 42.5662 223.021 42.6694C223.075 42.7725 223.153 42.8447 223.257 42.886C223.36 42.9231 223.49 42.9417 223.646 42.9417C223.758 42.9417 223.857 42.9375 223.943 42.9293C224.034 42.9169 224.111 42.9045 224.172 42.8922L224.179 44.2041C224.026 44.2536 223.861 44.2928 223.684 44.3217C223.506 44.3505 223.31 44.365 223.096 44.365C222.704 44.365 222.361 44.301 222.068 44.1731C221.78 44.0411 221.557 43.8307 221.4 43.5419C221.243 43.2531 221.165 42.8736 221.165 42.4033V35.8932ZM226.852 34.736V44.2412H225.07V34.736H226.852ZM226.598 40.6582H226.109C226.114 40.192 226.175 39.7629 226.295 39.371C226.415 38.975 226.586 38.6325 226.809 38.3437C227.031 38.0508 227.298 37.8239 227.607 37.663C227.921 37.5021 228.267 37.4217 228.647 37.4217C228.977 37.4217 229.276 37.4691 229.544 37.564C229.816 37.6548 230.049 37.8033 230.243 38.0096C230.441 38.2117 230.594 38.4778 230.701 38.8079C230.808 39.1379 230.862 39.5381 230.862 40.0084V44.2412H229.067V39.996C229.067 39.699 229.024 39.4659 228.937 39.2967C228.855 39.1235 228.733 39.0018 228.572 38.9316C228.416 38.8574 228.222 38.8202 227.991 38.8202C227.735 38.8202 227.516 38.8677 227.335 38.9626C227.157 39.0575 227.015 39.1895 226.908 39.3586C226.8 39.5237 226.722 39.7176 226.673 39.9403C226.623 40.1631 226.598 40.4024 226.598 40.6582ZM235.299 44.365C234.779 44.365 234.313 44.2825 233.9 44.1174C233.488 43.9483 233.137 43.7152 232.848 43.4182C232.564 43.1211 232.345 42.7766 232.193 42.3847C232.04 41.9887 231.964 41.5679 231.964 41.1223V40.8748C231.964 40.3673 232.036 39.9032 232.18 39.4824C232.325 39.0616 232.531 38.6965 232.799 38.3871C233.071 38.0777 233.401 37.8404 233.789 37.6754C234.177 37.5063 234.614 37.4217 235.101 37.4217C235.575 37.4217 235.996 37.5001 236.363 37.6568C236.731 37.8136 237.038 38.0364 237.285 38.3252C237.537 38.614 237.727 38.9605 237.855 39.3648C237.983 39.765 238.047 40.2106 238.047 40.7015V41.4441H232.725V40.2559H236.295V40.1198C236.295 39.8723 236.25 39.6515 236.159 39.4576C236.073 39.2596 235.941 39.1028 235.763 38.9873C235.586 38.8718 235.359 38.8141 235.082 38.8141C234.847 38.8141 234.645 38.8656 234.476 38.9688C234.307 39.0719 234.169 39.2163 234.061 39.402C233.958 39.5876 233.88 39.8063 233.826 40.0579C233.777 40.3054 233.752 40.5777 233.752 40.8748V41.1223C233.752 41.3905 233.789 41.638 233.863 41.8649C233.942 42.0918 234.051 42.2878 234.191 42.4528C234.336 42.6178 234.509 42.7457 234.711 42.8365C234.917 42.9272 235.151 42.9726 235.41 42.9726C235.732 42.9726 236.031 42.9107 236.308 42.787C236.588 42.6591 236.83 42.4672 237.032 42.2114L237.898 43.1521C237.758 43.3542 237.566 43.5481 237.323 43.7338C237.083 43.9194 236.795 44.0721 236.456 44.1917C236.118 44.3072 235.732 44.365 235.299 44.365ZM240.844 39.0059V44.2412H239.062V37.5455H240.739L240.844 39.0059ZM242.861 37.5021L242.83 39.1544C242.744 39.142 242.638 39.1317 242.515 39.1235C242.395 39.1111 242.286 39.1049 242.187 39.1049C241.935 39.1049 241.716 39.1379 241.531 39.2039C241.349 39.2658 241.196 39.3586 241.073 39.4824C240.953 39.6062 240.862 39.7567 240.8 39.9341C240.743 40.1115 240.71 40.3137 240.701 40.5406L240.343 40.4292C240.343 39.996 240.386 39.5979 240.472 39.2349C240.559 38.8677 240.685 38.548 240.85 38.2757C241.019 38.0034 241.225 37.793 241.469 37.6445C241.712 37.496 241.991 37.4217 242.304 37.4217C242.403 37.4217 242.504 37.4299 242.607 37.4464C242.711 37.4588 242.795 37.4774 242.861 37.5021ZM246.661 44.365C246.141 44.365 245.675 44.2825 245.262 44.1174C244.85 43.9483 244.499 43.7152 244.21 43.4182C243.926 43.1211 243.707 42.7766 243.554 42.3847C243.402 41.9887 243.325 41.5679 243.325 41.1223V40.8748C243.325 40.3673 243.397 39.9032 243.542 39.4824C243.686 39.0616 243.893 38.6965 244.161 38.3871C244.433 38.0777 244.763 37.8404 245.151 37.6754C245.539 37.5063 245.976 37.4217 246.463 37.4217C246.937 37.4217 247.358 37.5001 247.725 37.6568C248.092 37.8136 248.4 38.0364 248.647 38.3252C248.899 38.614 249.089 38.9605 249.217 39.3648C249.344 39.765 249.408 40.2106 249.408 40.7015V41.4441H244.086V40.2559H247.657V40.1198C247.657 39.8723 247.612 39.6515 247.521 39.4576C247.434 39.2596 247.302 39.1028 247.125 38.9873C246.947 38.8718 246.721 38.8141 246.444 38.8141C246.209 38.8141 246.007 38.8656 245.838 38.9688C245.669 39.0719 245.53 39.2163 245.423 39.402C245.32 39.5876 245.242 39.8063 245.188 40.0579C245.138 40.3054 245.114 40.5777 245.114 40.8748V41.1223C245.114 41.3905 245.151 41.638 245.225 41.8649C245.303 42.0918 245.413 42.2878 245.553 42.4528C245.697 42.6178 245.871 42.7457 246.073 42.8365C246.279 42.9272 246.512 42.9726 246.772 42.9726C247.094 42.9726 247.393 42.9107 247.669 42.787C247.95 42.6591 248.191 42.4672 248.394 42.2114L249.26 43.1521C249.12 43.3542 248.928 43.5481 248.684 43.7338C248.445 43.9194 248.156 44.0721 247.818 44.1917C247.48 44.3072 247.094 44.365 246.661 44.365ZM255.461 37.5455V44.2412H253.672V37.5455H255.461ZM253.561 35.8004C253.561 35.5404 253.652 35.3259 253.833 35.1568C254.015 34.9876 254.258 34.903 254.563 34.903C254.864 34.903 255.106 34.9876 255.287 35.1568C255.473 35.3259 255.566 35.5404 255.566 35.8004C255.566 36.0603 255.473 36.2748 255.287 36.4439C255.106 36.6131 254.864 36.6977 254.563 36.6977C254.258 36.6977 254.015 36.6131 253.833 36.4439C253.652 36.2748 253.561 36.0603 253.561 35.8004ZM260.554 42.3909C260.554 42.263 260.516 42.1475 260.442 42.0444C260.368 41.9412 260.23 41.8463 260.028 41.7597C259.83 41.6689 259.543 41.5864 259.167 41.5122C258.829 41.4379 258.513 41.3451 258.221 41.2337C257.932 41.1182 257.68 40.98 257.466 40.8191C257.255 40.6582 257.09 40.4684 256.971 40.2497C256.851 40.027 256.791 39.7732 256.791 39.4886C256.791 39.2081 256.851 38.944 256.971 38.6965C257.094 38.449 257.27 38.2303 257.497 38.0405C257.728 37.8466 258.008 37.696 258.338 37.5888C258.672 37.4774 259.048 37.4217 259.464 37.4217C260.046 37.4217 260.545 37.5145 260.962 37.7002C261.383 37.8858 261.705 38.1416 261.927 38.4675C262.154 38.7893 262.268 39.1565 262.268 39.569H260.485C260.485 39.3958 260.448 39.2411 260.374 39.1049C260.304 38.9646 260.193 38.8553 260.04 38.7769C259.891 38.6944 259.697 38.6532 259.458 38.6532C259.26 38.6532 259.089 38.6882 258.945 38.7584C258.8 38.8244 258.689 38.9151 258.61 39.0307C258.536 39.142 258.499 39.2658 258.499 39.402C258.499 39.5051 258.52 39.5979 258.561 39.6804C258.606 39.7588 258.678 39.831 258.777 39.897C258.877 39.963 259.004 40.0249 259.161 40.0827C259.322 40.1363 259.52 40.1858 259.755 40.2312C260.238 40.3302 260.669 40.4602 261.049 40.621C261.428 40.7778 261.729 40.9923 261.952 41.2646C262.175 41.5328 262.286 41.8855 262.286 42.3228C262.286 42.6199 262.22 42.8922 262.088 43.1397C261.956 43.3872 261.766 43.6038 261.519 43.7895C261.271 43.971 260.974 44.1133 260.628 44.2165C260.285 44.3155 259.9 44.365 259.471 44.365C258.848 44.365 258.32 44.2536 257.886 44.0308C257.457 43.808 257.131 43.5254 256.909 43.183C256.69 42.8365 256.581 42.4817 256.581 42.1186H258.27C258.278 42.362 258.34 42.558 258.456 42.7065C258.575 42.855 258.726 42.9623 258.907 43.0283C259.093 43.0943 259.293 43.1273 259.508 43.1273C259.739 43.1273 259.931 43.0964 260.083 43.0345C260.236 42.9685 260.351 42.8818 260.43 42.7746C260.512 42.6632 260.554 42.5353 260.554 42.3909ZM268.345 38.975V44.2412H266.562V37.5455H268.233L268.345 38.975ZM268.085 40.6582H267.602C267.602 40.1631 267.666 39.7176 267.794 39.3215C267.922 38.9213 268.101 38.581 268.332 38.3004C268.563 38.0158 268.838 37.7992 269.155 37.6507C269.477 37.498 269.836 37.4217 270.232 37.4217C270.546 37.4217 270.832 37.4671 271.092 37.5578C271.352 37.6486 271.575 37.793 271.761 37.991C271.95 38.189 272.095 38.451 272.194 38.7769C272.297 39.1028 272.348 39.501 272.348 39.9713V44.2412H270.554V39.9651C270.554 39.668 270.513 39.437 270.43 39.272C270.348 39.107 270.226 38.9915 270.065 38.9255C269.908 38.8553 269.714 38.8202 269.483 38.8202C269.244 38.8202 269.036 38.8677 268.858 38.9626C268.685 39.0575 268.541 39.1895 268.425 39.3586C268.314 39.5237 268.229 39.7176 268.171 39.9403C268.114 40.1631 268.085 40.4024 268.085 40.6582ZM273.419 40.9614V40.8315C273.419 40.3405 273.489 39.8888 273.629 39.4762C273.77 39.0595 273.974 38.6985 274.242 38.3933C274.51 38.088 274.84 37.8507 275.232 37.6816C275.624 37.5083 276.074 37.4217 276.581 37.4217C277.089 37.4217 277.54 37.5083 277.937 37.6816C278.333 37.8507 278.665 38.088 278.933 38.3933C279.205 38.6985 279.411 39.0595 279.552 39.4762C279.692 39.8888 279.762 40.3405 279.762 40.8315V40.9614C279.762 41.4482 279.692 41.9 279.552 42.3166C279.411 42.7292 279.205 43.0902 278.933 43.3996C278.665 43.7049 278.335 43.9421 277.943 44.1113C277.551 44.2804 277.101 44.365 276.594 44.365C276.086 44.365 275.634 44.2804 275.238 44.1113C274.846 43.9421 274.514 43.7049 274.242 43.3996C273.974 43.0902 273.77 42.7292 273.629 42.3166C273.489 41.9 273.419 41.4482 273.419 40.9614ZM275.201 40.8315V40.9614C275.201 41.2419 275.226 41.5039 275.276 41.7473C275.325 41.9907 275.403 42.2053 275.511 42.3909C275.622 42.5724 275.766 42.7148 275.944 42.8179C276.121 42.921 276.338 42.9726 276.594 42.9726C276.841 42.9726 277.054 42.921 277.231 42.8179C277.408 42.7148 277.551 42.5724 277.658 42.3909C277.765 42.2053 277.844 41.9907 277.893 41.7473C277.947 41.5039 277.974 41.2419 277.974 40.9614V40.8315C277.974 40.5592 277.947 40.3034 277.893 40.0641C277.844 39.8207 277.763 39.6062 277.652 39.4205C277.545 39.2307 277.402 39.0822 277.225 38.975C277.047 38.8677 276.833 38.8141 276.581 38.8141C276.33 38.8141 276.115 38.8677 275.938 38.975C275.764 39.0822 275.622 39.2307 275.511 39.4205C275.403 39.6062 275.325 39.8207 275.276 40.0641C275.226 40.3034 275.201 40.5592 275.201 40.8315ZM285.796 38.8326V46.8155H284.013V37.5455H285.666L285.796 38.8326ZM290.035 40.8191V40.949C290.035 41.4358 289.977 41.8876 289.861 42.3043C289.75 42.7209 289.585 43.084 289.366 43.3934C289.148 43.6987 288.875 43.938 288.549 44.1113C288.228 44.2804 287.856 44.365 287.436 44.365C287.027 44.365 286.672 44.2825 286.371 44.1174C286.07 43.9524 285.816 43.7214 285.61 43.4244C285.408 43.1232 285.245 42.7746 285.121 42.3785C284.997 41.9825 284.902 41.5575 284.836 41.1037V40.7634C284.902 40.2766 284.997 39.831 285.121 39.4267C285.245 39.0183 285.408 38.6655 285.61 38.3685C285.816 38.0673 286.068 37.8342 286.365 37.6692C286.666 37.5042 287.019 37.4217 287.423 37.4217C287.848 37.4217 288.221 37.5021 288.543 37.663C288.869 37.8239 289.141 38.055 289.36 38.3561C289.583 38.6573 289.75 39.0162 289.861 39.4329C289.977 39.8496 290.035 40.3116 290.035 40.8191ZM288.246 40.949V40.8191C288.246 40.5344 288.221 40.2724 288.172 40.0332C288.127 39.7898 288.052 39.5773 287.949 39.3958C287.85 39.2142 287.718 39.074 287.553 38.975C287.392 38.8718 287.196 38.8202 286.965 38.8202C286.722 38.8202 286.514 38.8594 286.34 38.9378C286.171 39.0162 286.033 39.1297 285.926 39.2782C285.818 39.4267 285.738 39.6041 285.684 39.8104C285.631 40.0167 285.598 40.2497 285.585 40.5097V41.3698C285.606 41.6751 285.664 41.9495 285.759 42.1929C285.853 42.4322 286 42.6219 286.198 42.7622C286.396 42.9025 286.656 42.9726 286.978 42.9726C287.213 42.9726 287.411 42.921 287.572 42.8179C287.733 42.7106 287.863 42.5642 287.962 42.3785C288.065 42.1929 288.137 41.9784 288.178 41.7349C288.224 41.4915 288.246 41.2296 288.246 40.949ZM292.925 39.0059V44.2412H291.142V37.5455H292.819L292.925 39.0059ZM294.942 37.5021L294.911 39.1544C294.824 39.142 294.719 39.1317 294.595 39.1235C294.476 39.1111 294.366 39.1049 294.267 39.1049C294.016 39.1049 293.797 39.1379 293.611 39.2039C293.43 39.2658 293.277 39.3586 293.154 39.4824C293.034 39.6062 292.943 39.7567 292.881 39.9341C292.824 40.1115 292.791 40.3137 292.782 40.5406L292.423 40.4292C292.423 39.996 292.467 39.5979 292.553 39.2349C292.64 38.8677 292.766 38.548 292.931 38.2757C293.1 38.0034 293.306 37.793 293.55 37.6445C293.793 37.496 294.071 37.4217 294.385 37.4217C294.484 37.4217 294.585 37.4299 294.688 37.4464C294.791 37.4588 294.876 37.4774 294.942 37.5021ZM295.313 40.9614V40.8315C295.313 40.3405 295.383 39.8888 295.524 39.4762C295.664 39.0595 295.868 38.6985 296.136 38.3933C296.404 38.088 296.735 37.8507 297.126 37.6816C297.518 37.5083 297.968 37.4217 298.476 37.4217C298.983 37.4217 299.435 37.5083 299.831 37.6816C300.227 37.8507 300.559 38.088 300.827 38.3933C301.099 38.6985 301.306 39.0595 301.446 39.4762C301.586 39.8888 301.656 40.3405 301.656 40.8315V40.9614C301.656 41.4482 301.586 41.9 301.446 42.3166C301.306 42.7292 301.099 43.0902 300.827 43.3996C300.559 43.7049 300.229 43.9421 299.837 44.1113C299.445 44.2804 298.995 44.365 298.488 44.365C297.98 44.365 297.529 44.2804 297.133 44.1113C296.741 43.9421 296.409 43.7049 296.136 43.3996C295.868 43.0902 295.664 42.7292 295.524 42.3166C295.383 41.9 295.313 41.4482 295.313 40.9614ZM297.096 40.8315V40.9614C297.096 41.2419 297.12 41.5039 297.17 41.7473C297.219 41.9907 297.298 42.2053 297.405 42.3909C297.516 42.5724 297.661 42.7148 297.838 42.8179C298.016 42.921 298.232 42.9726 298.488 42.9726C298.735 42.9726 298.948 42.921 299.125 42.8179C299.303 42.7148 299.445 42.5724 299.552 42.3909C299.66 42.2053 299.738 41.9907 299.787 41.7473C299.841 41.5039 299.868 41.2419 299.868 40.9614V40.8315C299.868 40.5592 299.841 40.3034 299.787 40.0641C299.738 39.8207 299.657 39.6062 299.546 39.4205C299.439 39.2307 299.297 39.0822 299.119 38.975C298.942 38.8677 298.727 38.8141 298.476 38.8141C298.224 38.8141 298.009 38.8677 297.832 38.975C297.659 39.0822 297.516 39.2307 297.405 39.4205C297.298 39.6062 297.219 39.8207 297.17 40.0641C297.12 40.3034 297.096 40.5592 297.096 40.8315ZM302.752 34.736H304.534V42.7065L304.354 44.2412H302.752V34.736ZM308.773 40.8253V40.9552C308.773 41.4544 308.719 41.9123 308.612 42.329C308.509 42.7457 308.348 43.1067 308.129 43.412C307.911 43.7131 307.638 43.9483 307.312 44.1174C306.991 44.2825 306.611 44.365 306.174 44.365C305.765 44.365 305.411 44.2825 305.109 44.1174C304.812 43.9524 304.563 43.7193 304.361 43.4182C304.158 43.117 303.995 42.7643 303.872 42.36C303.748 41.9557 303.655 41.5142 303.593 41.0357V40.751C303.655 40.2724 303.748 39.831 303.872 39.4267C303.995 39.0224 304.158 38.6697 304.361 38.3685C304.563 38.0673 304.812 37.8342 305.109 37.6692C305.406 37.5042 305.757 37.4217 306.161 37.4217C306.603 37.4217 306.987 37.5063 307.312 37.6754C307.642 37.8404 307.915 38.0756 308.129 38.3809C308.348 38.682 308.509 39.041 308.612 39.4576C308.719 39.8702 308.773 40.3261 308.773 40.8253ZM306.991 40.9552V40.8253C306.991 40.553 306.97 40.2972 306.929 40.0579C306.892 39.8145 306.826 39.602 306.731 39.4205C306.636 39.2349 306.506 39.0884 306.341 38.9811C306.18 38.8739 305.972 38.8202 305.716 38.8202C305.472 38.8202 305.266 38.8615 305.097 38.944C304.928 39.0265 304.788 39.142 304.676 39.2906C304.569 39.4391 304.488 39.6165 304.435 39.8228C304.381 40.0249 304.348 40.2477 304.336 40.4911V41.3018C304.348 41.6277 304.402 41.9165 304.497 42.1681C304.596 42.4157 304.744 42.6116 304.942 42.756C305.144 42.8963 305.406 42.9664 305.728 42.9664C305.98 42.9664 306.188 42.9169 306.353 42.8179C306.518 42.7189 306.646 42.5786 306.737 42.3971C306.832 42.2156 306.898 42.0031 306.935 41.7597C306.972 41.5122 306.991 41.244 306.991 40.9552ZM311.762 34.736V44.2412H309.973V34.736H311.762ZM316.316 44.365C315.797 44.365 315.33 44.2825 314.918 44.1174C314.505 43.9483 314.155 43.7152 313.866 43.4182C313.581 43.1211 313.363 42.7766 313.21 42.3847C313.057 41.9887 312.981 41.5679 312.981 41.1223V40.8748C312.981 40.3673 313.053 39.9032 313.198 39.4824C313.342 39.0616 313.548 38.6965 313.816 38.3871C314.089 38.0777 314.419 37.8404 314.806 37.6754C315.194 37.5063 315.632 37.4217 316.118 37.4217C316.593 37.4217 317.014 37.5001 317.381 37.6568C317.748 37.8136 318.055 38.0364 318.303 38.3252C318.555 38.614 318.744 38.9605 318.872 39.3648C319 39.765 319.064 40.2106 319.064 40.7015V41.4441H313.742V40.2559H317.313V40.1198C317.313 39.8723 317.267 39.6515 317.177 39.4576C317.09 39.2596 316.958 39.1028 316.781 38.9873C316.603 38.8718 316.376 38.8141 316.1 38.8141C315.865 38.8141 315.663 38.8656 315.493 38.9688C315.324 39.0719 315.186 39.2163 315.079 39.402C314.976 39.5876 314.897 39.8063 314.844 40.0579C314.794 40.3054 314.769 40.5777 314.769 40.8748V41.1223C314.769 41.3905 314.806 41.638 314.881 41.8649C314.959 42.0918 315.068 42.2878 315.209 42.4528C315.353 42.6178 315.526 42.7457 315.729 42.8365C315.935 42.9272 316.168 42.9726 316.428 42.9726C316.75 42.9726 317.049 42.9107 317.325 42.787C317.606 42.6591 317.847 42.4672 318.049 42.2114L318.916 43.1521C318.775 43.3542 318.583 43.5481 318.34 43.7338C318.101 43.9194 317.812 44.0721 317.474 44.1917C317.135 44.3072 316.75 44.365 316.316 44.365ZM321.861 38.9316V44.2412H320.073V37.5455H321.75L321.861 38.9316ZM321.614 40.6582H321.119C321.119 40.192 321.174 39.7629 321.286 39.371C321.401 38.975 321.568 38.6325 321.787 38.3437C322.01 38.0508 322.284 37.8239 322.61 37.663C322.936 37.5021 323.313 37.4217 323.742 37.4217C324.039 37.4217 324.312 37.4671 324.559 37.5578C324.807 37.6445 325.019 37.7827 325.197 37.9725C325.378 38.1581 325.518 38.4015 325.617 38.7027C325.716 38.9997 325.766 39.3566 325.766 39.7732V44.2412H323.984V39.9713C323.984 39.666 323.942 39.4308 323.86 39.2658C323.777 39.1008 323.66 38.9853 323.507 38.9193C323.359 38.8533 323.179 38.8202 322.969 38.8202C322.738 38.8202 322.536 38.8677 322.362 38.9626C322.193 39.0575 322.053 39.1895 321.942 39.3586C321.83 39.5237 321.748 39.7176 321.694 39.9403C321.64 40.1631 321.614 40.4024 321.614 40.6582ZM325.599 40.454L324.961 40.5344C324.961 40.0971 325.015 39.6907 325.122 39.3153C325.234 38.9399 325.397 38.6098 325.611 38.3252C325.83 38.0405 326.1 37.8198 326.422 37.663C326.744 37.5021 327.115 37.4217 327.536 37.4217C327.858 37.4217 328.151 37.4691 328.415 37.564C328.679 37.6548 328.903 37.8012 329.089 38.0034C329.279 38.2014 329.423 38.4613 329.522 38.7831C329.625 39.1049 329.677 39.4989 329.677 39.9651V44.2412H327.889V39.9651C327.889 39.6557 327.847 39.4205 327.765 39.2596C327.686 39.0946 327.571 38.9811 327.418 38.9193C327.27 38.8533 327.092 38.8202 326.886 38.8202C326.672 38.8202 326.484 38.8636 326.323 38.9502C326.162 39.0327 326.028 39.1482 325.921 39.2967C325.813 39.4453 325.733 39.6185 325.679 39.8166C325.626 40.0105 325.599 40.2229 325.599 40.454ZM332.746 42.7375L332.74 43.9318C332.74 44.3897 332.625 44.8518 332.394 45.318C332.167 45.7842 331.878 46.1658 331.527 46.4628L330.599 45.9863C330.702 45.7965 330.803 45.6068 330.902 45.417C331.001 45.2272 331.084 45.0189 331.15 44.792C331.216 44.5651 331.249 44.3072 331.249 44.0184V42.7375H332.746ZM339.417 35.231V44.2412H337.567V35.231H339.417ZM258.394 56.5085L259.786 51.5455H260.919L260.554 53.4948L259.161 58.2412H258.214L258.394 56.5085ZM257.688 51.5455L258.685 56.5023L258.777 58.2412H257.664L255.968 51.5455H257.688ZM262.193 56.4218L263.165 51.5455H264.892L263.196 58.2412H262.088L262.193 56.4218ZM261.073 51.5455L262.46 56.4714L262.651 58.2412H261.698L260.306 53.501L259.953 51.5455H261.073ZM267.67 51.5455V58.2412H265.882V51.5455H267.67ZM265.77 49.8004C265.77 49.5404 265.861 49.3259 266.043 49.1568C266.224 48.9876 266.467 48.903 266.773 48.903C267.074 48.903 267.315 48.9876 267.497 49.1568C267.682 49.3259 267.775 49.5404 267.775 49.8004C267.775 50.0603 267.682 50.2748 267.497 50.4439C267.315 50.6131 267.074 50.6977 266.773 50.6977C266.467 50.6977 266.224 50.6131 266.043 50.4439C265.861 50.2748 265.77 50.0603 265.77 49.8004ZM271.024 48.736V58.2412H269.236V48.736H271.024ZM274.378 48.736V58.2412H272.59V48.736H274.378ZM281.235 58.2412H279.446V51.2422C279.446 50.6729 279.562 50.1923 279.793 49.8004C280.028 49.4084 280.362 49.1114 280.796 48.9092C281.233 48.7071 281.761 48.606 282.38 48.606C282.73 48.606 283.071 48.6411 283.401 48.7112C283.731 48.7772 284.071 48.8639 284.422 48.9711L284.162 50.4006C283.935 50.3305 283.692 50.2645 283.432 50.2026C283.172 50.1407 282.858 50.1098 282.491 50.1098C282.079 50.1098 281.765 50.2067 281.55 50.4006C281.34 50.5904 281.235 50.8709 281.235 51.2422V58.2412ZM282.565 51.5455V52.8079H278.45V51.5455H282.565ZM285.251 51.5455V58.2412H283.463V51.5455H285.251ZM290.981 51.5455H292.597V58.0184C292.597 58.629 292.46 59.1468 292.188 59.5717C291.92 60.0008 291.545 60.3246 291.062 60.5433C290.579 60.766 290.018 60.8774 289.379 60.8774C289.098 60.8774 288.801 60.8403 288.488 60.766C288.178 60.6918 287.881 60.5763 287.596 60.4195C287.316 60.2627 287.081 60.0647 286.891 59.8254L287.677 58.7734C287.883 59.0127 288.122 59.1983 288.395 59.3304C288.667 59.4665 288.968 59.5346 289.298 59.5346C289.62 59.5346 289.892 59.4747 290.115 59.3551C290.338 59.2396 290.509 59.0684 290.629 58.8415C290.748 58.6187 290.808 58.3485 290.808 58.0308V53.0925L290.981 51.5455ZM286.476 54.9738V54.8438C286.476 54.3323 286.538 53.8681 286.662 53.4515C286.79 53.0307 286.969 52.6697 287.2 52.3685C287.436 52.0673 287.72 51.8342 288.054 51.6692C288.389 51.5042 288.766 51.4217 289.187 51.4217C289.632 51.4217 290.006 51.5042 290.307 51.6692C290.608 51.8342 290.856 52.0694 291.05 52.3747C291.243 52.6759 291.394 53.0327 291.501 53.4453C291.613 53.8537 291.699 54.3013 291.761 54.7881V55.0728C291.699 55.539 291.606 55.9722 291.483 56.3723C291.359 56.7725 291.196 57.1232 290.994 57.4244C290.792 57.7214 290.54 57.9524 290.239 58.1174C289.942 58.2825 289.587 58.365 289.174 58.365C288.762 58.365 288.389 58.2804 288.054 58.1113C287.724 57.9421 287.442 57.7049 287.207 57.3996C286.971 57.0943 286.79 56.7354 286.662 56.3228C286.538 55.9103 286.476 55.4606 286.476 54.9738ZM288.259 54.8438V54.9738C288.259 55.2502 288.285 55.508 288.339 55.7473C288.393 55.9866 288.475 56.1991 288.587 56.3847C288.702 56.5662 288.844 56.7086 289.014 56.8117C289.187 56.9107 289.391 56.9602 289.626 56.9602C289.952 56.9602 290.218 56.8922 290.425 56.756C290.631 56.6157 290.785 56.4239 290.889 56.1805C290.992 55.9371 291.052 55.6566 291.068 55.3389V54.5282C291.06 54.2683 291.025 54.0352 290.963 53.8289C290.901 53.6185 290.814 53.4391 290.703 53.2906C290.592 53.142 290.447 53.0265 290.27 52.944C290.092 52.8615 289.882 52.8202 289.639 52.8202C289.403 52.8202 289.199 52.8739 289.026 52.9811C288.857 53.0843 288.714 53.2266 288.599 53.4081C288.488 53.5897 288.403 53.8042 288.345 54.0517C288.287 54.2951 288.259 54.5592 288.259 54.8438ZM295.722 48.736V58.2412H293.939V48.736H295.722ZM295.468 54.6582H294.979C294.983 54.192 295.045 53.7629 295.165 53.371C295.284 52.975 295.456 52.6325 295.678 52.3437C295.901 52.0508 296.167 51.8239 296.477 51.663C296.79 51.5021 297.137 51.4217 297.516 51.4217C297.846 51.4217 298.145 51.4691 298.414 51.564C298.686 51.6548 298.919 51.8033 299.113 52.0096C299.311 52.2117 299.464 52.4778 299.571 52.8079C299.678 53.1379 299.732 53.5381 299.732 54.0084V58.2412H297.937V53.996C297.937 53.699 297.894 53.4659 297.807 53.2967C297.725 53.1235 297.603 53.0018 297.442 52.9316C297.285 52.8574 297.091 52.8202 296.86 52.8202C296.605 52.8202 296.386 52.8677 296.204 52.9626C296.027 53.0575 295.885 53.1895 295.777 53.3586C295.67 53.5237 295.592 53.7176 295.542 53.9403C295.493 54.1631 295.468 54.4024 295.468 54.6582ZM304.367 51.5455V52.8079H300.468V51.5455H304.367ZM301.434 49.8932H303.216V56.2238C303.216 56.4177 303.241 56.5662 303.29 56.6694C303.344 56.7725 303.422 56.8447 303.525 56.886C303.628 56.9231 303.758 56.9417 303.915 56.9417C304.026 56.9417 304.125 56.9375 304.212 56.9293C304.303 56.9169 304.379 56.9045 304.441 56.8922L304.447 58.2041C304.295 58.2536 304.13 58.2928 303.952 58.3217C303.775 58.3505 303.579 58.365 303.364 58.365C302.972 58.365 302.63 58.301 302.337 58.1731C302.048 58.0411 301.825 57.8307 301.669 57.5419C301.512 57.2531 301.434 56.8736 301.434 56.4033V49.8932Z" fill="#084943"/>
<path d="M234.111 255.139C246.511 257.129 242.088 243.534 240.273 236.488H235.368L234.111 255.139Z" fill="#FDB082"/>
<path d="M170.306 259.672C168.196 258.896 168.328 252.877 168.657 249.964C168.808 247.117 163.666 248.778 161.076 249.964C161.625 251.151 162.394 255.207 161.076 261.938C159.427 270.351 163.383 273.264 170.306 275.853C177.228 278.441 168.657 264.203 170.306 265.174C171.954 266.144 179.206 270.675 177.228 266.468C175.25 262.261 172.943 260.643 170.306 259.672Z" fill="#FDB082"/>
<path d="M245.767 253.6C246.164 249.83 243.453 246.904 242.047 245.912C241.551 247.152 240.857 249.88 242.047 250.872C243.535 252.112 245.271 258.312 245.767 253.6Z" fill="#FDB082"/>
<defs>
<clipPath id="clip0_53_60059">
<rect width="433.502" height="364.062" fill="white" transform="translate(0 17.7529)"/>
</clipPath>
</defs>
</svg>
