<svg width="555" height="486" viewBox="0 0 555 486" fill="none" xmlns="http://www.w3.org/2000/svg">
<mask id="mask0_53_60410" style="mask-type:luminance" maskUnits="userSpaceOnUse" x="344" y="138" width="211" height="45">
<path d="M381.737 175.768C381.737 175.768 398.116 156.997 422.01 156.997C422.01 156.997 422.804 142.411 439.11 139.26C455.417 136.11 458.58 150.672 458.58 150.672C458.58 150.672 470.605 144.287 486.816 150.672C503.026 157.057 499.707 175.72 499.707 175.72C499.707 175.72 546.39 174.193 554.399 182.742H344.614C344.614 182.742 348.847 172.281 381.737 175.768Z" fill="white"/>
</mask>
<g mask="url(#mask0_53_60410)">
<path opacity="0.5" d="M381.737 175.768C381.737 175.768 398.116 156.997 422.01 156.997C422.01 156.997 422.804 142.411 439.11 139.26C455.417 136.11 458.58 150.672 458.58 150.672C458.58 150.672 470.605 144.287 486.816 150.672C503.026 157.057 499.707 175.72 499.707 175.72C499.707 175.72 546.39 174.193 554.399 182.742H344.614C344.614 182.742 348.847 172.281 381.737 175.768Z" stroke="#263238" stroke-width="0.738032" stroke-linecap="round" stroke-linejoin="round"/>
</g>
<path d="M381.737 175.768C381.737 175.768 398.116 156.997 422.01 156.997C422.01 156.997 422.804 142.411 439.11 139.26C455.417 136.11 458.58 150.672 458.58 150.672C458.58 150.672 470.605 144.287 486.816 150.672C503.026 157.057 499.707 175.72 499.707 175.72C499.707 175.72 546.39 174.193 554.399 182.742H344.614C344.614 182.742 348.847 172.281 381.737 175.768Z" fill="#CDF3FF"/>
<mask id="mask1_53_60410" style="mask-type:luminance" maskUnits="userSpaceOnUse" x="19" y="25" width="211" height="45">
<path d="M56.7843 62.9263C56.7843 62.9263 73.1631 44.1555 97.0457 44.1555C97.0457 44.1555 97.8393 29.5693 114.146 26.4308C130.452 23.2923 133.627 37.8304 133.627 37.8304C133.627 37.8304 145.653 31.4452 161.851 37.8304C178.049 44.2156 174.754 62.8782 174.754 62.8782C174.754 62.8782 221.425 61.3511 229.434 69.9128H19.6497C19.6497 69.9128 23.8826 59.4391 56.7843 62.9263Z" fill="white"/>
</mask>
<g mask="url(#mask1_53_60410)">
<path opacity="0.5" d="M56.7843 62.9263C56.7843 62.9263 73.1631 44.1555 97.0457 44.1555C97.0457 44.1555 97.8393 29.5693 114.146 26.4308C130.452 23.2923 133.627 37.8304 133.627 37.8304C133.627 37.8304 145.653 31.4452 161.851 37.8304C178.049 44.2156 174.754 62.8782 174.754 62.8782C174.754 62.8782 221.425 61.3511 229.434 69.9128H19.6497C19.6497 69.9128 23.8826 59.4391 56.7843 62.9263Z" stroke="#263238" stroke-width="0.738032" stroke-linecap="round" stroke-linejoin="round"/>
</g>
<path d="M56.7843 62.9263C56.7843 62.9263 73.1631 44.1555 97.0457 44.1555C97.0457 44.1555 97.8393 29.5693 114.146 26.4308C130.452 23.2923 133.627 37.8304 133.627 37.8304C133.627 37.8304 145.653 31.4452 161.851 37.8304C178.049 44.2156 174.754 62.8782 174.754 62.8782C174.754 62.8782 221.425 61.3511 229.434 69.9128H19.6497C19.6497 69.9128 23.8826 59.4391 56.7843 62.9263Z" fill="#CDF3FF"/>
<mask id="mask2_53_60410" style="mask-type:luminance" maskUnits="userSpaceOnUse" x="295" y="274" width="168" height="36">
<path d="M433.134 303.953C433.134 303.953 420.062 288.982 401.014 288.982C401.014 288.982 400.376 277.354 387.377 274.841C374.377 272.328 371.84 283.944 371.84 283.944C371.84 283.944 362.22 278.845 349.328 283.944C336.437 289.043 339.034 303.917 339.034 303.917C339.034 303.917 301.755 302.715 295.418 309.533H462.704C462.704 309.533 459.361 301.176 433.134 303.953Z" fill="white"/>
</mask>
<g mask="url(#mask2_53_60410)">
<path opacity="0.5" d="M433.134 303.953C433.134 303.953 420.062 288.982 401.014 288.982C401.014 288.982 400.376 277.354 387.377 274.841C374.377 272.328 371.84 283.944 371.84 283.944C371.84 283.944 362.22 278.845 349.328 283.944C336.437 289.043 339.034 303.917 339.034 303.917C339.034 303.917 301.755 302.715 295.418 309.533H462.704C462.704 309.533 459.361 301.176 433.134 303.953Z" stroke="#263238" stroke-width="0.738032" stroke-linecap="round" stroke-linejoin="round"/>
</g>
<path d="M433.134 303.953C433.134 303.953 420.062 288.982 401.014 288.982C401.014 288.982 400.376 277.354 387.377 274.841C374.377 272.328 371.84 283.944 371.84 283.944C371.84 283.944 362.22 278.845 349.328 283.944C336.437 289.043 339.034 303.917 339.034 303.917C339.034 303.917 301.755 302.715 295.418 309.533H462.704C462.704 309.533 459.361 301.176 433.134 303.953Z" fill="#CDF3FF"/>
<mask id="mask3_53_60410" style="mask-type:luminance" maskUnits="userSpaceOnUse" x="0" y="236" width="168" height="36">
<path d="M138.341 265.714C138.341 265.714 125.269 250.743 106.221 250.743C106.221 250.743 105.584 239.103 92.584 236.602C79.5844 234.1 77.0471 245.692 77.0471 245.692C77.0471 245.692 67.4267 240.606 54.5354 245.692C41.644 250.779 44.2175 265.678 44.2175 265.678C44.2175 265.678 6.9385 264.475 0.601074 271.281H167.948C167.948 271.281 164.569 262.936 138.341 265.714Z" fill="white"/>
</mask>
<g mask="url(#mask3_53_60410)">
<path opacity="0.5" d="M138.341 265.714C138.341 265.714 125.269 250.743 106.221 250.743C106.221 250.743 105.584 239.103 92.584 236.602C79.5844 234.1 77.0471 245.692 77.0471 245.692C77.0471 245.692 67.4267 240.606 54.5354 245.692C41.644 250.779 44.2175 265.678 44.2175 265.678C44.2175 265.678 6.9385 264.475 0.601074 271.281H167.948C167.948 271.281 164.569 262.936 138.341 265.714Z" stroke="#263238" stroke-width="0.738032" stroke-linecap="round" stroke-linejoin="round"/>
</g>
<path d="M138.341 265.714C138.341 265.714 125.269 250.743 106.221 250.743C106.221 250.743 105.584 239.103 92.584 236.602C79.5844 234.1 77.0471 245.692 77.0471 245.692C77.0471 245.692 67.4267 240.606 54.5354 245.692C41.644 250.779 44.2175 265.678 44.2175 265.678C44.2175 265.678 6.9385 264.475 0.601074 271.281H167.948C167.948 271.281 164.569 262.936 138.341 265.714Z" fill="white"/>
<mask id="mask4_53_60410" style="mask-type:luminance" maskUnits="userSpaceOnUse" x="162" y="187" width="100" height="22">
<path d="M179.684 205.289C179.684 205.289 187.453 196.391 198.769 196.391C199.202 192.05 202.545 188.574 206.862 187.973C214.594 186.482 216.098 193.372 216.098 193.372C220.367 191.521 225.201 191.521 229.47 193.372C237.13 196.391 235.579 205.241 235.579 205.241C235.579 205.241 257.694 204.507 261.482 208.572H162.067C162.067 208.572 164.111 203.63 179.684 205.289Z" fill="white"/>
</mask>
<g mask="url(#mask4_53_60410)">
<path opacity="0.5" d="M179.684 205.289C179.684 205.289 187.453 196.391 198.769 196.391C199.202 192.05 202.545 188.574 206.862 187.973C214.594 186.482 216.098 193.372 216.098 193.372C220.367 191.521 225.201 191.521 229.47 193.372C237.13 196.391 235.579 205.241 235.579 205.241C235.579 205.241 257.694 204.507 261.482 208.572H162.067C162.067 208.572 164.111 203.63 179.684 205.289Z" stroke="#263238" stroke-width="0.738032" stroke-linecap="round" stroke-linejoin="round"/>
</g>
<path d="M179.684 205.289C179.684 205.289 187.453 196.391 198.769 196.391C199.202 192.05 202.545 188.574 206.862 187.973C214.594 186.482 216.098 193.372 216.098 193.372C220.367 191.521 225.201 191.521 229.47 193.372C237.13 196.391 235.579 205.241 235.579 205.241C235.579 205.241 257.694 204.507 261.482 208.572H162.067C162.067 208.572 164.111 203.63 179.684 205.289Z" fill="#CDF3FF"/>
<path d="M277.512 99.4659C234.485 103.807 186.395 113.475 186.395 113.475L179.985 111.815C210.554 99.7905 277.512 82.126 277.512 82.126C277.512 82.126 344.47 99.8026 375.038 111.815L368.629 113.475C368.629 113.475 320.539 103.807 277.512 99.4659Z" fill="white"/>
<mask id="mask5_53_60410" style="mask-type:luminance" maskUnits="userSpaceOnUse" x="179" y="81" width="197" height="33">
<path d="M277.512 99.2618C234.485 103.603 186.395 113.271 186.395 113.271L179.985 111.611C210.554 99.5864 277.512 81.9219 277.512 81.9219C277.512 81.9219 344.47 99.5985 375.038 111.611L368.629 113.271C368.629 113.271 320.539 103.603 277.512 99.2618Z" fill="white"/>
</mask>
<g mask="url(#mask5_53_60410)">
<path opacity="0.2" d="M373.295 112.068L368.629 113.27C368.629 113.27 320.527 103.651 277.512 99.2615C234.485 103.59 186.395 113.27 186.395 113.27L181.729 112.068C218.587 100.175 277.512 85.7214 277.512 85.7214C277.512 85.7214 336.437 100.175 373.295 112.068Z" fill="black" fill-opacity="0.7"/>
</g>
<path d="M277.512 99.4659C234.485 103.807 186.395 113.475 186.395 113.475L179.985 111.815C210.554 99.7905 277.512 82.126 277.512 82.126C277.512 82.126 344.47 99.8026 375.038 111.815L368.629 113.475C368.629 113.475 320.539 103.807 277.512 99.4659Z" stroke="#263238" stroke-width="0.738032" stroke-linecap="round" stroke-linejoin="round"/>
<path d="M356.724 107.198C361.017 108.581 365.033 109.963 368.629 111.298" stroke="#263238" stroke-width="0.738032" stroke-linecap="round" stroke-linejoin="round"/>
<path d="M286.423 88.0422C301.022 91.5776 330.689 98.9849 353.766 106.248" stroke="#263238" stroke-width="0.738032" stroke-linecap="round" stroke-linejoin="round"/>
<path d="M212.755 103.085C235.05 96.6036 266.87 87.609 277.512 85.9255" stroke="#263238" stroke-width="0.738032" stroke-linecap="round" stroke-linejoin="round"/>
<path d="M196.424 107.871L207.475 104.625" stroke="#263238" stroke-width="0.738032" stroke-linecap="round" stroke-linejoin="round"/>
<path d="M189.594 109.903L191.854 109.23" stroke="#263238" stroke-width="0.738032" stroke-linecap="round" stroke-linejoin="round"/>
<path d="M314.189 139.316C314.189 139.316 426.471 157.065 538.044 180.465C535.975 182.702 533.089 184.013 530.035 184.073C524.527 184.397 425.413 176.401 328.404 171.892L314.189 139.316Z" fill="white"/>
<mask id="mask6_53_60410" style="mask-type:luminance" maskUnits="userSpaceOnUse" x="314" y="139" width="225" height="46">
<path d="M314.189 139.316C314.189 139.316 426.471 157.065 538.044 180.465C535.975 182.702 533.089 184.013 530.035 184.073C524.527 184.397 425.413 176.401 328.404 171.892L314.189 139.316Z" fill="white"/>
</mask>
<g mask="url(#mask6_53_60410)">
<path opacity="0.2" d="M320.371 161.146L328.392 179.52C425.462 184.018 524.527 192.026 530.035 191.69C531.286 191.617 532.524 191.365 533.715 190.956C532.837 189.874 531.622 189.116 530.264 188.804C513.428 184.859 431.318 166.341 321.405 153.51L320.371 161.146Z" fill="black" fill-opacity="0.7"/>
</g>
<path d="M314.189 139.316C314.189 139.316 426.471 157.065 538.044 180.465C535.975 182.702 533.089 184.013 530.035 184.073C524.527 184.397 425.413 176.401 328.404 171.892L314.189 139.316Z" stroke="#263238" stroke-width="0.738032" stroke-linecap="round" stroke-linejoin="round"/>
<path d="M345.251 172.637C345.251 172.637 351.421 167.899 353.248 166.685C355.076 165.47 354.247 180.706 350.915 181.848C347.584 182.991 345.251 172.637 345.251 172.637Z" fill="white" stroke="#263238" stroke-width="0.738032" stroke-linecap="round" stroke-linejoin="round"/>
<path d="M416.298 176.665C416.298 176.665 420.627 172.072 421.794 172.204C422.96 172.336 420.976 184.458 419.052 184.734C417.128 185.011 416.298 176.665 416.298 176.665Z" fill="white" stroke="#263238" stroke-width="0.738032" stroke-linecap="round" stroke-linejoin="round"/>
<path d="M240.834 139.316C240.834 139.316 128.552 157.065 16.9797 180.465C19.0481 182.702 21.9342 184.013 24.9887 184.073C30.4964 184.397 129.61 176.401 226.62 171.892L240.834 139.316Z" fill="white"/>
<mask id="mask7_53_60410" style="mask-type:luminance" maskUnits="userSpaceOnUse" x="54" y="149" width="183" height="37">
<path d="M236.17 149.557C236.17 149.557 145.104 163.811 54.614 182.604C56.2916 184.4 58.6323 185.453 61.1096 185.501C65.5766 185.762 145.962 179.34 224.642 175.719L236.17 149.557Z" fill="white"/>
</mask>
<g mask="url(#mask7_53_60410)">
<path opacity="0.2" d="M273.87 148.609L264.101 170.985C145.932 176.462 25.2431 186.215 18.5211 185.805C16.9981 185.717 15.4896 185.409 14.0398 184.912C15.1089 183.594 16.588 182.671 18.2429 182.29C38.7457 177.487 138.741 154.935 272.595 139.31L273.87 148.609Z" fill="black" fill-opacity="0.7"/>
</g>
<path d="M209.772 172.637C209.772 172.637 203.603 167.899 201.776 166.685C199.948 165.47 200.777 180.706 204.108 181.848C207.44 182.991 209.772 172.637 209.772 172.637Z" fill="white" stroke="#263238" stroke-width="0.738032" stroke-linecap="round" stroke-linejoin="round"/>
<path d="M138.726 176.665C138.726 176.665 134.397 172.072 133.23 172.204C132.064 172.336 134.048 184.458 135.972 184.734C137.896 185.011 138.726 176.665 138.726 176.665Z" fill="white" stroke="#263238" stroke-width="0.738032" stroke-linecap="round" stroke-linejoin="round"/>
<path d="M335.992 152.964L326.179 151.858" stroke="#263238" stroke-width="0.738032" stroke-linecap="round" stroke-linejoin="round"/>
<path d="M349.087 154.6L340.886 153.602" stroke="#263238" stroke-width="0.738032" stroke-linecap="round" stroke-linejoin="round"/>
<path d="M503.879 177.724C454.575 169.679 404.068 162.464 354.836 155.261" stroke="#263238" stroke-width="0.738032" stroke-linecap="round" stroke-linejoin="round"/>
<path d="M515.424 179.527L509.604 178.65" stroke="#263238" stroke-width="0.738032" stroke-linecap="round" stroke-linejoin="round"/>
<path d="M526.319 183.724C526.812 183.015 527.317 182.317 527.822 181.608L521.738 180.586" stroke="#263238" stroke-width="0.738032" stroke-linecap="round" stroke-linejoin="round"/>
<path d="M396.258 196.256C406.709 192.217 411.907 180.47 407.868 170.02C403.829 159.569 392.082 154.371 381.631 158.41C371.18 162.449 365.982 174.195 370.021 184.646C374.06 195.097 385.807 200.294 396.258 196.256Z" fill="white" stroke="#263238" stroke-width="0.738032" stroke-linecap="round" stroke-linejoin="round"/>
<path d="M384.418 161.43C392.151 158.255 401.002 161.947 404.176 169.691C407.351 177.423 403.659 186.273 395.915 189.448C388.182 192.622 379.332 188.931 376.157 181.187C372.994 173.455 376.686 164.604 384.418 161.43Z" fill="#263238"/>
<g opacity="0.5">
<path d="M389.469 174.369C389.469 174.369 390.792 169.379 395.374 169.282" stroke="white" stroke-width="0.738032" stroke-linecap="round" stroke-linejoin="round"/>
<path d="M387.581 179.648C387.581 179.648 386.258 184.626 381.677 184.734" stroke="white" stroke-width="0.738032" stroke-linecap="round" stroke-linejoin="round"/>
<path d="M391.153 177.952C391.153 177.952 396.143 179.275 396.251 183.857" stroke="white" stroke-width="0.738032" stroke-linecap="round" stroke-linejoin="round"/>
<path d="M385.886 176.064C385.886 176.064 380.895 174.742 380.799 170.16" stroke="white" stroke-width="0.738032" stroke-linecap="round" stroke-linejoin="round"/>
<path d="M391.056 175.812C391.056 175.812 395.518 173.215 398.825 176.389" stroke="white" stroke-width="0.738032" stroke-linecap="round" stroke-linejoin="round"/>
<path d="M385.994 178.205C385.994 178.205 381.532 180.79 378.213 177.628" stroke="white" stroke-width="0.738032" stroke-linecap="round" stroke-linejoin="round"/>
<path d="M389.722 179.539C389.722 179.539 392.307 184.001 389.145 187.307" stroke="white" stroke-width="0.738032" stroke-linecap="round" stroke-linejoin="round"/>
<path d="M387.328 174.477C387.328 174.477 384.731 170.016 387.893 166.697" stroke="white" stroke-width="0.738032" stroke-linecap="round" stroke-linejoin="round"/>
<path d="M383.336 163.871C383.336 163.871 390.72 159.494 397.394 164.364C405.535 170.304 403.094 180.249 401.001 183.424" stroke="white" stroke-width="0.738032" stroke-linecap="round" stroke-linejoin="round"/>
</g>
<path d="M457.533 204.335C467.661 204.335 475.872 196.125 475.872 185.997C475.872 175.869 467.661 167.659 457.533 167.659C447.405 167.659 439.194 175.869 439.194 185.997C439.194 196.125 447.405 204.335 457.533 204.335Z" fill="white" stroke="#263238" stroke-width="0.738032" stroke-linecap="round" stroke-linejoin="round"/>
<path d="M462.573 197.454C469.832 195.325 473.99 187.715 471.861 180.456C469.731 173.197 462.12 169.039 454.861 171.168C447.602 173.298 443.444 180.908 445.573 188.167C447.703 195.426 455.314 199.584 462.573 197.454Z" fill="#263238"/>
<g opacity="0.5">
<path d="M458.038 183.328C458.038 183.328 459.241 178.818 463.378 178.722" stroke="white" stroke-width="0.738032" stroke-linecap="round" stroke-linejoin="round"/>
<path d="M456.331 188.102C456.331 188.102 455.128 192.611 450.991 192.707" stroke="white" stroke-width="0.738032" stroke-linecap="round" stroke-linejoin="round"/>
<path d="M459.565 186.562C459.565 186.562 464.075 187.765 464.171 191.913" stroke="white" stroke-width="0.738032" stroke-linecap="round" stroke-linejoin="round"/>
<path d="M454.803 184.867C454.803 184.867 450.282 183.664 450.198 179.528" stroke="white" stroke-width="0.738032" stroke-linecap="round" stroke-linejoin="round"/>
<path d="M459.469 184.662C459.469 184.662 463.51 182.329 466.504 185.191" stroke="white" stroke-width="0.738032" stroke-linecap="round" stroke-linejoin="round"/>
<path d="M454.9 186.803C454.9 186.803 450.859 189.135 447.865 186.273" stroke="white" stroke-width="0.738032" stroke-linecap="round" stroke-linejoin="round"/>
<path d="M458.266 188.005C458.266 188.005 460.611 192.046 457.749 195.04" stroke="white" stroke-width="0.738032" stroke-linecap="round" stroke-linejoin="round"/>
<path d="M456.102 183.46C456.102 183.46 453.757 179.431 456.619 176.425" stroke="white" stroke-width="0.738032" stroke-linecap="round" stroke-linejoin="round"/>
<path d="M452.494 173.84C452.494 173.84 459.169 169.872 465.205 174.285C472.565 179.66 470.352 188.655 468.44 191.517" stroke="white" stroke-width="0.738032" stroke-linecap="round" stroke-linejoin="round"/>
</g>
<path d="M219.032 152.964L228.845 151.858" stroke="#263238" stroke-width="0.738032" stroke-linecap="round" stroke-linejoin="round"/>
<path d="M205.936 154.6L214.137 153.602" stroke="#263238" stroke-width="0.738032" stroke-linecap="round" stroke-linejoin="round"/>
<path d="M51.144 177.724C100.449 169.679 150.956 162.464 200.188 155.261" stroke="#263238" stroke-width="0.738032" stroke-linecap="round" stroke-linejoin="round"/>
<path d="M39.5996 179.527L45.4199 178.65" stroke="#263238" stroke-width="0.738032" stroke-linecap="round" stroke-linejoin="round"/>
<path d="M28.7046 183.724C28.2116 183.015 27.7065 182.317 27.2014 181.608L33.2863 180.586" stroke="#263238" stroke-width="0.738032" stroke-linecap="round" stroke-linejoin="round"/>
<path d="M183.134 188.356C189.231 178.956 186.552 166.394 177.152 160.299C167.751 154.203 155.189 156.881 149.093 166.281C142.997 175.681 145.675 188.242 155.075 194.338C164.476 200.434 177.038 197.756 183.134 188.356Z" fill="white" stroke="#263238" stroke-width="0.738032" stroke-linecap="round" stroke-linejoin="round"/>
<path d="M171.1 189.255C178.717 185.806 182.096 176.836 178.647 169.218C175.198 161.601 166.227 158.223 158.609 161.672C150.992 165.121 147.613 174.091 151.062 181.708C154.511 189.326 163.482 192.704 171.1 189.255Z" fill="#263238"/>
<g opacity="0.5">
<path d="M165.555 174.369C165.555 174.369 164.232 169.379 159.65 169.282" stroke="white" stroke-width="0.738032" stroke-linecap="round" stroke-linejoin="round"/>
<path d="M167.443 179.648C167.443 179.648 168.765 184.626 173.347 184.734" stroke="white" stroke-width="0.738032" stroke-linecap="round" stroke-linejoin="round"/>
<path d="M163.871 177.952C163.871 177.952 158.88 179.275 158.772 183.857" stroke="white" stroke-width="0.738032" stroke-linecap="round" stroke-linejoin="round"/>
<path d="M169.138 176.064C169.138 176.064 174.129 174.742 174.225 170.16" stroke="white" stroke-width="0.738032" stroke-linecap="round" stroke-linejoin="round"/>
<path d="M163.967 175.812C163.967 175.812 159.506 173.215 156.199 176.389" stroke="white" stroke-width="0.738032" stroke-linecap="round" stroke-linejoin="round"/>
<path d="M169.03 178.205C169.03 178.205 173.491 180.79 176.811 177.628" stroke="white" stroke-width="0.738032" stroke-linecap="round" stroke-linejoin="round"/>
<path d="M165.302 179.539C165.302 179.539 162.717 184.001 165.88 187.307" stroke="white" stroke-width="0.738032" stroke-linecap="round" stroke-linejoin="round"/>
<path d="M167.695 174.477C167.695 174.477 170.293 170.016 167.13 166.697" stroke="white" stroke-width="0.738032" stroke-linecap="round" stroke-linejoin="round"/>
<path d="M171.688 163.871C171.688 163.871 164.304 159.494 157.63 164.364C149.489 170.304 151.93 180.249 154.022 183.424" stroke="white" stroke-width="0.738032" stroke-linecap="round" stroke-linejoin="round"/>
</g>
<path d="M97.4905 204.335C107.619 204.335 115.829 196.125 115.829 185.997C115.829 175.869 107.619 167.659 97.4905 167.659C87.3622 167.659 79.1516 175.869 79.1516 185.997C79.1516 196.125 87.3622 204.335 97.4905 204.335Z" fill="white" stroke="#263238" stroke-width="0.738032" stroke-linecap="round" stroke-linejoin="round"/>
<path d="M93.077 171.002C100.425 169.198 107.844 173.695 109.648 181.043C111.452 188.39 106.954 195.809 99.6069 197.613C92.2593 199.417 84.8396 194.919 83.0357 187.572C81.2439 180.225 85.7295 172.806 93.077 171.002Z" fill="#263238"/>
<g opacity="0.5">
<path d="M96.9856 183.328C96.9856 183.328 95.783 178.818 91.6462 178.722" stroke="white" stroke-width="0.738032" stroke-linecap="round" stroke-linejoin="round"/>
<path d="M98.6931 188.102C98.6931 188.102 99.8957 192.611 104.032 192.707" stroke="white" stroke-width="0.738032" stroke-linecap="round" stroke-linejoin="round"/>
<path d="M95.458 186.562C95.458 186.562 90.9485 187.765 90.8523 191.913" stroke="white" stroke-width="0.738032" stroke-linecap="round" stroke-linejoin="round"/>
<path d="M100.22 184.867C100.22 184.867 104.742 183.664 104.826 179.528" stroke="white" stroke-width="0.738032" stroke-linecap="round" stroke-linejoin="round"/>
<path d="M95.5544 184.662C95.5544 184.662 91.5139 182.329 88.5195 185.191" stroke="white" stroke-width="0.738032" stroke-linecap="round" stroke-linejoin="round"/>
<path d="M100.124 186.803C100.124 186.803 104.165 189.135 107.159 186.273" stroke="white" stroke-width="0.738032" stroke-linecap="round" stroke-linejoin="round"/>
<path d="M96.7569 188.005C96.7569 188.005 94.3518 192.046 97.274 195.04" stroke="white" stroke-width="0.738032" stroke-linecap="round" stroke-linejoin="round"/>
<path d="M98.9216 183.46C98.9216 183.46 101.327 179.431 98.4045 176.425" stroke="white" stroke-width="0.738032" stroke-linecap="round" stroke-linejoin="round"/>
<path d="M102.529 173.84C102.529 173.84 95.8548 169.872 89.818 174.285C82.4584 179.66 84.6711 188.655 86.5831 191.517" stroke="white" stroke-width="0.738032" stroke-linecap="round" stroke-linejoin="round"/>
</g>
<path d="M277.344 84.9397H277.668C279.424 84.9397 280.855 86.3707 280.855 88.1263V124.297H274.157V88.1263C274.157 86.3707 275.588 84.9397 277.344 84.9397Z" fill="white" stroke="#263238" stroke-width="0.738032" stroke-linecap="round" stroke-linejoin="round"/>
<path d="M326.997 181.608L277.512 186.333L228.027 181.608C228.027 181.608 213.777 202.699 214.114 208.423C214.45 214.147 219.79 220.604 277.512 220.604C335.234 220.604 340.622 214.135 340.91 208.423C341.199 202.711 326.997 181.608 326.997 181.608Z" fill="white"/>
<mask id="mask8_53_60410" style="mask-type:luminance" maskUnits="userSpaceOnUse" x="214" y="181" width="127" height="40">
<path d="M326.997 181.608L277.512 186.333L228.027 181.608C228.027 181.608 213.777 202.699 214.114 208.423C214.45 214.147 219.79 220.604 277.512 220.604C335.234 220.604 340.622 214.135 340.91 208.423C341.199 202.711 326.997 181.608 326.997 181.608Z" fill="white"/>
</mask>
<g mask="url(#mask8_53_60410)">
<path opacity="0.2" d="M335.992 214.724C329.306 218.019 313.685 220.557 277.512 220.557C244.382 220.557 228.496 218.428 220.92 215.53C213.44 212.115 229.855 205.91 229.855 205.91C229.855 205.91 226.728 201.221 231.563 195.016C236.397 188.811 327.153 196.218 327.153 196.218C327.153 196.218 327.959 200.198 325.229 205.934C325.205 205.934 337.699 208.231 335.992 214.724Z" fill="black" fill-opacity="0.7"/>
</g>
<path d="M326.997 181.608L277.512 186.333L228.027 181.608C228.027 181.608 213.777 202.699 214.114 208.423C214.45 214.147 219.79 220.604 277.512 220.604C335.234 220.604 340.622 214.135 340.91 208.423C341.199 202.711 326.997 181.608 326.997 181.608Z" stroke="#263238" stroke-width="0.738032" stroke-linecap="round" stroke-linejoin="round"/>
<path d="M277.512 114.593C261.698 114.581 246.883 122.289 237.828 135.252C215.088 167.935 213.777 220.628 277.512 220.628C341.247 220.628 339.96 167.959 317.196 135.252C308.141 122.289 293.325 114.581 277.512 114.593Z" fill="white"/>
<mask id="mask9_53_60410" style="mask-type:luminance" maskUnits="userSpaceOnUse" x="222" y="114" width="109" height="107">
<path d="M276.079 114.594C260.266 114.581 245.45 122.289 236.395 135.252C213.655 167.936 212.344 220.629 276.079 220.629C339.814 220.629 338.528 167.96 315.763 135.252C306.708 122.289 291.893 114.581 276.079 114.594Z" fill="white"/>
</mask>
<g mask="url(#mask9_53_60410)">
<path opacity="0.2" d="M321.5 203.734C320.682 204.972 319.684 206.066 318.529 206.992C317.519 207.786 315.811 209.181 313.647 211.009C305.097 216.949 292.855 220.568 276.127 220.568C255.287 220.568 241.398 214.941 232.944 206.211C227.256 198.202 224.153 190.422 228.446 184.277C233.088 177.628 268.9 160.228 276.44 160.228C283.98 160.228 321.608 181.403 324.795 183.772C327.428 185.865 326.045 197.036 321.5 203.734Z" fill="black" fill-opacity="0.7"/>
</g>
<path d="M277.512 114.593C261.698 114.581 246.883 122.289 237.828 135.252C215.088 167.935 213.777 220.628 277.512 220.628C341.247 220.628 339.96 167.959 317.196 135.252C308.141 122.289 293.325 114.581 277.512 114.593Z" stroke="#263238" stroke-width="0.738032" stroke-linecap="round" stroke-linejoin="round"/>
<path d="M250.767 134.867C248.362 138.871 246.438 143.164 245.043 147.625C249.024 145.569 253.581 143.573 257.069 142.996C257.586 139.918 258.271 136.466 259.137 133.376C256.191 133.773 253.365 134.266 250.767 134.867Z" fill="#263238"/>
<path d="M304.257 134.867C301.659 134.266 298.833 133.773 295.839 133.376C296.693 136.466 297.39 139.918 297.907 142.996C301.419 143.573 305.976 145.569 309.933 147.625C308.55 143.164 306.65 138.883 304.257 134.867Z" fill="#263238"/>
<path d="M294.179 133.172C289.08 132.582 283.945 132.27 278.811 132.246V144.042C283.308 143.814 289.573 142.551 296.296 142.84C295.55 138.968 294.853 135.697 294.179 133.172Z" fill="#263238"/>
<path d="M311.255 148.275L316.595 149.381C314.803 144.739 312.434 140.35 309.524 136.322C308.321 135.901 306.926 135.528 305.507 135.119C307.9 139.28 309.836 143.693 311.255 148.275Z" fill="#263238"/>
<path d="M249.517 135.167C248.098 135.528 246.751 135.901 245.5 136.37C245.5 136.37 241.52 140.675 238.429 149.429L243.769 148.323C245.188 143.741 247.124 139.328 249.517 135.167Z" fill="#263238"/>
<path d="M276.754 132.233C271.439 132.257 266.123 132.57 260.844 133.171C260.171 135.697 259.425 138.955 258.728 142.791C265.715 142.503 272.22 143.873 276.766 143.994L276.754 132.233Z" fill="#263238"/>
<path d="M277.512 207.401C274.987 207.221 268.084 206.584 265.066 205.129L266.761 212.344C270.177 213.606 273.796 214.219 277.44 214.147L277.512 213.642L277.584 214.147C281.228 214.219 284.848 213.606 288.263 212.344L289.958 205.129C286.94 206.584 280.037 207.221 277.512 207.401Z" fill="#263238"/>
<path d="M278.534 208.231H276.49V224.236H278.534V208.231Z" fill="#757575" stroke="#263238" stroke-width="0.738032" stroke-linecap="round" stroke-linejoin="round"/>
<path d="M277.512 228.841C279.352 228.841 280.843 227.35 280.843 225.511C280.843 223.671 279.352 222.18 277.512 222.18C275.672 222.18 274.181 223.671 274.181 225.511C274.181 227.35 275.672 228.841 277.512 228.841Z" fill="#757575" stroke="#263238" stroke-width="0.738032" stroke-linecap="round" stroke-linejoin="round"/>
<path d="M268.589 216.179H273.58C274.542 216.179 275.323 216.961 275.323 217.923V233.76C275.323 234.722 274.542 235.503 273.58 235.503H268.589C267.627 235.503 266.845 234.722 266.845 233.76V217.923C266.845 216.961 267.627 216.179 268.589 216.179Z" fill="#263238"/>
<path d="M281.456 216.179H286.447C287.409 216.179 288.191 216.961 288.191 217.923V233.76C288.191 234.722 287.409 235.503 286.447 235.503H281.456C280.494 235.503 279.713 234.722 279.713 233.76V217.923C279.713 216.961 280.494 216.179 281.456 216.179Z" fill="#263238"/>
<path d="M308.249 216.396C308.249 216.396 323.618 214.664 329.005 211.285L327.803 214.893C320.491 216.973 312.963 218.176 305.375 218.5L308.249 216.396Z" fill="#263238"/>
<path d="M246.775 216.396C246.775 216.396 231.406 214.664 226.019 211.285L227.221 214.893C234.533 216.973 242.061 218.176 249.649 218.5L246.775 216.396Z" fill="#263238"/>
<path d="M325.205 226.461H323.485V214.977L325.205 214.58V226.461Z" fill="#757575" stroke="#263238" stroke-width="0.738032" stroke-linecap="round" stroke-linejoin="round"/>
<path d="M314.995 226.46H313.276V216.444L314.995 216.227V226.46Z" fill="#757575" stroke="#263238" stroke-width="0.738032" stroke-linecap="round" stroke-linejoin="round"/>
<path d="M327.129 227.531C327.141 229.07 325.89 230.321 324.351 230.333C322.812 230.345 321.561 229.094 321.549 227.555C321.537 226.016 322.788 224.765 324.327 224.753H324.339C325.878 224.753 327.117 225.992 327.129 227.531Z" fill="#757575" stroke="#263238" stroke-width="0.738032" stroke-linecap="round" stroke-linejoin="round"/>
<path d="M316.919 227.531C316.931 229.07 315.681 230.321 314.141 230.333C312.602 230.345 311.351 229.094 311.339 227.555C311.327 226.016 312.578 224.765 314.117 224.753C314.129 224.753 314.129 224.753 314.141 224.753C315.669 224.753 316.907 226.004 316.919 227.531Z" fill="#757575" stroke="#263238" stroke-width="0.738032" stroke-linecap="round" stroke-linejoin="round"/>
<path d="M317.04 219.739H321.429C322.175 219.739 322.776 220.34 322.776 221.086V234.541C322.776 235.287 322.175 235.888 321.429 235.888H317.04C316.294 235.888 315.693 235.287 315.693 234.541V221.086C315.693 220.34 316.294 219.739 317.04 219.739Z" fill="#263238"/>
<path d="M327.526 219.739H331.915C332.661 219.739 333.262 220.34 333.262 221.086V234.541C333.262 235.287 332.661 235.888 331.915 235.888H327.526C326.78 235.888 326.179 235.287 326.179 234.541V221.086C326.179 220.34 326.78 219.739 327.526 219.739Z" fill="#263238"/>
<path d="M306.566 219.739H310.955C311.7 219.739 312.302 220.34 312.302 221.086V234.541C312.302 235.287 311.7 235.888 310.955 235.888H306.566C305.82 235.888 305.219 235.287 305.219 234.541V221.086C305.219 220.34 305.82 219.739 306.566 219.739Z" fill="#263238"/>
<path d="M229.819 226.461H231.538V214.977L229.819 214.58V226.461Z" fill="#757575" stroke="#263238" stroke-width="0.738032" stroke-linecap="round" stroke-linejoin="round"/>
<path d="M240.029 226.46H241.748V216.444L240.029 216.227V226.46Z" fill="#757575" stroke="#263238" stroke-width="0.738032" stroke-linecap="round" stroke-linejoin="round"/>
<path d="M227.895 227.531C227.883 229.07 229.133 230.321 230.673 230.333C232.212 230.345 233.462 229.094 233.474 227.555C233.486 226.016 232.236 224.765 230.697 224.753H230.685C229.145 224.753 227.907 225.992 227.895 227.531Z" fill="#757575" stroke="#263238" stroke-width="0.738032" stroke-linecap="round" stroke-linejoin="round"/>
<path d="M238.104 227.531C238.092 229.07 239.343 230.321 240.882 230.333C242.421 230.345 243.672 229.094 243.684 227.555C243.696 226.016 242.446 224.765 240.906 224.753C240.894 224.753 240.894 224.753 240.882 224.753C239.355 224.753 238.116 226.004 238.104 227.531Z" fill="#757575" stroke="#263238" stroke-width="0.738032" stroke-linecap="round" stroke-linejoin="round"/>
<path d="M233.583 219.739H237.972C238.718 219.739 239.319 220.34 239.319 221.086V234.541C239.319 235.287 238.718 235.888 237.972 235.888H233.583C232.837 235.888 232.236 235.287 232.236 234.541V221.086C232.236 220.34 232.837 219.739 233.583 219.739Z" fill="#263238"/>
<path d="M223.109 219.739H227.498C228.243 219.739 228.845 220.34 228.845 221.086V234.541C228.845 235.287 228.243 235.888 227.498 235.888H223.109C222.363 235.888 221.762 235.287 221.762 234.541V221.086C221.762 220.34 222.363 219.739 223.109 219.739Z" fill="#263238"/>
<path d="M244.069 219.739H248.458C249.204 219.739 249.805 220.34 249.805 221.086V234.541C249.805 235.287 249.204 235.888 248.458 235.888H244.069C243.323 235.888 242.722 235.287 242.722 234.541V221.086C242.722 220.34 243.323 219.739 244.069 219.739Z" fill="#263238"/>
<path d="M278.811 98.636V114.593" stroke="#263238" stroke-width="0.738032" stroke-linecap="round" stroke-linejoin="round"/>
<path d="M278.811 88.4629V93.0203" stroke="#263238" stroke-width="0.738032" stroke-linecap="round" stroke-linejoin="round"/>
</svg>
