<svg xmlns="http://www.w3.org/2000/svg" width="28" height="28" viewBox="0 0 28 28" fill="none">
<path d="M17.6575 14.582C17.5175 14.582 17.3717 14.5587 17.2317 14.512C16.9687 14.4283 16.7395 14.2624 16.5778 14.0388C16.4161 13.8151 16.3304 13.5455 16.3333 13.2695V11.6304C15.015 11.4204 14 10.2712 14 8.89453V5.10286C14 3.57453 15.2425 2.33203 16.7708 2.33203H23.4792C25.0075 2.33203 26.25 3.57453 26.25 5.10286V8.89453C26.25 10.4229 25.0075 11.6654 23.4792 11.6654H20.4925L18.6958 14.057C18.4392 14.3954 18.06 14.582 17.6575 14.582ZM16.7708 3.79036C16.0475 3.79036 15.4583 4.37953 15.4583 5.10286V8.89453C15.4583 9.61786 16.0475 10.207 16.7708 10.207H17.7917V12.832L19.7633 10.207H23.485C24.2083 10.207 24.7975 9.61786 24.7975 8.89453V5.10286C24.7975 4.37953 24.2083 3.79036 23.485 3.79036H16.7708ZM9.33333 16.0404C6.91833 16.0404 4.95833 14.0804 4.95833 11.6654C4.95833 9.25036 6.91833 7.29036 9.33333 7.29036C11.7483 7.29036 13.7083 9.25036 13.7083 11.6654C13.7083 14.0804 11.7483 16.0404 9.33333 16.0404ZM9.33333 8.7487C7.72333 8.7487 6.41667 10.0554 6.41667 11.6654C6.41667 13.2754 7.72333 14.582 9.33333 14.582C10.9433 14.582 12.25 13.2754 12.25 11.6654C12.25 10.0554 10.9433 8.7487 9.33333 8.7487ZM1.75 20.2929C1.75 20.3454 1.8375 25.6654 9.33333 25.6654C16.8292 25.6654 16.9167 20.3454 16.9167 20.2929V19.6862C16.9167 18.4787 15.9367 17.4987 14.7292 17.4987H3.9375C2.73 17.4987 1.75 18.4787 1.75 19.6862V20.2929ZM3.20833 19.6862C3.20833 19.2837 3.535 18.957 3.9375 18.957H14.7292C15.1317 18.957 15.4583 19.2837 15.4583 19.6862V20.287C15.4583 20.4445 15.33 24.207 9.33333 24.207C3.33667 24.207 3.20833 20.4445 3.20833 20.2929V19.6862Z" fill="#006969"/>
</svg>