<svg xmlns="http://www.w3.org/2000/svg" width="24" height="24" viewBox="0 0 24 24" fill="none">
<path d="M9 4.99854C8.73478 4.99854 8.48043 5.1039 8.29289 5.29144C8.10536 5.47897 8 5.73333 8 5.99854C8 6.26376 8.10536 6.51811 8.29289 6.70565C8.48043 6.89319 8.73478 6.99854 9 6.99854C9.26522 6.99854 9.51957 6.89319 9.70711 6.70565C9.89464 6.51811 10 6.26376 10 5.99854C10 5.73333 9.89464 5.47897 9.70711 5.29144C9.51957 5.1039 9.26522 4.99854 9 4.99854ZM6.17 4.99854C6.3766 4.41301 6.75974 3.90598 7.2666 3.54733C7.77346 3.18869 8.37909 2.99609 9 2.99609C9.62091 2.99609 10.2265 3.18869 10.7334 3.54733C11.2403 3.90598 11.6234 4.41301 11.83 4.99854H19C19.2652 4.99854 19.5196 5.1039 19.7071 5.29144C19.8946 5.47897 20 5.73333 20 5.99854C20 6.26376 19.8946 6.51811 19.7071 6.70565C19.5196 6.89319 19.2652 6.99854 19 6.99854H11.83C11.6234 7.58408 11.2403 8.09111 10.7334 8.44976C10.2265 8.8084 9.62091 9.001 9 9.001C8.37909 9.001 7.77346 8.8084 7.2666 8.44976C6.75974 8.09111 6.3766 7.58408 6.17 6.99854H5C4.73478 6.99854 4.48043 6.89319 4.29289 6.70565C4.10536 6.51811 4 6.26376 4 5.99854C4 5.73333 4.10536 5.47897 4.29289 5.29144C4.48043 5.1039 4.73478 4.99854 5 4.99854H6.17ZM15 10.9985C14.7348 10.9985 14.4804 11.1039 14.2929 11.2914C14.1054 11.479 14 11.7333 14 11.9985C14 12.2638 14.1054 12.5181 14.2929 12.7057C14.4804 12.8932 14.7348 12.9985 15 12.9985C15.2652 12.9985 15.5196 12.8932 15.7071 12.7057C15.8946 12.5181 16 12.2638 16 11.9985C16 11.7333 15.8946 11.479 15.7071 11.2914C15.5196 11.1039 15.2652 10.9985 15 10.9985ZM12.17 10.9985C12.3766 10.413 12.7597 9.90598 13.2666 9.54733C13.7735 9.18869 14.3791 8.99609 15 8.99609C15.6209 8.99609 16.2265 9.18869 16.7334 9.54733C17.2403 9.90598 17.6234 10.413 17.83 10.9985H19C19.2652 10.9985 19.5196 11.1039 19.7071 11.2914C19.8946 11.479 20 11.7333 20 11.9985C20 12.2638 19.8946 12.5181 19.7071 12.7057C19.5196 12.8932 19.2652 12.9985 19 12.9985H17.83C17.6234 13.5841 17.2403 14.0911 16.7334 14.4498C16.2265 14.8084 15.6209 15.001 15 15.001C14.3791 15.001 13.7735 14.8084 13.2666 14.4498C12.7597 14.0911 12.3766 13.5841 12.17 12.9985H5C4.73478 12.9985 4.48043 12.8932 4.29289 12.7057C4.10536 12.5181 4 12.2638 4 11.9985C4 11.7333 4.10536 11.479 4.29289 11.2914C4.48043 11.1039 4.73478 10.9985 5 10.9985H12.17ZM9 16.9985C8.73478 16.9985 8.48043 17.1039 8.29289 17.2914C8.10536 17.479 8 17.7333 8 17.9985C8 18.2638 8.10536 18.5181 8.29289 18.7057C8.48043 18.8932 8.73478 18.9985 9 18.9985C9.26522 18.9985 9.51957 18.8932 9.70711 18.7057C9.89464 18.5181 10 18.2638 10 17.9985C10 17.7333 9.89464 17.479 9.70711 17.2914C9.51957 17.1039 9.26522 16.9985 9 16.9985ZM6.17 16.9985C6.3766 16.413 6.75974 15.906 7.2666 15.5473C7.77346 15.1887 8.37909 14.9961 9 14.9961C9.62091 14.9961 10.2265 15.1887 10.7334 15.5473C11.2403 15.906 11.6234 16.413 11.83 16.9985H19C19.2652 16.9985 19.5196 17.1039 19.7071 17.2914C19.8946 17.479 20 17.7333 20 17.9985C20 18.2638 19.8946 18.5181 19.7071 18.7057C19.5196 18.8932 19.2652 18.9985 19 18.9985H11.83C11.6234 19.5841 11.2403 20.0911 10.7334 20.4498C10.2265 20.8084 9.62091 21.001 9 21.001C8.37909 21.001 7.77346 20.8084 7.2666 20.4498C6.75974 20.0911 6.3766 19.5841 6.17 18.9985H5C4.73478 18.9985 4.48043 18.8932 4.29289 18.7057C4.10536 18.5181 4 18.2638 4 17.9985C4 17.7333 4.10536 17.479 4.29289 17.2914C4.48043 17.1039 4.73478 16.9985 5 16.9985H6.17Z" fill="black"/>
</svg>